<svg width="97" height="26" viewBox="0 0 97 26" fill="black" xmlns="http://www.w3.org/2000/svg">
<g id="amsign_logo">
<path id="Vector" d="M16.1751 8.4499H17.8626V12.8644C17.8626 13.1668 17.9777 13.4205 18.2113 13.6256C18.4414 13.8307 18.7273 13.9315 19.069 13.9315H20.3799C20.7006 13.9315 20.983 13.8307 21.2236 13.6256C21.4642 13.4205 21.5863 13.1668 21.5863 12.8644V1.34838C21.5863 1.06335 21.4642 0.81308 21.2236 0.60104C20.983 0.38553 20.7006 0.28125 20.3799 0.28125H19.069C18.7308 0.28125 18.4449 0.38901 18.2113 0.60104C17.9777 0.81655 17.8626 1.06335 17.8626 1.34838V5.4327H16.1751C15.8369 5.4327 15.551 5.5404 15.3174 5.7525C15.0838 5.9645 14.9688 6.2148 14.9688 6.4998V7.3792C14.9688 7.6817 15.0838 7.9354 15.3174 8.1405C15.5475 8.3456 15.8334 8.4464 16.1751 8.4464V8.4499Z" fill="black"/>
<path id="Vector_2" d="M21.2298 23.3572C20.9892 23.1452 20.7068 23.0374 20.3861 23.0374H9.64734V21.6748H20.3861C20.7068 21.6748 20.9892 21.5705 21.2298 21.3689C21.4704 21.1638 21.5924 20.9101 21.5924 20.6077V16.0437C21.5924 15.7587 21.4739 15.5084 21.2298 15.2964C20.9892 15.0808 20.7068 14.9766 20.3861 14.9766H6.91734C6.57914 14.9766 6.29324 15.0843 6.05964 15.2964C5.82604 15.5084 5.71094 15.7587 5.71094 16.0437V16.6833C5.71094 16.9857 5.82604 17.2394 6.05964 17.4445C6.28974 17.6496 6.57564 17.7504 6.91734 17.7504H17.6526V19.0331H6.91734C6.57914 19.0331 6.29324 19.1408 6.05964 19.3528C5.82604 19.5649 5.71094 19.8152 5.71094 20.1002V24.8797C5.71094 25.1821 5.82604 25.4358 6.05964 25.6409C6.28974 25.846 6.57564 25.9468 6.91734 25.9468H20.3861C20.7068 25.9468 20.9892 25.846 21.2298 25.6409C21.4704 25.4358 21.5924 25.1821 21.5924 24.8797V24.1045C21.5924 23.8195 21.4739 23.5692 21.2298 23.3572Z" fill="black"/>
<path id="Vector_3" d="M7.3466 0.53125C8.2984 0.53125 9.191 0.70157 10.0138 1.03875C10.8402 1.37592 11.5619 1.83823 12.186 2.42219C12.8101 3.00964 13.2982 3.68398 13.6573 4.45218C14.0165 5.2204 14.1943 6.0442 14.1943 6.9201C14.1943 7.7961 14.0165 8.6581 13.6573 9.4437C13.2982 10.2293 12.8101 10.9141 12.186 11.498C11.5619 12.082 10.8402 12.5408 10.0138 12.8711C9.1875 13.2013 8.2984 13.3646 7.3466 13.3646C6.3948 13.3646 5.5057 13.2013 4.67934 12.8711C3.85302 12.5408 3.13129 12.0855 2.50719 11.498C1.90052 10.9141 1.42634 10.2293 1.07768 9.4437C0.729018 8.6581 0.554688 7.8169 0.554688 6.9201C0.554688 6.0233 0.729018 5.2204 1.07768 4.45218C1.42634 3.68398 1.90401 3.00964 2.50719 2.42219C3.13129 1.83823 3.8565 1.37592 4.67934 1.03875C5.5057 0.70157 6.3948 0.53125 7.3466 0.53125ZM7.3466 3.68398C6.5586 3.68398 5.8648 3.99335 5.2686 4.61555C4.67237 5.2378 4.376 6.006 4.376 6.9201C4.376 7.8343 4.67237 8.6303 5.2686 9.2525C5.8648 9.8747 6.5551 10.1841 7.3466 10.1841C8.1381 10.1841 8.8563 9.8747 9.4525 9.2525C10.0487 8.6303 10.3451 7.8552 10.3451 6.9201C10.3451 5.9851 10.0487 5.2378 9.4525 4.61555C8.8563 3.99335 8.1555 3.68398 7.3466 3.68398Z" fill="black"/>
<path id="Vector_4" d="M36.985 14.4555C36.985 14.7649 36.8595 15.0256 36.6154 15.2376C36.3679 15.4497 36.0785 15.5539 35.7508 15.5539H25.8627C25.5141 15.5539 25.2212 15.4497 24.9841 15.2376C24.747 15.0291 24.625 14.7684 24.625 14.4555V2.74487C24.625 2.45289 24.7435 2.19567 24.9841 1.97668C25.2212 1.75769 25.5141 1.64646 25.8627 1.64646H35.7508C36.082 1.64646 36.3679 1.75769 36.6154 1.97668C36.863 2.19567 36.985 2.45289 36.985 2.74487V14.4555ZM33.2195 12.4812V4.69143H28.4184V12.4846H33.2195V12.4812ZM43.6026 7.5105H46.0223C46.3535 7.5105 46.6394 7.6217 46.887 7.8407C47.1345 8.0597 47.26 8.3169 47.26 8.6089V9.4605C47.26 9.7699 47.1345 10.0306 46.887 10.2426C46.6394 10.4546 46.35 10.5589 46.0223 10.5589H43.6026V19.4749C43.6026 19.7842 43.4771 20.0449 43.2295 20.257C42.982 20.4655 42.6926 20.5733 42.3648 20.5733H41.0713C40.7227 20.5733 40.4298 20.469 40.1927 20.257C39.9556 20.0484 39.8371 19.7877 39.8371 19.4749V1.37185C39.8371 1.07987 39.9556 0.822648 40.1927 0.603658C40.4298 0.384668 40.7227 0.273438 41.0713 0.273438H42.3648C42.6961 0.273438 42.982 0.384668 43.2295 0.603658C43.4771 0.822648 43.6026 1.07987 43.6026 1.37185V7.5139V7.5105Z" fill="black"/>
<path id="Vector_5" d="M64.8531 13.709C65.0867 13.9975 65.1879 14.3243 65.16 14.6788C65.1321 15.0369 65.0484 15.301 64.9124 15.4783L64.4173 16.0866C64.1663 16.3578 63.849 16.4968 63.4725 16.5072C63.0959 16.5176 62.7682 16.4064 62.4962 16.1735C62.0116 15.7668 61.5444 15.2906 61.1016 14.7379C60.6553 14.1887 60.2299 13.5457 59.822 12.8088C59.4908 13.4866 59.1247 14.0984 58.7167 14.651C58.3088 15.2037 57.8625 15.739 57.3779 16.2604C57.1059 16.5489 56.7677 16.6949 56.3598 16.6949C55.9518 16.6949 55.6136 16.5489 55.3417 16.2604C54.8361 15.7182 54.4003 15.1933 54.0342 14.6788C53.6646 14.1679 53.2985 13.5352 52.929 12.7775C52.4827 13.5909 52.0503 14.2652 51.6354 14.8075C51.217 15.3497 50.7777 15.8711 50.3105 16.3751C50.0595 16.6463 49.7422 16.7818 49.3657 16.7818C48.9891 16.7818 48.6614 16.6567 48.3894 16.4064L47.6328 15.6521C47.3992 15.4575 47.2737 15.2141 47.2528 14.9117C47.2319 14.6128 47.3295 14.3451 47.5422 14.1157C48.3162 13.1494 48.9298 12.2456 49.3761 11.4045C49.8224 10.5633 50.1606 9.7082 50.3942 8.8392C50.6278 7.9702 50.7812 7.0595 50.8579 6.114C50.9346 5.1685 50.9939 4.82091 51.0322 3.62169V2.6345C51.0322 2.32514 51.1578 2.05401 51.4123 1.82112C51.6633 1.58823 51.9736 1.47352 52.3432 1.47352H53.7379C54.0865 1.47352 54.3933 1.58823 54.6548 1.82112C54.9163 2.05401 55.0488 2.32514 55.0488 2.6345V3.56259C55.0488 4.62625 55.0662 4.83829 55.1081 5.6482C55.1464 6.4616 55.2127 7.2054 55.3103 7.8833C55.4079 8.5611 55.5369 9.1833 55.7043 9.7534C55.8682 10.3234 56.0878 10.897 56.3598 11.4774C56.6701 10.7232 56.9107 10.0141 57.0885 9.3467C57.2628 8.6793 57.3883 8.0084 57.465 7.3306C57.5417 6.6736 57.5905 5.9819 57.6115 5.2589C57.6324 4.5324 57.6603 4.45245 57.6986 3.56259V2.6345C57.6986 2.32514 57.8242 2.05401 58.0752 1.82112C58.3262 1.58823 58.6365 1.47352 59.0061 1.47352H60.4008C60.7494 1.47352 61.0562 1.58823 61.3177 1.82112C61.5792 2.05401 61.7117 2.32514 61.7117 2.6345V3.62169C61.6908 4.89738 61.7152 5.311 61.7849 6.3191C61.8512 7.3236 62.0046 8.2517 62.2347 9.1033C62.4474 9.9341 62.7612 10.7232 63.1796 11.467C63.598 12.2109 64.1523 12.9617 64.8531 13.716V13.709ZM65.9689 1.44223C65.9689 1.13287 66.0944 0.86174 66.3454 0.62885C66.5964 0.39596 66.9068 0.28125 67.2763 0.28125H68.6431C68.9917 0.28125 69.2986 0.39596 69.5601 0.62885C69.8216 0.86174 69.9541 1.13287 69.9541 1.44223V7.2124H72.5132C72.8619 7.2124 73.1687 7.3271 73.4302 7.56C73.6917 7.7929 73.8242 8.064 73.8242 8.3734V9.2737C73.8242 9.6039 73.6917 9.8785 73.4302 10.101C73.1687 10.3234 72.8619 10.4346 72.5132 10.4346H69.9541V21.8012C69.9541 22.1314 69.8216 22.406 69.5601 22.6285C69.2986 22.8509 68.9917 22.9622 68.6431 22.9622H67.2763C66.9068 22.9622 66.5964 22.8509 66.3454 22.6285C66.0944 22.406 65.9689 22.1314 65.9689 21.8012V1.44223Z" fill="black"/>
<path id="Vector_6" d="M79.5938 17.7203C79.5938 17.411 79.7192 17.1399 79.9702 16.907C80.2212 16.6741 80.5315 16.5594 80.9011 16.5594H82.355C82.7037 16.5594 83.0105 16.6741 83.272 16.907C83.5335 17.1399 83.666 17.411 83.666 17.7203V22.6702H95.3429C95.6909 22.6702 95.9979 22.7849 96.2599 23.0178C96.5209 23.2507 96.6539 23.5218 96.6539 23.8312V24.7871C96.6539 25.1173 96.5209 25.3919 96.2599 25.6143C95.9979 25.8368 95.6909 25.948 95.3429 25.948H80.9011C80.5315 25.948 80.2212 25.8368 79.9702 25.6143C79.7192 25.3919 79.5938 25.1173 79.5938 24.7871V17.7203ZM93.9131 16.2987C93.5436 16.2987 93.2333 16.1874 92.9822 15.965C92.7312 15.7425 92.6022 15.4679 92.6022 15.1377V1.44223C92.6022 1.13287 92.7277 0.86174 92.9822 0.62885C93.2333 0.39596 93.5436 0.28125 93.9131 0.28125H95.3389C95.6879 0.28125 95.9949 0.39596 96.2559 0.62885C96.5179 0.86174 96.6499 1.13287 96.6499 1.44223V15.1377C96.6499 15.4679 96.5179 15.7425 96.2559 15.965C95.9949 16.1874 95.6879 16.2987 95.3389 16.2987H93.9131Z" fill="black"/>
<path id="Vector_7" d="M81.9659 1.07031C82.9631 1.07031 83.8905 1.24759 84.7517 1.59866C85.6129 1.95322 86.3695 2.4329 87.0215 3.04468C87.6735 3.65646 88.186 4.36209 88.5591 5.165C88.9321 5.968 89.1204 6.8266 89.1204 7.7442C89.1204 8.6619 88.9321 9.5587 88.5591 10.379C88.186 11.1994 87.6735 11.9154 87.0215 12.5272C86.3695 13.139 85.6129 13.6152 84.7517 13.9593C83.8905 14.3034 82.9596 14.4738 81.9659 14.4738C80.9722 14.4738 80.0413 14.3034 79.1801 13.9593C78.3189 13.6152 77.5623 13.139 76.9103 12.5272C76.2793 11.9154 75.7807 11.1994 75.4146 10.379C75.052 9.5587 74.8672 8.6793 74.8672 7.7442C74.8672 6.8092 75.0485 5.968 75.4146 5.165C75.7772 4.36209 76.2758 3.65646 76.9103 3.04468C77.5623 2.4329 78.3189 1.95322 79.1801 1.59866C80.0413 1.24411 80.9687 1.07031 81.9659 1.07031ZM81.9659 4.36556C81.1431 4.36556 80.4179 4.68883 79.7972 5.3388C79.1731 5.9889 78.8628 6.7918 78.8628 7.7442C78.8628 8.6967 79.1731 9.5274 79.7972 10.1774C80.4179 10.8274 81.1431 11.1507 81.9659 11.1507C82.7887 11.1507 83.5419 10.8274 84.1625 10.1774C84.7866 9.5274 85.0969 8.7175 85.0969 7.7442C85.0969 6.771 84.7866 5.9889 84.1625 5.3388C83.5384 4.68883 82.8062 4.36556 81.9659 4.36556Z" fill="black"/>
</g>
</svg>
