<svg width="9" height="7" viewBox="0 0 9 7" fill="none" xmlns="http://www.w3.org/2000/svg">
<path id="Vector" d="M2.21409 5.91909C2.30705 6.01282 2.41766 6.08721 2.53952 6.13798C2.66137 6.18875 2.79208 6.21489 2.92409 6.21489C3.0561 6.21489 3.18681 6.18875 3.30867 6.13798C3.43053 6.08721 3.54113 6.01282 3.63409 5.91909L7.71409 1.83909C7.9024 1.65079 8.00818 1.39539 8.00818 1.12909C8.00818 0.86279 7.9024 0.607395 7.71409 0.419091C7.52579 0.230788 7.27039 0.125 7.00409 0.125C6.73779 0.125 6.4824 0.230788 6.29409 0.419091L2.92409 3.79909L1.71409 2.57909C1.52579 2.39079 1.27039 2.285 1.00409 2.285C0.73779 2.285 0.482395 2.39079 0.294092 2.57909C0.105788 2.76739 0 3.02279 0 3.28909C0 3.55539 0.105788 3.81079 0.294092 3.99909L2.21409 5.91909Z" fill="#099A96"/>
</svg>
