<svg width="18" height="18" viewBox="0 0 18 18" fill="none" xmlns="http://www.w3.org/2000/svg">
<g id="ic_18_more">
<path id="Vector" d="M12.5 9C12.5 9.29667 12.588 9.58668 12.7528 9.83336C12.9176 10.08 13.1519 10.2723 13.426 10.3858C13.7001 10.4994 14.0017 10.5291 14.2926 10.4712C14.5836 10.4133 14.8509 10.2704 15.0607 10.0607C15.2704 9.85088 15.4133 9.58361 15.4712 9.29264C15.5291 9.00167 15.4994 8.70007 15.3858 8.42598C15.2723 8.15189 15.08 7.91762 14.8334 7.7528C14.5867 7.58798 14.2967 7.5 14 7.5C13.6022 7.5 13.2206 7.65804 12.9393 7.93934C12.658 8.22065 12.5 8.60218 12.5 9ZM5.5 9C5.5 8.70333 5.41203 8.41332 5.2472 8.16664C5.08238 7.91997 4.84811 7.72771 4.57403 7.61418C4.29994 7.50065 3.99834 7.47094 3.70737 7.52882C3.41639 7.5867 3.14912 7.72956 2.93934 7.93934C2.72956 8.14912 2.5867 8.41639 2.52882 8.70736C2.47095 8.99834 2.50065 9.29994 2.61418 9.57402C2.72771 9.84811 2.91997 10.0824 3.16664 10.2472C3.41332 10.412 3.70333 10.5 4 10.5C4.39783 10.5 4.77935 10.342 5.06066 10.0607C5.34196 9.77935 5.5 9.39782 5.5 9ZM10.5 9C10.5 8.70333 10.412 8.41332 10.2472 8.16664C10.0824 7.91997 9.84811 7.72771 9.57403 7.61418C9.29994 7.50065 8.99834 7.47094 8.70737 7.52882C8.41639 7.5867 8.14912 7.72956 7.93934 7.93934C7.72956 8.14912 7.5867 8.41639 7.52882 8.70736C7.47095 8.99834 7.50065 9.29994 7.61418 9.57402C7.72771 9.84811 7.91997 10.0824 8.16665 10.2472C8.41332 10.412 8.70333 10.5 9 10.5C9.39783 10.5 9.77936 10.342 10.0607 10.0607C10.342 9.77935 10.5 9.39782 10.5 9Z" fill="#BDBDBD"/>
</g>
</svg>
