<svg width="18" height="18" viewBox="0 0 18 18" fill="none" xmlns="http://www.w3.org/2000/svg">
<g id="ic_18_rotation">
<path id="source_notes" d="M4.5 6H12V4.5H4.5V6ZM4.5 9H8.0625C8.3125 8.7 8.58438 8.42188 8.87813 8.16562C9.17188 7.90937 9.49375 7.6875 9.84375 7.5H4.5V9ZM4.5 12H6.7875C6.8125 11.7375 6.85938 11.4813 6.92813 11.2313C6.99688 10.9812 7.08125 10.7375 7.18125 10.5H4.5V12ZM3 15C2.5875 15 2.23438 14.8531 1.94063 14.5594C1.64688 14.2656 1.5 13.9125 1.5 13.5V3C1.5 2.5875 1.64688 2.23438 1.94063 1.94063C2.23438 1.64688 2.5875 1.5 3 1.5H13.5C13.9125 1.5 14.2656 1.64688 14.5594 1.94063C14.8531 2.23438 15 2.5875 15 3V7.18125C14.7625 7.08125 14.5188 6.99688 14.2687 6.92813C14.0187 6.85938 13.7625 6.8125 13.5 6.7875V3H3V13.5H6.7875C6.8125 13.7625 6.85938 14.0187 6.92813 14.2687C6.99688 14.5188 7.08125 14.7625 7.18125 15H3ZM12.75 16.5C11.8375 16.5 11.0406 16.2156 10.3594 15.6469C9.67813 15.0781 9.25 14.3625 9.075 13.5H10.2375C10.4 14.05 10.7094 14.5 11.1656 14.85C11.6219 15.2 12.15 15.375 12.75 15.375C13.475 15.375 14.0938 15.1188 14.6063 14.6063C15.1188 14.0938 15.375 13.475 15.375 12.75C15.375 12.025 15.1188 11.4062 14.6063 10.8938C14.0938 10.3813 13.475 10.125 12.75 10.125C12.3875 10.125 12.05 10.1906 11.7375 10.3219C11.425 10.4531 11.15 10.6375 10.9125 10.875H12V12H9V9H10.125V10.0688C10.4625 9.74375 10.8562 9.48438 11.3062 9.29062C11.7562 9.09687 12.2375 9 12.75 9C13.7875 9 14.6719 9.36563 15.4031 10.0969C16.1344 10.8281 16.5 11.7125 16.5 12.75C16.5 13.7875 16.1344 14.6719 15.4031 15.4031C14.6719 16.1344 13.7875 16.5 12.75 16.5Z" fill="#9E9E9E"/>
</g>
</svg>
