<svg width="18" height="18" viewBox="0 0 18 18" fill="none" xmlns="http://www.w3.org/2000/svg">
<g id="ic_18_my">
<path id="account_box" d="M3.75 13.3875C4.425 12.725 5.20938 12.2031 6.10313 11.8219C6.99688 11.4406 7.9625 11.25 9 11.25C10.0375 11.25 11.0031 11.4406 11.8969 11.8219C12.7906 12.2031 13.575 12.725 14.25 13.3875V3.75H3.75V13.3875ZM9 9.75C9.725 9.75 10.3438 9.49375 10.8563 8.98125C11.3688 8.46875 11.625 7.85 11.625 7.125C11.625 6.4 11.3688 5.78125 10.8563 5.26875C10.3438 4.75625 9.725 4.5 9 4.5C8.275 4.5 7.65625 4.75625 7.14375 5.26875C6.63125 5.78125 6.375 6.4 6.375 7.125C6.375 7.85 6.63125 8.46875 7.14375 8.98125C7.65625 9.49375 8.275 9.75 9 9.75ZM3.75 15.75C3.3375 15.75 2.98438 15.6031 2.69063 15.3094C2.39688 15.0156 2.25 14.6625 2.25 14.25V3.75C2.25 3.3375 2.39688 2.98438 2.69063 2.69063C2.98438 2.39688 3.3375 2.25 3.75 2.25H14.25C14.6625 2.25 15.0156 2.39688 15.3094 2.69063C15.6031 2.98438 15.75 3.3375 15.75 3.75V14.25C15.75 14.6625 15.6031 15.0156 15.3094 15.3094C15.0156 15.6031 14.6625 15.75 14.25 15.75H3.75ZM5.25 14.25H12.75V14.0625C12.225 13.625 11.6438 13.2969 11.0063 13.0781C10.3688 12.8594 9.7 12.75 9 12.75C8.3 12.75 7.63125 12.8594 6.99375 13.0781C6.35625 13.2969 5.775 13.625 5.25 14.0625V14.25ZM9 8.25C8.6875 8.25 8.42188 8.14062 8.20312 7.92188C7.98438 7.70312 7.875 7.4375 7.875 7.125C7.875 6.8125 7.98438 6.54688 8.20312 6.32812C8.42188 6.10938 8.6875 6 9 6C9.3125 6 9.57812 6.10938 9.79688 6.32812C10.0156 6.54688 10.125 6.8125 10.125 7.125C10.125 7.4375 10.0156 7.70312 9.79688 7.92188C9.57812 8.14062 9.3125 8.25 9 8.25Z" fill="#4B4B4B"/>
</g>
</svg>
