<svg width="18" height="18" viewBox="0 0 18 18" fill="none" xmlns="http://www.w3.org/2000/svg">
<g id="ic_18_close_02">
<path id="Vector" d="M9.93909 8.99943L12.803 6.14179C12.9284 6.01635 12.9989 5.84623 12.9989 5.66884C12.9989 5.49146 12.9284 5.32133 12.803 5.1959C12.6776 5.07047 12.5075 5 12.3301 5C12.1528 5 11.9827 5.07047 11.8572 5.1959L9 8.06021L6.14276 5.1959C6.01735 5.07047 5.84725 5 5.66988 5C5.49252 5 5.32242 5.07047 5.19701 5.1959C5.07159 5.32133 5.00114 5.49146 5.00114 5.66884C5.00114 5.84623 5.07159 6.01635 5.19701 6.14179L8.06091 8.99943L5.19701 11.8571C5.13458 11.919 5.08504 11.9927 5.05122 12.0738C5.01741 12.155 5 12.2421 5 12.33C5 12.418 5.01741 12.505 5.05122 12.5862C5.08504 12.6674 5.13458 12.741 5.19701 12.803C5.25892 12.8654 5.33259 12.915 5.41375 12.9488C5.49491 12.9826 5.58196 13 5.66988 13C5.75781 13 5.84486 12.9826 5.92602 12.9488C6.00718 12.915 6.08085 12.8654 6.14276 12.803L9 9.93866L11.8572 12.803C11.9192 12.8654 11.9928 12.915 12.074 12.9488C12.1551 12.9826 12.2422 13 12.3301 13C12.418 13 12.5051 12.9826 12.5863 12.9488C12.6674 12.915 12.7411 12.8654 12.803 12.803C12.8654 12.741 12.915 12.6674 12.9488 12.5862C12.9826 12.505 13 12.418 13 12.33C13 12.2421 12.9826 12.155 12.9488 12.0738C12.915 11.9927 12.8654 11.919 12.803 11.8571L9.93909 8.99943Z" fill="#1C1C1C"/>
</g>
</svg>
