<svg width="18" height="18" viewBox="0 0 18 18" fill="none" xmlns="http://www.w3.org/2000/svg">
<g id="ic_18_movement">
<g id="Union">
<path d="M7.33336 5.2472C7.08668 5.41203 6.79667 5.5 6.5 5.5C6.10218 5.5 5.72065 5.34196 5.43934 5.06066C5.15804 4.77936 5 4.39782 5 4C5 3.70333 5.08798 3.41332 5.2528 3.16664C5.41762 2.91997 5.65189 2.72771 5.92598 2.61418C6.20007 2.50065 6.50167 2.47094 6.79264 2.52882C7.08361 2.5867 7.35088 2.72956 7.56066 2.93934C7.77044 3.14912 7.9133 3.41639 7.97118 3.70736C8.02906 3.99834 7.99935 4.29994 7.88582 4.57402C7.77229 4.84811 7.58003 5.08238 7.33336 5.2472Z" fill="#BDBDBD"/>
<path d="M5.66665 12.7528C5.91332 12.588 6.20333 12.5 6.5 12.5C6.89782 12.5 7.27936 12.658 7.56066 12.9393C7.84196 13.2206 8 13.6022 8 14C8 14.2967 7.91203 14.5867 7.7472 14.8334C7.58238 15.08 7.34811 15.2723 7.07402 15.3858C6.79994 15.4993 6.49834 15.5291 6.20736 15.4712C5.91639 15.4133 5.64912 15.2704 5.43934 15.0607C5.22956 14.8509 5.0867 14.5836 5.02882 14.2926C4.97094 14.0017 5.00065 13.7001 5.11418 13.426C5.22771 13.1519 5.41997 12.9176 5.66665 12.7528Z" fill="#BDBDBD"/>
<path d="M5.66665 7.7528C5.91332 7.58797 6.20333 7.5 6.5 7.5C6.89782 7.5 7.27936 7.65804 7.56066 7.93934C7.84196 8.22064 8 8.60217 8 9C8 9.29667 7.91203 9.58668 7.7472 9.83335C7.58238 10.08 7.34811 10.2723 7.07402 10.3858C6.79994 10.4993 6.49834 10.5291 6.20736 10.4712C5.91639 10.4133 5.64912 10.2704 5.43934 10.0607C5.22956 9.85088 5.0867 9.58361 5.02882 9.29263C4.97094 9.00166 5.00065 8.70006 5.11418 8.42597C5.22771 8.15189 5.41997 7.91762 5.66665 7.7528Z" fill="#BDBDBD"/>
<path d="M12.3334 5.2472C12.0867 5.41203 11.7967 5.5 11.5 5.5C11.1022 5.5 10.7206 5.34196 10.4393 5.06066C10.158 4.77936 10 4.39782 10 4C10 3.70333 10.088 3.41332 10.2528 3.16664C10.4176 2.91997 10.6519 2.72771 10.926 2.61418C11.2001 2.50065 11.5017 2.47094 11.7926 2.52882C12.0836 2.5867 12.3509 2.72956 12.5607 2.93934C12.7704 3.14912 12.9133 3.41639 12.9712 3.70736C13.0291 3.99834 12.9994 4.29994 12.8858 4.57402C12.7723 4.84811 12.58 5.08238 12.3334 5.2472Z" fill="#BDBDBD"/>
<path d="M10.6666 12.7528C10.9133 12.588 11.2033 12.5 11.5 12.5C11.8978 12.5 12.2794 12.658 12.5607 12.9393C12.842 13.2206 13 13.6022 13 14C13 14.2967 12.912 14.5867 12.7472 14.8334C12.5824 15.08 12.3481 15.2723 12.074 15.3858C11.7999 15.4993 11.4983 15.5291 11.2074 15.4712C10.9164 15.4133 10.6491 15.2704 10.4393 15.0607C10.2296 14.8509 10.0867 14.5836 10.0288 14.2926C9.97094 14.0017 10.0006 13.7001 10.1142 13.426C10.2277 13.1519 10.42 12.9176 10.6666 12.7528Z" fill="#BDBDBD"/>
<path d="M10.6666 7.7528C10.9133 7.58797 11.2033 7.5 11.5 7.5C11.8978 7.5 12.2794 7.65804 12.5607 7.93934C12.842 8.22064 13 8.60217 13 9C13 9.29667 12.912 9.58668 12.7472 9.83335C12.5824 10.08 12.3481 10.2723 12.074 10.3858C11.7999 10.4993 11.4983 10.5291 11.2074 10.4712C10.9164 10.4133 10.6491 10.2704 10.4393 10.0607C10.2296 9.85088 10.0867 9.58361 10.0288 9.29263C9.97094 9.00166 10.0006 8.70006 10.1142 8.42597C10.2277 8.15189 10.42 7.91762 10.6666 7.7528Z" fill="#BDBDBD"/>
</g>
</g>
</svg>
