<svg width="18" height="18" viewBox="0 0 18 18" fill="none" xmlns="http://www.w3.org/2000/svg">
<g id="ic_18_message">
<path id="comment" d="M4.5 10.5H13.5V9H4.5V10.5ZM4.5 8.25H13.5V6.75H4.5V8.25ZM4.5 6H13.5V4.5H4.5V6ZM16.5 16.5L13.5 13.5H3C2.5875 13.5 2.23438 13.3531 1.94063 13.0594C1.64688 12.7656 1.5 12.4125 1.5 12V3C1.5 2.5875 1.64688 2.23438 1.94063 1.94063C2.23438 1.64688 2.5875 1.5 3 1.5H15C15.4125 1.5 15.7656 1.64688 16.0594 1.94063C16.3531 2.23438 16.5 2.5875 16.5 3V16.5ZM3 3V12H14.1188L15 12.8813V3H3Z" fill="#4B4B4B"/>
</g>
</svg>
