<svg width="24" height="24" viewBox="0 0 24 24" fill="none" xmlns="http://www.w3.org/2000/svg">
<g id="ic_24_arrow_range">
<g id="Vector">
<path d="M4.46094 11.6101V4.53906H11.532L11.5143 6.53664H7.87273L16.5878 15.2517V11.6101H18.6031V18.6812H11.532L11.5143 16.6836L15.1736 16.6659L6.45851 7.95085L6.44084 11.6101H4.46094Z" fill="#1C1C1C"/>
<path fill-rule="evenodd" clip-rule="evenodd" d="M3.46094 12.6101L3.46094 3.53906H12.5409L12.5055 7.53664L10.2869 7.53664L15.5878 12.8375V10.6101L19.6031 10.6101V19.6812H10.5408L10.5055 15.6885L12.771 15.6775L7.44692 10.3535L7.43602 12.6101H3.46094ZM6.45851 7.95085L15.1736 16.6659L11.5143 16.6836L11.532 18.6812H18.6031V11.6101H16.5878V15.2517L7.87273 6.53664H11.5143L11.532 4.53906H4.46094V11.6101H6.44084L6.45851 7.95085Z" fill="white"/>
</g>
</g>
</svg>
