<svg width="24" height="24" viewBox="0 0 24 24" fill="none" xmlns="http://www.w3.org/2000/svg">
<g id="ic_24_proof_s">
<path id="dynamic_feed" d="M4 21C3.45 21 2.97933 20.8043 2.588 20.413C2.196 20.021 2 19.55 2 19V12H4V19H13V21H4ZM8 17C7.45 17 6.97933 16.8043 6.588 16.413C6.196 16.021 6 15.55 6 15V8H8V15H17V17H8ZM12 13C11.45 13 10.9793 12.804 10.588 12.412C10.196 12.0207 10 11.55 10 11V5C10 4.45 10.196 3.979 10.588 3.587C10.9793 3.19567 11.45 3 12 3H20C20.55 3 21.021 3.19567 21.413 3.587C21.8043 3.979 22 4.45 22 5V11C22 11.55 21.8043 12.0207 21.413 12.412C21.021 12.804 20.55 13 20 13H12ZM12 11H20V7H12V11Z" fill="white"/>
</g>
</svg>
