<svg width="24" height="24" viewBox="0 0 24 24" fill="none" xmlns="http://www.w3.org/2000/svg">
<g id="ic_24_link">
<path id="Vector" d="M10.0037 17.553L8.23374 19.273C7.76961 19.7372 7.14012 19.9979 6.48374 19.9979C5.82737 19.9979 5.19787 19.7372 4.73374 19.273C4.26961 18.8089 4.00887 18.1794 4.00887 17.523C4.00887 16.8666 4.26961 16.2372 4.73374 15.773L9.27374 11.223C9.71936 10.776 10.3198 10.5173 10.9508 10.5006C11.5817 10.4838 12.195 10.7102 12.6637 11.133L12.7837 11.233C12.9734 11.4187 13.229 11.5214 13.4943 11.5186C13.7597 11.5158 14.0131 11.4077 14.1987 11.218C14.3844 11.0284 14.4871 10.7728 14.4843 10.5074C14.4815 10.2421 14.3734 9.98868 14.1837 9.80302C14.1273 9.73005 14.0672 9.65996 14.0037 9.59302C13.1501 8.85034 12.0461 8.45987 10.9153 8.50072C9.78455 8.54157 8.71158 9.01068 7.91374 9.81302L3.31374 14.363C2.5321 15.2138 2.10936 16.3337 2.13382 17.4888C2.15827 18.6439 2.62802 19.7448 3.44498 20.5618C4.26193 21.3787 5.36291 21.8485 6.51799 21.8729C7.67307 21.8974 8.79295 21.4747 9.64374 20.693L11.3737 19.003C11.5446 18.8167 11.6385 18.5725 11.6366 18.3198C11.6346 18.067 11.5371 17.8243 11.3635 17.6405C11.1898 17.4568 10.9531 17.3456 10.7008 17.3294C10.4485 17.3131 10.1995 17.393 10.0037 17.553V17.553ZM20.6937 3.31302C19.8525 2.47703 18.7147 2.00781 17.5287 2.00781C16.3428 2.00781 15.205 2.47703 14.3637 3.31302L12.6337 5.00302C12.4629 5.18937 12.369 5.4335 12.3709 5.68629C12.3728 5.93908 12.4704 6.18176 12.644 6.36551C12.8176 6.54926 13.0544 6.66044 13.3067 6.67667C13.5589 6.69291 13.808 6.613 14.0037 6.45302L15.7337 4.73302C16.1979 4.2689 16.8274 4.00815 17.4837 4.00815C18.1401 4.00815 18.7696 4.2689 19.2337 4.73302C19.6979 5.19715 19.9586 5.82665 19.9586 6.48302C19.9586 7.1394 19.6979 7.76889 19.2337 8.23302L14.6937 12.783C14.2481 13.2301 13.6477 13.4887 13.0167 13.5055C12.3857 13.5222 11.7724 13.2958 11.3037 12.873L11.1837 12.773C10.9941 12.5874 10.7385 12.4847 10.4731 12.4875C10.2078 12.4903 9.95439 12.5984 9.76874 12.788C9.58309 12.9777 9.48037 13.2333 9.48319 13.4986C9.486 13.764 9.59411 14.0174 9.78374 14.203C9.85638 14.2773 9.93317 14.3474 10.0137 14.413C10.8684 15.1535 11.972 15.5425 13.102 15.5016C14.2321 15.4608 15.3047 14.9932 16.1037 14.193L20.6537 9.64302C21.4951 8.8071 21.9715 7.67225 21.979 6.48627C21.9865 5.30029 21.5244 4.15952 20.6937 3.31302V3.31302Z" fill="#1C1C1C"/>
</g>
</svg>
