<svg width="24" height="24" viewBox="0 0 24 24" fill="none" xmlns="http://www.w3.org/2000/svg">
<g id="ic_24_filter_search">
<path id="filter_alt" d="M10.9972 20C10.7138 20 10.4763 19.9042 10.2847 19.7125C10.093 19.5208 9.99715 19.2833 9.99715 19V13L4.19715 5.6C3.94715 5.26667 3.90965 4.91667 4.08465 4.55C4.25965 4.18333 4.56382 4 4.99715 4H18.9972C19.4305 4 19.7347 4.18333 19.9097 4.55C20.0847 4.91667 20.0472 5.26667 19.7972 5.6L13.9972 13V19C13.9972 19.2833 13.9013 19.5208 13.7097 19.7125C13.518 19.9042 13.2805 20 12.9972 20H10.9972ZM11.9972 12.3L16.9472 6H7.04715L11.9972 12.3Z" fill="#BDBDBD"/>
</g>
</svg>
