<svg width="24" height="24" viewBox="0 0 24 24" fill="none" xmlns="http://www.w3.org/2000/svg">
<g id="ic_24_approval_c">
<path id="flowsheet" d="M13.5 19.5C13.7833 19.5 14.021 19.404 14.213 19.212C14.4043 19.0207 14.5 18.7833 14.5 18.5C14.5 18.2167 14.4043 17.9793 14.213 17.788C14.021 17.596 13.7833 17.5 13.5 17.5C13.2167 17.5 12.9793 17.596 12.788 17.788C12.596 17.9793 12.5 18.2167 12.5 18.5C12.5 18.7833 12.596 19.0207 12.788 19.212C12.9793 19.404 13.2167 19.5 13.5 19.5ZM19.5 9.5C19.7833 9.5 20.0207 9.404 20.212 9.212C20.404 9.02067 20.5 8.78333 20.5 8.5C20.5 8.21667 20.404 7.979 20.212 7.787C20.0207 7.59567 19.7833 7.5 19.5 7.5C19.2167 7.5 18.9793 7.59567 18.788 7.787C18.596 7.979 18.5 8.21667 18.5 8.5C18.5 8.78333 18.596 9.02067 18.788 9.212C18.9793 9.404 19.2167 9.5 19.5 9.5ZM5.5 9.5H10.5V7.5H5.5V9.5ZM5.5 13.5H10.5V11.5H5.5V13.5ZM3.5 18.5C2.95 18.5 2.47933 18.3043 2.088 17.913C1.696 17.521 1.5 17.05 1.5 16.5V4.5C1.5 3.95 1.696 3.47933 2.088 3.088C2.47933 2.696 2.95 2.5 3.5 2.5H19.5C20.05 2.5 20.521 2.696 20.913 3.088C21.3043 3.47933 21.5 3.95 21.5 4.5H3.5V16.5H8.5V18.5H3.5ZM13.5 21.5C12.6667 21.5 11.9583 21.2083 11.375 20.625C10.7917 20.0417 10.5 19.3333 10.5 18.5C10.5 17.85 10.6873 17.2667 11.062 16.75C11.4373 16.2333 11.9167 15.875 12.5 15.675V12.5H18.5V11.325C17.9167 11.125 17.4373 10.7667 17.062 10.25C16.6873 9.73333 16.5 9.15 16.5 8.5C16.5 7.66667 16.7917 6.95833 17.375 6.375C17.9583 5.79167 18.6667 5.5 19.5 5.5C20.3333 5.5 21.0417 5.79167 21.625 6.375C22.2083 6.95833 22.5 7.66667 22.5 8.5C22.5 9.15 22.3127 9.73333 21.938 10.25C21.5627 10.7667 21.0833 11.125 20.5 11.325V14.5H14.5V15.675C15.0833 15.875 15.5627 16.2333 15.938 16.75C16.3127 17.2667 16.5 17.85 16.5 18.5C16.5 19.3333 16.2083 20.0417 15.625 20.625C15.0417 21.2083 14.3333 21.5 13.5 21.5Z" fill="#099A96"/>
</g>
</svg>
