<svg width="24" height="24" viewBox="0 0 24 24" fill="none" xmlns="http://www.w3.org/2000/svg">
<g id="ic_24_send_s">
<path id="auto_awesome_motion" d="M12 2C11.45 2 10.9792 2.19583 10.5875 2.5875C10.1958 2.97917 10 3.45 10 4V12C10 12.55 10.1958 13.0208 10.5875 13.4125C10.9792 13.8042 11.45 14 12 14H20C20.55 14 21.0208 13.8042 21.4125 13.4125C21.8042 13.0208 22 12.55 22 12V4C22 3.45 21.8042 2.97917 21.4125 2.5875C21.0208 2.19583 20.55 2 20 2H12ZM12 4H20V12H12V4ZM6 6V16C6 16.55 6.19583 17.0208 6.5875 17.4125C6.97917 17.8042 7.45 18 8 18H18V16H8V6H6ZM2 10V20C2 20.55 2.19583 21.0208 2.5875 21.4125C2.97917 21.8042 3.45 22 4 22H14V20H4V10H2Z" fill="#099A96"/>
</g>
</svg>
