<svg width="24" height="24" viewBox="0 0 24 24" fill="none" xmlns="http://www.w3.org/2000/svg">
<g id="ic_24_number">
<g id="User Interface / Plus Square">
<path id="Vector" d="M21 2H3C2.73478 2 2.48043 2.10536 2.29289 2.29289C2.10536 2.48043 2 2.73478 2 3V21C2 21.2652 2.10536 21.5196 2.29289 21.7071C2.48043 21.8946 2.73478 22 3 22H21C21.2652 22 21.5196 21.8946 21.7071 21.7071C21.8946 21.5196 22 21.2652 22 21V3C22 2.73478 21.8946 2.48043 21.7071 2.29289C21.5196 2.10536 21.2652 2 21 2ZM20 20H4V4H20V20Z" fill="#ADB5BD"/>
<path id="Vector_2" d="M14.1674 10.4714C14.0602 10.3464 14 10.1768 14 10C14 9.46957 14.1806 8.96086 14.5021 8.58579C14.8236 8.21071 15.2596 8 15.7143 8H16.2857C16.7404 8 17.1764 8.21071 17.4979 8.58579C17.8194 8.96086 18 9.46957 18 10V10.6667C17.9975 11.16 17.8387 11.6349 17.5543 12C17.8387 12.3651 17.9975 12.84 18 13.3333V14C18 14.5304 17.8194 15.0391 17.4979 15.4142C17.1764 15.7893 16.7404 16 16.2857 16H15.7143C15.2596 16 14.8236 15.7893 14.5021 15.4142C14.1806 15.0391 14 14.5304 14 14C14 13.8232 14.0602 13.6536 14.1674 13.5286C14.2745 13.4036 14.4199 13.3333 14.5714 13.3333C14.723 13.3333 14.8683 13.4036 14.9755 13.5286C15.0827 13.6536 15.1429 13.8232 15.1429 14C15.1429 14.1768 15.2031 14.3464 15.3102 14.4714C15.4174 14.5964 15.5627 14.6667 15.7143 14.6667H16.2857C16.4373 14.6667 16.5826 14.5964 16.6898 14.4714C16.7969 14.3464 16.8571 14.1768 16.8571 14V13.3333C16.8571 13.1565 16.7969 12.987 16.6898 12.8619C16.5826 12.7369 16.4373 12.6667 16.2857 12.6667H16C15.8484 12.6667 15.7031 12.5964 15.5959 12.4714C15.4888 12.3464 15.4286 12.1768 15.4286 12C15.4286 11.8232 15.4888 11.6536 15.5959 11.5286C15.7031 11.4036 15.8484 11.3333 16 11.3333H16.2857C16.4373 11.3333 16.5826 11.2631 16.6898 11.1381C16.7969 11.013 16.8571 10.8435 16.8571 10.6667V10C16.8571 9.82319 16.7969 9.65362 16.6898 9.5286C16.5826 9.40357 16.4373 9.33333 16.2857 9.33333H15.7143C15.5627 9.33333 15.4174 9.40357 15.3102 9.5286C15.2031 9.65362 15.1429 9.82319 15.1429 10C15.1429 10.1768 15.0827 10.3464 14.9755 10.4714C14.8683 10.5964 14.723 10.6667 14.5714 10.6667C14.4199 10.6667 14.2745 10.5964 14.1674 10.4714Z" fill="#ADB5BD"/>
<g id="Vector_3">
<path d="M8.73184 10.4714C8.6125 10.3464 8.54545 10.1768 8.54545 10C8.54545 9.46957 8.74659 8.96086 9.10461 8.58579C9.46264 8.21071 9.94822 8 10.4545 8H11.0909C11.5972 8 12.0828 8.21071 12.4408 8.58579C12.7989 8.96086 13 9.46957 13 10V10.6667C13 11.1971 12.7989 11.7058 12.4408 12.0809C12.0828 12.456 11.5972 12.6667 11.0909 12.6667H10.4545C10.2858 12.6667 10.1239 12.7369 10.0046 12.8619C9.88523 12.987 9.81818 13.1565 9.81818 13.3333V14.6667H12.3636C12.5324 14.6667 12.6943 14.7369 12.8136 14.8619C12.933 14.987 13 15.1565 13 15.3333C13 15.5101 12.933 15.6797 12.8136 15.8047C12.6943 15.9298 12.5324 16 12.3636 16H9.18182C9.01304 16 8.85118 15.9298 8.73184 15.8047C8.6125 15.6797 8.54545 15.5101 8.54545 15.3333V13.3333C8.54545 12.8029 8.74659 12.2942 9.10461 11.9191C9.46264 11.544 9.94822 11.3333 10.4545 11.3333H11.0909C11.2597 11.3333 11.4215 11.2631 11.5409 11.1381C11.6602 11.013 11.7273 10.8435 11.7273 10.6667V10C11.7273 9.82319 11.6602 9.65362 11.5409 9.5286C11.4215 9.40357 11.2597 9.33333 11.0909 9.33333H10.4545C10.2858 9.33333 10.1239 9.40357 10.0046 9.5286C9.88523 9.65362 9.81818 9.82319 9.81818 10C9.81818 10.1768 9.75114 10.3464 9.63179 10.4714C9.51245 10.5964 9.35059 10.6667 9.18182 10.6667C9.01304 10.6667 8.85118 10.5964 8.73184 10.4714Z" fill="#ADB5BD"/>
<path d="M6 15.3333V8.66667C6 8.48986 6.06705 8.32029 6.18639 8.19526C6.30573 8.07024 6.46759 8 6.63636 8C6.80514 8 6.967 8.07024 7.08634 8.19526C7.20568 8.32029 7.27273 8.48986 7.27273 8.66667V15.3333C7.27273 15.5101 7.20568 15.6797 7.08634 15.8047C6.967 15.9298 6.80514 16 6.63636 16C6.46759 16 6.30573 15.9298 6.18639 15.8047C6.06705 15.6797 6 15.5101 6 15.3333Z" fill="#ADB5BD"/>
</g>
</g>
</g>
</svg>
