<svg width="24" height="24" viewBox="0 0 24 24" fill="none" xmlns="http://www.w3.org/2000/svg">
<g id="ic_24_noimg">
<path id="Vector" d="M21.7063 20.2863L20.7763 19.3563L20.6863 19.2563L20.6263 19.1863L20.1263 18.6863L19.9963 18.6163L14.8163 13.4163L14.7263 13.3363L11.5263 10.1263L11.4263 9.99628L3.70628 2.28628C3.61304 2.19304 3.50235 2.11908 3.38053 2.06862C3.25871 2.01816 3.12814 1.99219 2.99628 1.99219C2.86442 1.99219 2.73385 2.01816 2.61203 2.06862C2.49021 2.11908 2.37952 2.19304 2.28628 2.28628C2.09798 2.47458 1.99219 2.72998 1.99219 2.99628C1.99219 3.26258 2.09798 3.51798 2.28628 3.70628L3.28628 4.70628C3.09488 5.10936 2.99581 5.55006 2.99628 5.99628V17.9963C2.99628 18.7919 3.31235 19.555 3.87496 20.1176C4.43757 20.6802 5.20063 20.9963 5.99628 20.9963H17.9963C18.4377 20.991 18.8721 20.8849 19.2663 20.6863C19.2663 20.6863 19.2663 20.6863 19.3163 20.6863L20.2663 21.6863C20.3592 21.78 20.4698 21.8544 20.5917 21.9052C20.7136 21.9559 20.8443 21.9821 20.9763 21.9821C21.1083 21.9821 21.239 21.9559 21.3609 21.9052C21.4827 21.8544 21.5933 21.78 21.6863 21.6863C21.8722 21.502 21.9784 21.2521 21.9822 20.9904C21.9859 20.7286 21.8869 20.4758 21.7063 20.2863ZM4.99628 6.40628L8.23628 9.64628C7.99079 9.77285 7.76508 9.93455 7.56628 10.1263L4.99628 12.7063V6.40628ZM5.99628 18.9963C5.73106 18.9963 5.47671 18.8909 5.28917 18.7034C5.10164 18.5158 4.99628 18.2615 4.99628 17.9963V15.5363L8.99628 11.5363C9.14597 11.3978 9.34237 11.3209 9.54628 11.3209C9.75018 11.3209 9.94659 11.3978 10.0963 11.5363L17.5863 18.9963H5.99628ZM9.65628 4.99628H17.9963C18.2615 4.99628 18.5158 5.10164 18.7034 5.28917C18.8909 5.47671 18.9963 5.73106 18.9963 5.99628V11.9363C18.903 11.843 18.7924 11.7691 18.6705 11.7186C18.5487 11.6682 18.4181 11.6422 18.2863 11.6422C18.1544 11.6422 18.0239 11.6682 17.902 11.7186C17.7802 11.7691 17.6695 11.843 17.5763 11.9363C17.483 12.0295 17.4091 12.1402 17.3586 12.262C17.3082 12.3839 17.2822 12.5144 17.2822 12.6463C17.2822 12.7781 17.3082 12.9087 17.3586 13.0305C17.4091 13.1524 17.483 13.263 17.5763 13.3563L19.3163 15.0963C19.4092 15.19 19.5198 15.2644 19.6417 15.3152C19.7636 15.3659 19.8943 15.3921 20.0263 15.3921C20.1583 15.3921 20.289 15.3659 20.4109 15.3152C20.5327 15.2644 20.6433 15.19 20.7363 15.0963C20.8302 15.0017 20.9042 14.8892 20.954 14.7656C21.0038 14.6419 21.0284 14.5096 21.0263 14.3763V5.99628C21.0263 5.20063 20.7102 4.43757 20.1476 3.87496C19.585 3.31235 18.8219 2.99628 18.0263 2.99628H9.65628C9.39106 2.99628 9.13671 3.10164 8.94917 3.28917C8.76164 3.47671 8.65628 3.73106 8.65628 3.99628C8.65628 4.2615 8.76164 4.51585 8.94917 4.70339C9.13671 4.89092 9.39106 4.99628 9.65628 4.99628Z" fill="#E6E6E6"/>
</g>
</svg>
