<svg width="20" height="20" viewBox="0 0 20 20" fill="none" xmlns="http://www.w3.org/2000/svg">
<g id="ic_20_up">
<path id="Vector" d="M8.9458 5.62921L1.2958 13.2892C1.20207 13.3822 1.12768 13.4928 1.07691 13.6146C1.02614 13.7365 1 13.8672 1 13.9992C1 14.1312 1.02614 14.2619 1.07691 14.3838C1.12768 14.5056 1.20207 14.6162 1.2958 14.7092C1.48316 14.8955 1.73661 15 2.0008 15C2.26498 15 2.51844 14.8955 2.7058 14.7092L9.7058 7.75921L16.6558 14.7092C16.8432 14.8955 17.0966 15 17.3608 15C17.625 15 17.8784 14.8955 18.0658 14.7092C18.1603 14.6166 18.2355 14.5061 18.287 14.3843C18.3384 14.2624 18.3652 14.1315 18.3658 13.9992C18.3652 13.8669 18.3384 13.736 18.287 13.6141C18.2355 13.4923 18.1603 13.3818 18.0658 13.2892L10.4158 5.62921C10.3222 5.5277 10.2085 5.44669 10.082 5.39129C9.9555 5.33588 9.8189 5.30727 9.6808 5.30727C9.5427 5.30727 9.40609 5.33588 9.27959 5.39129C9.15309 5.44669 9.03944 5.5277 8.9458 5.62921Z" fill="#16191C"/>
</g>
</svg>
