<svg width="24" height="24" viewBox="0 0 24 24" fill="none" xmlns="http://www.w3.org/2000/svg">
<g id="ic_24_forum">
<path id="forum" d="M3.66406 16.1641V4.49706C3.66406 4.26106 3.7474 4.06306 3.91406 3.90306C4.08073 3.74373 4.28206 3.66406 4.51806 3.66406H15.3301C15.5527 3.66406 15.7474 3.74373 15.9141 3.90306C16.0807 4.06306 16.1641 4.26106 16.1641 4.49706V11.9971C16.1641 12.2191 16.0807 12.4134 15.9141 12.5801C15.7474 12.7467 15.5527 12.8301 15.3301 12.8301H7.05906L3.66406 16.1641ZM7.89306 16.9971C7.6704 16.9971 7.47573 16.9137 7.30906 16.7471C7.1424 16.5804 7.05906 16.3861 7.05906 16.1641V14.5801H17.9141V7.01806H19.4761C19.7121 7.01806 19.9134 7.1014 20.0801 7.26806C20.2467 7.43473 20.3301 7.63606 20.3301 7.87206V20.3301L16.9971 16.9971H7.89306ZM14.4141 5.41406H5.41406V11.9971L6.35106 11.0801H14.4141V5.41406Z" fill="white"/>
</g>
</svg>
