<svg width="24" height="24" viewBox="0 0 24 24" fill="none" xmlns="http://www.w3.org/2000/svg">
<g id="ic_24_open_add">
<g id="container">
<rect x="1.5" y="1.5" width="21" height="21" rx="10.5" fill="#F7F7F7"/>
<path id="plus (Stroke)" fill-rule="evenodd" clip-rule="evenodd" d="M12 7C12.5523 7 13 7.44772 13 8V11H16C16.5523 11 17 11.4477 17 12C17 12.5523 16.5523 13 16 13H13V16C13 16.5523 12.5523 17 12 17C11.4477 17 11 16.5523 11 16V13H8C7.44772 13 7 12.5523 7 12C7 11.4477 7.44772 11 8 11H11V8C11 7.44772 11.4477 7 12 7Z" fill="#099A96"/>
<rect x="1.5" y="1.5" width="21" height="21" rx="10.5" stroke="#BDBDBD" stroke-dasharray="2 2"/>
</g>
</g>
</svg>
