<svg width="20" height="20" viewBox="0 0 20 20" fill="none" xmlns="http://www.w3.org/2000/svg">
<g id="ic_20_show">
<path id="Vector" d="M19.9165 9.6C17.8972 4.91 14.0986 2 10 2C5.90143 2 2.10275 4.91 0.0834557 9.6C0.0284116 9.72617 0 9.86234 0 10C0 10.1377 0.0284116 10.2738 0.0834557 10.4C2.10275 15.09 5.90143 18 10 18C14.0986 18 17.8972 15.09 19.9165 10.4C19.9716 10.2738 20 10.1377 20 10C20 9.86234 19.9716 9.72617 19.9165 9.6ZM10 16C6.82111 16 3.83215 13.71 2.10275 10C3.83215 6.29 6.82111 4 10 4C13.1789 4 16.1679 6.29 17.8972 10C16.1679 13.71 13.1789 16 10 16ZM10 6C9.20915 6 8.43606 6.2346 7.77849 6.67412C7.12093 7.11365 6.60841 7.73836 6.30577 8.46927C6.00312 9.20017 5.92394 10.0044 6.07823 10.7804C6.23251 11.5563 6.61334 12.269 7.17256 12.8284C7.73177 13.3878 8.44426 13.7688 9.21991 13.9231C9.99556 14.0775 10.7996 13.9983 11.5302 13.6955C12.2609 13.3928 12.8853 12.8801 13.3247 12.2223C13.7641 11.5645 13.9986 10.7911 13.9986 10C13.9986 8.93913 13.5773 7.92172 12.8274 7.17157C12.0776 6.42143 11.0605 6 10 6ZM10 12C9.60458 12 9.21803 11.8827 8.88925 11.6629C8.56046 11.4432 8.30421 11.1308 8.15288 10.7654C8.00156 10.3999 7.96197 9.99778 8.03911 9.60982C8.11626 9.22186 8.30667 8.86549 8.58628 8.58579C8.86589 8.30608 9.22213 8.1156 9.60996 8.03843C9.99778 7.96126 10.3998 8.00087 10.7651 8.15224C11.1304 8.30362 11.4427 8.55996 11.6624 8.88886C11.882 9.21776 11.9993 9.60444 11.9993 10C11.9993 10.5304 11.7887 11.0391 11.4137 11.4142C11.0388 11.7893 10.5302 12 10 12Z" fill="#ADB5BD"/>
</g>
</svg>
