<svg width="24" height="24" viewBox="0 0 24 24" fill="none" xmlns="http://www.w3.org/2000/svg">
<g id="ic_24_contracting_out_n">
<path id="newspaper" d="M20 3C20.55 3 21.0208 3.19583 21.4125 3.5875C21.8042 3.97917 22 4.45 22 5V21L20.325 19.325L18.675 21L17 19.325L15.325 21L13.675 19.325L12 21L10.325 19.325L8.675 21L7 19.325L5.325 21L3.675 19.325L2 21V5C2 4.45 2.19583 3.97917 2.5875 3.5875C2.97917 3.19583 3.45 3 4 3H20ZM20 5H13V11H20V5ZM11 5H4V7H11V5ZM11 9H4V11H11V9ZM20 13H4V16H20V13Z" fill="#4B4B4B"/>
</g>
</svg>
