<svg width="24" height="24" viewBox="0 0 24 24" fill="none" xmlns="http://www.w3.org/2000/svg">
<g id="ic_24_source">
<path id="Vector" d="M9.70799 6.28799C9.61502 6.19426 9.50442 6.11986 9.38256 6.06909C9.2607 6.01833 9.13 5.99219 8.99799 5.99219C8.86597 5.99219 8.73527 6.01833 8.61341 6.06909C8.49155 6.11986 8.38095 6.19426 8.28799 6.28799L3.28799 11.288C3.19426 11.3809 3.11986 11.4915 3.06909 11.6134C3.01833 11.7353 2.99219 11.866 2.99219 11.998C2.99219 12.13 3.01833 12.2607 3.06909 12.3826C3.11986 12.5044 3.19426 12.615 3.28799 12.708L8.28799 17.708C8.38095 17.8017 8.49155 17.8761 8.61341 17.9269C8.73527 17.9776 8.86597 18.0038 8.99799 18.0038C9.13 18.0038 9.2607 17.9776 9.38256 17.9269C9.50442 17.8761 9.61502 17.8017 9.70799 17.708C9.80171 17.615 9.87611 17.5044 9.92688 17.3826C9.97765 17.2607 10.0038 17.13 10.0038 16.998C10.0038 16.866 9.97765 16.7353 9.92688 16.6134C9.87611 16.4915 9.80171 16.3809 9.70799 16.288L5.40799 11.998L9.70799 7.70799C9.80171 7.61502 9.87611 7.50442 9.92688 7.38256C9.97765 7.2607 10.0038 7.13 10.0038 6.99799C10.0038 6.86597 9.97765 6.73527 9.92688 6.61341C9.87611 6.49155 9.80171 6.38095 9.70799 6.28799ZM20.708 11.288L15.708 6.28799C15.6147 6.19475 15.5041 6.12079 15.3822 6.07033C15.2604 6.01987 15.1298 5.99389 14.998 5.99389C14.7317 5.99389 14.4763 6.09968 14.288 6.28799C14.1947 6.38122 14.1208 6.49191 14.0703 6.61374C14.0199 6.73556 13.9939 6.86613 13.9939 6.99799C13.9939 7.26429 14.0997 7.51968 14.288 7.70799L18.588 11.998L14.288 16.288C14.1943 16.3809 14.1199 16.4915 14.0691 16.6134C14.0183 16.7353 13.9922 16.866 13.9922 16.998C13.9922 17.13 14.0183 17.2607 14.0691 17.3826C14.1199 17.5044 14.1943 17.615 14.288 17.708C14.3809 17.8017 14.4915 17.8761 14.6134 17.9269C14.7353 17.9776 14.866 18.0038 14.998 18.0038C15.13 18.0038 15.2607 17.9776 15.3826 17.9269C15.5044 17.8761 15.615 17.8017 15.708 17.708L20.708 12.708C20.8017 12.615 20.8761 12.5044 20.9269 12.3826C20.9776 12.2607 21.0038 12.13 21.0038 11.998C21.0038 11.866 20.9776 11.7353 20.9269 11.6134C20.8761 11.4915 20.8017 11.3809 20.708 11.288Z" fill="#1C1C1C"/>
</g>
</svg>
