<svg width="24" height="24" viewBox="0 0 24 24" fill="none" xmlns="http://www.w3.org/2000/svg">
<g id="ic_24_checkbox_c">
<g id="Vector">
<path d="M2 6C2 3.79086 3.79086 2 6 2H18C20.2091 2 22 3.79086 22 6V18C22 20.2091 20.2091 22 18 22H6C3.79086 22 2 20.2091 2 18V6Z" fill="white"/>
<path fill-rule="evenodd" clip-rule="evenodd" d="M18 4H6C4.89543 4 4 4.89543 4 6V18C4 19.1046 4.89543 20 6 20H18C19.1046 20 20 19.1046 20 18V6C20 4.89543 19.1046 4 18 4ZM6 2C3.79086 2 2 3.79086 2 6V18C2 20.2091 3.79086 22 6 22H18C20.2091 22 22 20.2091 22 18V6C22 3.79086 20.2091 2 18 2H6Z" fill="#099A96"/>
</g>
<path id="Vector_2" d="M10.0148 15.1019C10.1181 15.2061 10.241 15.2887 10.3764 15.3452C10.5118 15.4016 10.657 15.4306 10.8037 15.4306C10.9504 15.4306 11.0956 15.4016 11.231 15.3452C11.3664 15.2887 11.4893 15.2061 11.5926 15.1019L16.1259 10.5686C16.3351 10.3594 16.4527 10.0756 16.4527 9.77972C16.4527 9.48383 16.3351 9.20006 16.1259 8.99083C15.9167 8.7816 15.6329 8.66406 15.337 8.66406C15.0411 8.66406 14.7573 8.7816 14.5481 8.99083L10.8037 12.7464L9.45923 11.3908C9.25001 11.1816 8.96624 11.0641 8.67035 11.0641C8.37445 11.0641 8.09068 11.1816 7.88146 11.3908C7.67223 11.6001 7.55469 11.8838 7.55469 12.1797C7.55469 12.4756 7.67223 12.7594 7.88146 12.9686L10.0148 15.1019Z" fill="#099A96"/>
</g>
</svg>
