<svg width="24" height="24" viewBox="0 0 24 24" fill="none" xmlns="http://www.w3.org/2000/svg">
<g id="ic_24_cost_n">
<path id="account_balance_wallet" d="M15.5 13.5C15.9333 13.5 16.2917 13.3583 16.575 13.075C16.8583 12.7917 17 12.4333 17 12C17 11.5667 16.8583 11.2083 16.575 10.925C16.2917 10.6417 15.9333 10.5 15.5 10.5C15.0667 10.5 14.7083 10.6417 14.425 10.925C14.1417 11.2083 14 11.5667 14 12C14 12.4333 14.1417 12.7917 14.425 13.075C14.7083 13.3583 15.0667 13.5 15.5 13.5ZM4.5 21C3.95 21 3.47917 20.8042 3.0875 20.4125C2.69583 20.0208 2.5 19.55 2.5 19V5C2.5 4.45 2.69583 3.97917 3.0875 3.5875C3.47917 3.19583 3.95 3 4.5 3H18.5C19.05 3 19.5208 3.19583 19.9125 3.5875C20.3042 3.97917 20.5 4.45 20.5 5V7.5H18.5V5H4.5V19H18.5V16.5H20.5V19C20.5 19.55 20.3042 20.0208 19.9125 20.4125C19.5208 20.8042 19.05 21 18.5 21H4.5ZM12.5 17C11.95 17 11.4792 16.8042 11.0875 16.4125C10.6958 16.0208 10.5 15.55 10.5 15V9C10.5 8.45 10.6958 7.97917 11.0875 7.5875C11.4792 7.19583 11.95 7 12.5 7H19.5C20.05 7 20.5208 7.19583 20.9125 7.5875C21.3042 7.97917 21.5 8.45 21.5 9V15C21.5 15.55 21.3042 16.0208 20.9125 16.4125C20.5208 16.8042 20.05 17 19.5 17H12.5ZM19.5 15V9H12.5V15H19.5Z" fill="#4B4B4B"/>
</g>
</svg>
