<svg width="24" height="24" viewBox="0 0 24 24" fill="none" xmlns="http://www.w3.org/2000/svg">
<g id="ic_24_handwriting_g">
<g id="Vector">
<path fill-rule="evenodd" clip-rule="evenodd" d="M19.5538 12.5003V13.2503C19.5538 13.7144 19.3694 14.1595 19.0412 14.4877C18.713 14.8159 18.2679 15.0003 17.8038 15.0003C17.3396 15.0003 16.8945 14.8159 16.5663 14.4877C16.2381 14.1595 16.0538 13.7144 16.0538 13.2503V9.00027C16.0538 8.73506 15.9484 8.4807 15.7609 8.29317C15.5733 8.10563 15.319 8.00027 15.0538 8.00027C14.8212 7.9951 14.5941 8.07115 14.4116 8.21534C14.2291 8.35953 14.1025 8.56284 14.0538 8.79027C13.3187 8.28185 12.4475 8.00657 11.5538 8.00027C10.8009 7.99127 10.0579 8.1713 9.39263 8.52387C8.72739 8.87644 8.16125 9.39028 7.74606 10.0183C7.33087 10.6464 7.07989 11.3686 7.01611 12.1188C6.95234 12.869 7.0778 13.6231 7.38102 14.3123C7.68424 15.0014 8.15551 15.6034 8.75168 16.0632C9.34785 16.5231 10.0499 16.8259 10.7934 16.9441C11.537 17.0623 12.2983 16.9921 13.0077 16.7399C13.717 16.4876 14.3518 16.0614 14.8538 15.5003C15.3289 16.1156 15.984 16.5675 16.7279 16.7933C17.4718 17.019 18.2676 17.0074 19.0046 16.7599C19.7415 16.5124 20.383 16.0414 20.8399 15.4124C21.2968 14.7834 21.5463 14.0276 21.5538 13.2503V12.5003C21.5537 12.1669 21.3537 11.5002 20.5536 11.5002C19.7536 11.5002 19.5537 12.1669 19.5538 12.5003ZM10.1648 14.5789C10.576 14.8536 11.0593 15.0003 11.5538 15.0003C12.2168 15.0003 12.8527 14.7369 13.3215 14.268C13.7904 13.7992 14.0538 13.1633 14.0538 12.5003C14.0538 12.0058 13.9071 11.5225 13.6324 11.1113C13.3577 10.7002 12.9673 10.3798 12.5105 10.1906C12.0536 10.0014 11.551 9.95185 11.066 10.0483C10.5811 10.1448 10.1356 10.3829 9.78599 10.7325C9.43635 11.0821 9.19825 11.5276 9.10179 12.0125C9.00533 12.4975 9.05484 13.0002 9.24405 13.457C9.43327 13.9138 9.7537 14.3042 10.1648 14.5789Z" fill="#BDBDBD"/>
<path d="M21 2H3C2.73478 2 2.48043 2.10536 2.29289 2.29289C2.10536 2.48043 2 2.73478 2 3V21C2 21.2652 2.10536 21.5196 2.29289 21.7071C2.48043 21.8946 2.73478 22 3 22H21C21.2652 22 21.5196 21.8946 21.7071 21.7071C21.8946 21.5196 22 21.2652 22 21V3C22 2.73478 21.8946 2.48043 21.7071 2.29289C21.5196 2.10536 21.2652 2 21 2ZM20 20H4V4H20V20Z" fill="#BDBDBD"/>
</g>
</g>
</svg>
