<svg width="24" height="24" viewBox="0 0 24 24" fill="none" xmlns="http://www.w3.org/2000/svg">
<g id="ic_24_formremoval">
<path id="Vector" d="M12.4374 10.0446L11.6466 9.2538L11.8556 8.65387H11.9465L12.4374 10.0446ZM10.4104 8.01758L10.5922 7.54491C10.8012 6.99952 11.3193 6.63593 11.9102 6.63593C12.501 6.63593 13.0191 6.99952 13.2282 7.54491L15.2007 12.8079L21 18.6072V4.81796C21 3.81808 20.1819 3 19.182 3H5.39278L10.4104 8.01758ZM20.2637 21.7341C19.9092 22.0886 19.3366 22.0886 18.9821 21.7341L18.4276 21.1796H4.63832C3.63844 21.1796 2.82036 20.3616 2.82036 19.3617V5.57242L2.26588 5.01794C1.91137 4.66344 1.91137 4.09078 2.26588 3.73628C2.62038 3.38177 3.19304 3.38177 3.54754 3.73628L20.2546 20.4434C20.6182 20.7979 20.6182 21.3796 20.2637 21.7341ZM12.0011 14.7531L9.00144 11.7535L7.27437 16.362C7.0653 16.9347 7.48344 17.5437 8.09245 17.5437H8.10154C8.47423 17.5437 8.80146 17.3074 8.91963 16.962L9.70135 14.7531H12.0011Z" fill="#1C1C1C"/>
</g>
</svg>
