<svg width="24" height="24" viewBox="0 0 24 24" fill="none" xmlns="http://www.w3.org/2000/svg">
<g id="ic_24_next">
<path id="Union" fill-rule="evenodd" clip-rule="evenodd" d="M12.0972 3.26515C12.1806 3.18113 12.2797 3.11445 12.3889 3.06894C12.4982 3.02343 12.6153 3 12.7337 3C12.852 3 12.9692 3.02343 13.0784 3.06894C13.1876 3.11445 13.2868 3.18113 13.3701 3.26515L17.852 7.74708C17.9361 7.83041 18.0027 7.92955 18.0483 8.03879C18.0938 8.14802 18.1172 8.26518 18.1172 8.38352C18.1172 8.50185 18.0938 8.61901 18.0483 8.72825C18.0027 8.83748 17.9361 8.93662 17.852 9.01995L13.3701 13.5019C13.2868 13.5859 13.1876 13.6526 13.0784 13.6981C12.9692 13.7436 12.852 13.767 12.7337 13.767C12.6153 13.767 12.4982 13.7436 12.3889 13.6981C12.2797 13.6526 12.1806 13.5859 12.0972 13.5019C12.0132 13.4186 11.9465 13.3194 11.901 13.2102C11.8555 13.1009 11.8321 12.9838 11.8321 12.8654C11.8321 12.7471 11.8555 12.63 11.901 12.5207C11.9465 12.4115 12.0132 12.3123 12.0972 12.229L14.7858 9.54668H9.1537C6.6784 9.54668 4.67177 11.5533 4.67177 14.0286C4.67177 16.5039 6.6784 18.5105 9.1537 18.5105H17.2209V18.5118C17.7159 18.5119 18.1172 18.9132 18.1172 19.4082C18.1172 19.9033 17.7159 20.3046 17.2208 20.3046C17.2047 20.3046 17.1886 20.3042 17.1727 20.3033H9.1537C5.68828 20.3033 2.879 17.494 2.879 14.0286C2.879 10.5632 5.68828 7.75391 9.1537 7.75391H15.3206L12.0972 4.53802C12.0132 4.45469 11.9465 4.35555 11.901 4.24631C11.8555 4.13708 11.8321 4.01992 11.8321 3.90158C11.8321 3.78325 11.8555 3.66609 11.901 3.55685C11.9465 3.44762 12.0132 3.34848 12.0972 3.26515Z" fill="#1C1C1C"/>
</g>
</svg>
