<svg width="24" height="24" viewBox="0 0 24 24" fill="none" xmlns="http://www.w3.org/2000/svg">
<g id="ic_24_folder_n">
<path id="app_registration" d="M5.92969 20C5.37969 20 4.90885 19.8042 4.51719 19.4125C4.12552 19.0208 3.92969 18.55 3.92969 18C3.92969 17.45 4.12552 16.9792 4.51719 16.5875C4.90885 16.1958 5.37969 16 5.92969 16C6.47969 16 6.95052 16.1958 7.34219 16.5875C7.73385 16.9792 7.92969 17.45 7.92969 18C7.92969 18.55 7.73385 19.0208 7.34219 19.4125C6.95052 19.8042 6.47969 20 5.92969 20ZM5.92969 14C5.37969 14 4.90885 13.8042 4.51719 13.4125C4.12552 13.0208 3.92969 12.55 3.92969 12C3.92969 11.45 4.12552 10.9792 4.51719 10.5875C4.90885 10.1958 5.37969 10 5.92969 10C6.47969 10 6.95052 10.1958 7.34219 10.5875C7.73385 10.9792 7.92969 11.45 7.92969 12C7.92969 12.55 7.73385 13.0208 7.34219 13.4125C6.95052 13.8042 6.47969 14 5.92969 14ZM5.92969 8C5.37969 8 4.90885 7.80417 4.51719 7.4125C4.12552 7.02083 3.92969 6.55 3.92969 6C3.92969 5.45 4.12552 4.97917 4.51719 4.5875C4.90885 4.19583 5.37969 4 5.92969 4C6.47969 4 6.95052 4.19583 7.34219 4.5875C7.73385 4.97917 7.92969 5.45 7.92969 6C7.92969 6.55 7.73385 7.02083 7.34219 7.4125C6.95052 7.80417 6.47969 8 5.92969 8ZM11.9297 14C11.3797 14 10.9089 13.8042 10.5172 13.4125C10.1255 13.0208 9.92969 12.55 9.92969 12C9.92969 11.45 10.1255 10.9792 10.5172 10.5875C10.9089 10.1958 11.3797 10 11.9297 10C12.4797 10 12.9505 10.1958 13.3422 10.5875C13.7339 10.9792 13.9297 11.45 13.9297 12L11.9297 14ZM11.9297 8C11.3797 8 10.9089 7.80417 10.5172 7.4125C10.1255 7.02083 9.92969 6.55 9.92969 6C9.92969 5.45 10.1255 4.97917 10.5172 4.5875C10.9089 4.19583 11.3797 4 11.9297 4C12.4797 4 12.9505 4.19583 13.3422 4.5875C13.7339 4.97917 13.9297 5.45 13.9297 6C13.9297 6.55 13.7339 7.02083 13.3422 7.4125C12.9505 7.80417 12.4797 8 11.9297 8ZM10.9297 20V17.875L16.2297 12.575L18.3547 14.7L13.0547 20H10.9297ZM17.9297 8C17.3797 8 16.9089 7.80417 16.5172 7.4125C16.1255 7.02083 15.9297 6.55 15.9297 6C15.9297 5.45 16.1255 4.97917 16.5172 4.5875C16.9089 4.19583 17.3797 4 17.9297 4C18.4797 4 18.9505 4.19583 19.3422 4.5875C19.7339 4.97917 19.9297 5.45 19.9297 6C19.9297 6.55 19.7339 7.02083 19.3422 7.4125C18.9505 7.80417 18.4797 8 17.9297 8ZM19.0547 14L16.9297 11.875L17.6547 11.15C17.8547 10.95 18.0922 10.85 18.3672 10.85C18.6422 10.85 18.8714 10.95 19.0547 11.15L19.7797 11.875C19.9797 12.0583 20.0797 12.2875 20.0797 12.5625C20.0797 12.8375 19.9797 13.075 19.7797 13.275L19.0547 14Z" fill="#4B4B4B"/>
</g>
</svg>
