<svg width="24" height="24" viewBox="0 0 24 24" fill="none" xmlns="http://www.w3.org/2000/svg">
<g id="ic_24_setting">
<g id="Group 3465698">
<path id="Union" fill-rule="evenodd" clip-rule="evenodd" d="M12.7139 3.43839C13.1786 3.43231 13.5782 3.81585 13.5866 4.31202L13.5869 4.51358L13.5869 4.51528C13.5842 5.53135 13.948 6.4347 14.7391 6.8914C15.5296 7.3478 16.4958 7.21275 17.378 6.70542L17.5553 6.60332C17.9892 6.36254 18.5211 6.51688 18.7482 6.92238L19.7117 8.57654C20.0147 9.09599 19.8323 9.77147 19.3153 10.07C18.4331 10.5775 17.8318 11.3448 17.8311 12.2579C17.8304 13.1711 18.4305 13.939 19.3103 14.4469C19.8295 14.7467 20.014 15.4226 19.7119 15.9458L18.8723 17.4C18.5725 17.9192 17.8967 18.1037 17.3735 17.8016C16.4937 17.2937 15.5286 17.1579 14.7381 17.6151C13.9482 18.072 13.5843 18.9755 13.5854 19.9925C13.5817 20.6007 13.0897 21.0871 12.4898 21.0844L10.588 21.077L10.5759 21.0772C10.1112 21.0833 9.71162 20.6997 9.70319 20.2035L9.70295 20.002L9.70295 20.0006C9.70575 18.9844 9.34187 18.0809 8.55076 17.6242C7.76025 17.1678 6.79406 17.3028 5.91187 17.8102L5.73451 17.9123C5.30061 18.153 4.76876 17.9987 4.54168 17.5932L3.57818 15.939C3.27521 15.4196 3.45749 14.7443 3.97432 14.4457C4.85663 13.9382 5.458 13.1709 5.45874 12.2577C5.45948 11.3445 4.85934 10.5766 3.97953 10.0686C3.45632 9.76655 3.27817 9.089 3.57792 8.5698L4.41753 7.11556C4.71729 6.59636 5.39314 6.41187 5.91636 6.71395C6.79617 7.22191 7.76123 7.3577 8.55172 6.90046C9.34218 6.44323 9.70601 5.53884 9.70441 4.52105C9.70441 4.5212 9.70441 4.52134 9.70441 4.52149L8.98884 4.52172L9.70441 4.5205C9.70441 4.52068 9.70441 4.52087 9.70441 4.52105C9.70446 3.92411 10.1987 3.42849 10.8001 3.43117L12.7018 3.43855L12.7139 3.43839ZM15.0177 4.29696C15.0013 3.0431 13.9867 1.99409 12.7018 2.00729L10.8055 2.00002C9.40728 1.99404 8.27282 3.13579 8.27326 4.52194L8.27326 4.52293C8.27447 5.23629 8.02873 5.54965 7.83514 5.66162C7.64144 5.77366 7.24769 5.83004 6.63194 5.47453C5.41997 4.77481 3.87063 5.20052 3.17812 6.39998L2.33851 7.85423C1.646 9.05369 2.05199 10.6083 3.26396 11.308C3.87971 11.6635 4.02776 12.0327 4.02758 12.2565C4.0274 12.4801 3.8789 12.8496 3.26051 13.2053L3.25965 13.2058C2.05899 13.8985 1.63766 15.4522 2.34197 16.6601L3.2962 18.2984C3.92728 19.4177 5.34301 19.7719 6.43706 19.1592L6.62597 19.0504C7.24449 18.6948 7.64039 18.7511 7.83519 18.8636C8.02905 18.9755 8.27399 19.2877 8.2718 19.9976L8.2718 20.0006L8.272 20.2101L8.27211 20.2186C8.28852 21.4725 9.30306 22.5214 10.588 22.5083L12.4843 22.5156C13.8835 22.5215 15.0104 21.3878 15.0166 19.997L15.0166 19.9926C15.0154 19.2793 15.2611 18.9659 15.4547 18.854C15.6484 18.7419 16.0421 18.6855 16.6579 19.041C17.8699 19.7408 19.4192 19.3151 20.1117 18.1156L20.9513 16.6613C21.6511 15.4494 21.2253 13.9 20.0259 13.2075C19.4101 12.852 19.2621 12.4828 19.2623 12.2591C19.2624 12.0354 19.4109 11.6659 20.0293 11.3103L20.0302 11.3098C21.231 10.617 21.6525 9.06344 20.9479 7.85545L19.9937 6.21729C19.3626 5.09787 17.9469 4.74367 16.8528 5.35639L16.6639 5.46515C16.0453 5.82076 15.6494 5.76445 15.4546 5.65198C15.2608 5.54006 15.0158 5.22783 15.018 4.51799L15.018 4.51493L15.0178 4.30547L15.0177 4.29696ZM9.78113 11.1815C10.3739 10.1548 11.6868 9.80297 12.7136 10.3958C13.7404 10.9886 14.0922 12.3015 13.4994 13.3283C12.9066 14.355 11.5936 14.7068 10.5669 14.114C9.54012 13.5212 9.18832 12.2083 9.78113 11.1815ZM13.4292 9.15635C11.7179 8.16835 9.52972 8.75468 8.54171 10.466C7.55371 12.1772 8.14003 14.3654 9.85131 15.3534C11.5626 16.3414 13.7508 15.7551 14.7388 14.0438C15.7268 12.3326 15.1405 10.1444 13.4292 9.15635Z" fill="#3B424B"/>
</g>
</g>
</svg>
