<svg width="20" height="20" viewBox="0 0 20 20" fill="none" xmlns="http://www.w3.org/2000/svg">
<g id="ic_20_edit">
<path id="Vector" d="M4.4 14.8009H7.792C7.89728 14.8015 8.00166 14.7814 8.09912 14.7416C8.19659 14.7018 8.28525 14.6431 8.36 14.569L13.896 9.0266L16.168 6.80325C16.243 6.7289 16.3025 6.64044 16.3431 6.54298C16.3837 6.44552 16.4046 6.34099 16.4046 6.23541C16.4046 6.12983 16.3837 6.0253 16.3431 5.92784C16.3025 5.83038 16.243 5.74192 16.168 5.66758L12.776 2.23657C12.7016 2.16161 12.6131 2.10211 12.5157 2.06151C12.4182 2.0209 12.3136 2 12.208 2C12.1024 2 11.9978 2.0209 11.9003 2.06151C11.8029 2.10211 11.7144 2.16161 11.64 2.23657L9.384 4.49991L3.832 10.0423C3.75785 10.117 3.69919 10.2057 3.65938 10.3031C3.61957 10.4005 3.59939 10.5049 3.6 10.6101V14.0012C3.6 14.2133 3.68429 14.4167 3.83431 14.5667C3.98434 14.7167 4.18783 14.8009 4.4 14.8009ZM12.208 3.93208L14.472 6.19542L13.336 7.33109L11.072 5.06775L12.208 3.93208ZM5.2 10.938L9.944 6.19542L12.208 8.45877L7.464 13.2014H5.2V10.938ZM17.2 16.4005H2.8C2.58783 16.4005 2.38434 16.4847 2.23431 16.6347C2.08429 16.7847 2 16.9881 2 17.2002C2 17.4123 2.08429 17.6158 2.23431 17.7658C2.38434 17.9157 2.58783 18 2.8 18H17.2C17.4122 18 17.6157 17.9157 17.7657 17.7658C17.9157 17.6158 18 17.4123 18 17.2002C18 16.9881 17.9157 16.7847 17.7657 16.6347C17.6157 16.4847 17.4122 16.4005 17.2 16.4005Z" fill="#ADB5BD"/>
</g>
</svg>
