<svg width="24" height="24" viewBox="0 0 24 24" fill="none" xmlns="http://www.w3.org/2000/svg">
<g id="ic_24_backgroundcolor">
<path id="Vector" d="M10.137 13.35H13.863L12 8.382L10.137 13.35ZM19.2 3H4.8C3.81 3 3 3.81 3 4.8V19.2C3 20.19 3.81 21 4.8 21H19.2C20.19 21 21 20.19 21 19.2V4.8C21 3.81 20.19 3 19.2 3ZM15.339 17.292L14.529 15.15H9.453L8.652 17.283C8.526 17.625 8.202 17.85 7.833 17.85C7.221 17.85 6.798 17.229 7.023 16.662L10.848 6.933C11.046 6.456 11.496 6.15 12 6.15C12.504 6.15 12.954 6.456 13.143 6.933L16.968 16.662C17.193 17.229 16.77 17.85 16.158 17.85C15.798 17.85 15.474 17.625 15.339 17.292V17.292Z" fill="#1C1C1C"/>
</g>
</svg>
