<svg width="20" height="20" viewBox="0 0 20 20" fill="none" xmlns="http://www.w3.org/2000/svg">
<g id="ic_20_close">
<path id="Vector" d="M11.409 9.99915L17.7044 3.71303C17.8926 3.52485 17.9983 3.26961 17.9983 3.00347C17.9983 2.73733 17.8926 2.4821 17.7044 2.29391C17.5162 2.10572 17.261 2 16.9949 2C16.7288 2 16.4736 2.10572 16.2854 2.29391L10 8.59002L3.71456 2.29391C3.52639 2.10572 3.27118 2 3.00507 2C2.73896 2 2.48375 2.10572 2.29558 2.29391C2.10742 2.4821 2.00171 2.73733 2.00171 3.00347C2.00171 3.26961 2.10742 3.52485 2.29558 3.71303L8.59102 9.99915L2.29558 16.2853C2.20192 16.3782 2.12758 16.4887 2.07685 16.6105C2.02612 16.7323 2 16.8629 2 16.9948C2 17.1268 2.02612 17.2574 2.07685 17.3792C2.12758 17.5009 2.20192 17.6115 2.29558 17.7044C2.38848 17.7981 2.499 17.8724 2.62077 17.9231C2.74254 17.9739 2.87315 18 3.00507 18C3.13699 18 3.2676 17.9739 3.38937 17.9231C3.51114 17.8724 3.62166 17.7981 3.71456 17.7044L10 11.4083L16.2854 17.7044C16.3783 17.7981 16.4889 17.8724 16.6106 17.9231C16.7324 17.9739 16.863 18 16.9949 18C17.1268 18 17.2575 17.9739 17.3792 17.9231C17.501 17.8724 17.6115 17.7981 17.7044 17.7044C17.7981 17.6115 17.8724 17.5009 17.9232 17.3792C17.9739 17.2574 18 17.1268 18 16.9948C18 16.8629 17.9739 16.7323 17.9232 16.6105C17.8724 16.4887 17.7981 16.3782 17.7044 16.2853L11.409 9.99915Z" fill="#16191C"/>
</g>
</svg>
