<svg width="24" height="24" viewBox="0 0 24 24" fill="none" xmlns="http://www.w3.org/2000/svg">
<g id="ic_24_sample_s">
<path id="find_in_page" d="M12 15C12.55 15 13.021 14.804 13.413 14.412C13.8043 14.0207 14 13.55 14 13C14 12.45 13.8043 11.979 13.413 11.587C13.021 11.1957 12.55 11 12 11C11.45 11 10.9793 11.1957 10.588 11.587C10.196 11.979 10 12.45 10 13C10 13.55 10.196 14.0207 10.588 14.412C10.9793 14.804 11.45 15 12 15ZM17.6 20L14.025 16.425C13.7417 16.6083 13.4293 16.75 13.088 16.85C12.746 16.95 12.3833 17 12 17C10.9 17 9.95833 16.6083 9.175 15.825C8.39167 15.0417 8 14.1 8 13C8 11.9 8.39167 10.9583 9.175 10.175C9.95833 9.39167 10.9 9 12 9C13.1 9 14.0417 9.39167 14.825 10.175C15.6083 10.9583 16 11.9 16 13C16 13.3833 15.95 13.7417 15.85 14.075C15.75 14.4083 15.6083 14.7167 15.425 15L18 17.575V8.725L14.05 4H6V20H17.6ZM6 22C5.45 22 4.97933 21.8043 4.588 21.413C4.196 21.021 4 20.55 4 20V4C4 3.45 4.196 2.979 4.588 2.587C4.97933 2.19567 5.45 2 6 2H15L20 8V20C20 20.55 19.8043 21.021 19.413 21.413C19.021 21.8043 18.55 22 18 22H6Z" fill="#099A96"/>
</g>
</svg>
