<svg width="24" height="24" viewBox="0 0 24 24" fill="none" xmlns="http://www.w3.org/2000/svg">
<g id="ic_24_cloud_n">
<path id="burst_mode" d="M1 19V5H3V19H1ZM5 19V5H7V19H5ZM11 19C10.45 19 9.97917 18.8042 9.5875 18.4125C9.19583 18.0208 9 17.55 9 17V7C9 6.45 9.19583 5.97917 9.5875 5.5875C9.97917 5.19583 10.45 5 11 5H21C21.55 5 22.0208 5.19583 22.4125 5.5875C22.8042 5.97917 23 6.45 23 7V17C23 17.55 22.8042 18.0208 22.4125 18.4125C22.0208 18.8042 21.55 19 21 19H11ZM11 17H21V7H11V17ZM12 15H20L17.4 11.5L15.5 14L14.1 12.15L12 15Z" fill="#4B4B4B"/>
</g>
</svg>
