<svg width="18" height="18" viewBox="0 0 18 18" fill="none" xmlns="http://www.w3.org/2000/svg">
<path d="M9.5317 14.2996C8.71852 15.1128 7.74625 15.5194 6.61488 15.5194C5.48351 15.5194 4.51124 15.1128 3.69807 14.2996C2.88489 13.4865 2.47831 12.5142 2.47831 11.3828C2.47831 10.2514 2.88489 9.27917 3.69807 8.466L9.26653 2.89753C9.84989 2.31417 10.557 2.02249 11.3879 2.02249C12.2187 2.02249 12.9258 2.31417 13.5092 2.89753C14.0925 3.48089 14.3842 4.188 14.3842 5.01885C14.3842 5.8497 14.0925 6.55681 13.5092 7.14017L8.47104 12.1783C8.09981 12.5495 7.65786 12.7352 7.14521 12.7352C6.63256 12.7352 6.19062 12.5495 5.81939 12.1783C5.44815 11.8071 5.26254 11.3651 5.26254 10.8525C5.26254 10.3398 5.44815 9.89789 5.81939 9.52666L10.8575 4.48852L11.653 5.28402L6.61488 10.3222C6.46462 10.4724 6.38949 10.6492 6.38949 10.8525C6.38949 11.0558 6.46462 11.2326 6.61488 11.3828C6.76514 11.5331 6.94192 11.6082 7.14521 11.6082C7.3485 11.6082 7.52528 11.5331 7.67554 11.3828L12.7137 6.34468C13.0849 5.97345 13.2705 5.5315 13.2705 5.01885C13.2705 4.5062 13.0849 4.06426 12.7137 3.69303C12.3424 3.32179 11.9005 3.13618 11.3879 3.13618C10.8752 3.13618 10.4333 3.32179 10.062 3.69303L4.49356 9.26149C3.9102 9.84486 3.61852 10.552 3.61852 11.3828C3.61852 12.2137 3.9102 12.9208 4.49356 13.5041C5.07692 14.0875 5.78403 14.3792 6.61488 14.3792C7.44573 14.3792 8.15284 14.0875 8.7362 13.5041L14.3047 7.93567L15.1002 8.73116L9.5317 14.2996Z" fill="#099A96"/>
</svg>
