<svg width="24" height="24" viewBox="0 0 24 24" fill="none" xmlns="http://www.w3.org/2000/svg">
<g id="ic_24_favorite_n">
<path id="favorite" d="M12 21.1703L10.55 19.8703C8.86667 18.3536 7.475 17.0453 6.375 15.9453C5.275 14.8453 4.4 13.8578 3.75 12.9828C3.1 12.1078 2.64583 11.3036 2.3875 10.5703C2.12917 9.83698 2 9.08698 2 8.32031C2 6.75365 2.525 5.44531 3.575 4.39531C4.625 3.34531 5.93333 2.82031 7.5 2.82031C8.36667 2.82031 9.19167 3.00365 9.975 3.37031C10.7583 3.73698 11.4333 4.25365 12 4.92031C12.5667 4.25365 13.2417 3.73698 14.025 3.37031C14.8083 3.00365 15.6333 2.82031 16.5 2.82031C18.0667 2.82031 19.375 3.34531 20.425 4.39531C21.475 5.44531 22 6.75365 22 8.32031C22 9.08698 21.8708 9.83698 21.6125 10.5703C21.3542 11.3036 20.9 12.1078 20.25 12.9828C19.6 13.8578 18.725 14.8453 17.625 15.9453C16.525 17.0453 15.1333 18.3536 13.45 19.8703L12 21.1703ZM12 18.4703C13.6 17.037 14.9167 15.8078 15.95 14.7828C16.9833 13.7578 17.8 12.8661 18.4 12.1078C19 11.3495 19.4167 10.6745 19.65 10.0828C19.8833 9.49115 20 8.90365 20 8.32031C20 7.32031 19.6667 6.48698 19 5.82031C18.3333 5.15365 17.5 4.82031 16.5 4.82031C15.7167 4.82031 14.9917 5.04115 14.325 5.48281C13.6583 5.92448 13.2 6.48698 12.95 7.17031H11.05C10.8 6.48698 10.3417 5.92448 9.675 5.48281C9.00833 5.04115 8.28333 4.82031 7.5 4.82031C6.5 4.82031 5.66667 5.15365 5 5.82031C4.33333 6.48698 4 7.32031 4 8.32031C4 8.90365 4.11667 9.49115 4.35 10.0828C4.58333 10.6745 5 11.3495 5.6 12.1078C6.2 12.8661 7.01667 13.7578 8.05 14.7828C9.08333 15.8078 10.4 17.037 12 18.4703Z" fill="#4B4B4B"/>
</g>
</svg>
