<svg width="24" height="24" viewBox="0 0 24 24" fill="none" xmlns="http://www.w3.org/2000/svg">
<g id="ic_24_listul">
<path id="Vector" d="M6.99624 7.99624H20.9962C21.5962 7.99624 21.9962 7.59624 21.9962 6.99624C21.9962 6.39624 21.5962 5.99624 20.9962 5.99624H6.99624C6.39624 5.99624 5.99624 6.39624 5.99624 6.99624C5.99624 7.59624 6.39624 7.99624 6.99624 7.99624ZM20.9962 10.9962H6.99624C6.39624 10.9962 5.99624 11.3962 5.99624 11.9962C5.99624 12.5962 6.39624 12.9962 6.99624 12.9962H20.9962C21.5962 12.9962 21.9962 12.5962 21.9962 11.9962C21.9962 11.3962 21.5962 10.9962 20.9962 10.9962ZM20.9962 15.9962H6.99624C6.39624 15.9962 5.99624 16.3962 5.99624 16.9962C5.99624 17.5962 6.39624 17.9962 6.99624 17.9962H20.9962C21.5962 17.9962 21.9962 17.5962 21.9962 16.9962C21.9962 16.3962 21.5962 15.9962 20.9962 15.9962ZM3.69624 6.29624C3.59624 6.19624 3.49624 6.09624 3.39624 6.09624C2.99624 5.89624 2.59624 5.99624 2.29624 6.29624C2.19624 6.39624 2.09624 6.49624 2.09624 6.59624C1.99624 6.89624 1.99624 7.09624 2.09624 7.39624C2.19624 7.49624 2.19624 7.59624 2.29624 7.69624C2.39624 7.79624 2.49624 7.89624 2.59624 7.89624C2.69624 7.99624 2.89624 7.99624 2.99624 7.99624C3.29624 7.99624 3.49624 7.89624 3.69624 7.69624C3.79624 7.59624 3.89624 7.49624 3.89624 7.39624C3.99624 7.09624 3.99624 6.89624 3.89624 6.59624C3.89624 6.49624 3.79624 6.39624 3.69624 6.29624ZM3.69624 11.2962C3.39624 10.9962 2.99624 10.8962 2.59624 11.0962C2.49624 11.1962 2.39624 11.1962 2.29624 11.2962C2.19624 11.3962 2.09624 11.4962 2.09624 11.5962C1.99624 11.7962 1.99624 12.0962 2.09624 12.3962C2.19624 12.4962 2.19624 12.5962 2.29624 12.6962C2.39624 12.7962 2.49624 12.8962 2.59624 12.8962C2.69624 12.9962 2.89624 12.9962 2.99624 12.9962C3.09624 12.9962 3.29624 12.9962 3.39624 12.8962C3.49624 12.7962 3.59624 12.7962 3.69624 12.6962C3.79624 12.5962 3.89624 12.4962 3.89624 12.3962C3.99624 12.1962 3.99624 11.8962 3.89624 11.5962C3.89624 11.4962 3.79624 11.3962 3.69624 11.2962ZM3.69624 16.2962C3.59624 16.1962 3.49624 16.0962 3.39624 16.0962C3.19624 15.9962 2.89624 15.9962 2.59624 16.0962C2.49624 16.0962 2.39624 16.1962 2.29624 16.2962C2.19624 16.3962 2.09624 16.4962 2.09624 16.5962C1.89624 16.9962 1.99624 17.3962 2.29624 17.6962C2.39624 17.7962 2.49624 17.8962 2.59624 17.8962C2.69624 17.9962 2.89624 17.9962 2.99624 17.9962C3.09624 17.9962 3.29624 17.9962 3.39624 17.8962C3.49624 17.7962 3.59624 17.7962 3.69624 17.6962C3.99624 17.3962 4.09624 16.9962 3.89624 16.5962C3.89624 16.4962 3.79624 16.3962 3.69624 16.2962Z" fill="#1C1C1C"/>
</g>
</svg>
