<svg width="20" height="20" viewBox="0 0 20 20" fill="none" xmlns="http://www.w3.org/2000/svg">
<g id="ic_20_heart_off">
<path id="Vector" d="M13.6974 2.57812C12.1891 2.57812 10.8391 3.31146 9.9974 4.43646C9.15573 3.31146 7.80573 2.57812 6.2974 2.57812C3.73906 2.57812 1.66406 4.66146 1.66406 7.23646C1.66406 8.22812 1.8224 9.14479 2.0974 9.99479C3.41406 14.1615 7.4724 16.6531 9.48073 17.3365C9.76406 17.4365 10.2307 17.4365 10.5141 17.3365C12.5224 16.6531 16.5807 14.1615 17.8974 9.99479C18.1724 9.14479 18.3307 8.22812 18.3307 7.23646C18.3307 4.66146 16.2557 2.57812 13.6974 2.57812Z" fill="white"/>
<path id="Vector (Stroke)" fill-rule="evenodd" clip-rule="evenodd" d="M9.9974 7.77507L8.39597 5.63456C7.91404 4.99038 7.14611 4.57812 6.2974 4.57812C4.85297 4.57812 3.66406 5.75667 3.66406 7.23646C3.66406 8.01061 3.78696 8.71979 4.00028 9.37915L4.00449 9.39215L4.00445 9.39216C4.51958 11.0223 5.59545 12.3913 6.83327 13.4551C8.01186 14.468 9.23374 15.1145 9.9974 15.3976C10.761 15.1145 11.9829 14.468 13.1615 13.4551C14.3993 12.3913 15.4752 11.0223 15.9903 9.39216L15.9945 9.37914L15.9945 9.37915C16.2078 8.71978 16.3307 8.01061 16.3307 7.23646C16.3307 5.75667 15.1418 4.57812 13.6974 4.57812C12.8487 4.57812 12.0808 4.99038 11.5988 5.63456L9.9974 7.77507ZM8.47978 3.12875C7.82861 2.77785 7.08456 2.57812 6.2974 2.57812C3.73906 2.57812 1.66406 4.66146 1.66406 7.23646C1.66406 8.22812 1.8224 9.14479 2.0974 9.99479C3.41406 14.1615 7.4724 16.6531 9.48073 17.3365C9.76406 17.4365 10.2307 17.4365 10.5141 17.3365C12.5224 16.6531 16.5807 14.1615 17.8974 9.99479C18.1724 9.14479 18.3307 8.22812 18.3307 7.23646C18.3307 4.66146 16.2557 2.57812 13.6974 2.57812C12.9102 2.57812 12.1662 2.77785 11.515 3.12875C10.9184 3.45022 10.3998 3.89857 9.9974 4.43646C9.59498 3.89857 9.07635 3.45022 8.47978 3.12875Z" fill="#DFE3E6"/>
</g>
</svg>
