<svg width="24" height="24" viewBox="0 0 24 24" fill="none" xmlns="http://www.w3.org/2000/svg">
<g id="ic_24_radio_g">
<g id="Vector">
<path fill-rule="evenodd" clip-rule="evenodd" d="M12 21.625C17.3157 21.625 21.625 17.3157 21.625 12C21.625 6.68426 17.3157 2.375 12 2.375C6.68426 2.375 2.375 6.68426 2.375 12C2.375 17.3157 6.68426 21.625 12 21.625ZM12 23C18.0751 23 23 18.0751 23 12C23 5.92487 18.0751 1 12 1C5.92487 1 1 5.92487 1 12C1 18.0751 5.92487 23 12 23Z" fill="#BDBDBD"/>
<path d="M12 21.625C17.3157 21.625 21.625 17.3157 21.625 12C21.625 6.68426 17.3157 2.375 12 2.375C6.68426 2.375 2.375 6.68426 2.375 12C2.375 17.3157 6.68426 21.625 12 21.625Z" fill="white"/>
</g>
</g>
</svg>
