<svg width="24" height="24" viewBox="0 0 24 24" fill="none" xmlns="http://www.w3.org/2000/svg">
<g id="ic_24_refresh">
<path id="Vector" d="M21 11C20.4 11 20 11.4 20 12C20 14.9 18.5 17.5 16 18.9C12.2 21.1 7.3 19.8 5.1 16C2.9 12.2 4.2 7.3 8 5.1C11.3 3.2 15.3 3.9 17.8 6.5H15.4C14.8 6.5 14.4 6.9 14.4 7.5C14.4 8.1 14.8 8.5 15.4 8.5H19.9C20.5 8.5 20.9 8.1 20.9 7.5V3C20.9 2.4 20.5 2 19.9 2C19.3 2 18.9 2.4 18.9 3V4.8C17 3 14.6 2 12 2C6.5 2 2 6.5 2 12C2 17.5 6.5 22 12 22C17.5 22 22 17.5 22 12C22 11.4 21.6 11 21 11Z" fill="#1C1C1C"/>
</g>
</svg>
