<svg width="24" height="24" viewBox="0 0 24 24" fill="none" xmlns="http://www.w3.org/2000/svg">
<g id="ic_24_sign_c">
<path id="Vector" d="M18.5008 5.50079H14.5008C14.2356 5.50079 13.9812 5.60615 13.7937 5.79369C13.6061 5.98122 13.5008 6.23558 13.5008 6.50079C13.5008 6.76601 13.6061 7.02036 13.7937 7.2079C13.9812 7.39544 14.2356 7.50079 14.5008 7.50079H18.5008C18.766 7.50079 19.0204 7.60615 19.2079 7.79369C19.3954 7.98122 19.5008 8.23558 19.5008 8.50079V18.2208L17.9308 16.7708C17.7464 16.5981 17.5034 16.5017 17.2508 16.5008H8.50079C8.23558 16.5008 7.98122 16.3954 7.79369 16.2079C7.60615 16.0204 7.50079 15.766 7.50079 15.5008V14.5008C7.50079 14.2356 7.39544 13.9812 7.2079 13.7937C7.02036 13.6061 6.76601 13.5008 6.50079 13.5008C6.23558 13.5008 5.98122 13.6061 5.79369 13.7937C5.60615 13.9812 5.50079 14.2356 5.50079 14.5008V15.5008C5.50079 16.2964 5.81686 17.0595 6.37947 17.6221C6.94208 18.1847 7.70514 18.5008 8.50079 18.5008H16.8608L19.8608 21.2308C20.0452 21.4035 20.2882 21.4999 20.5408 21.5008C20.6779 21.4993 20.8136 21.4722 20.9408 21.4208C21.1197 21.3427 21.2718 21.214 21.3784 21.0505C21.485 20.8871 21.5415 20.696 21.5408 20.5008V8.50079C21.5408 8.10344 21.4619 7.71004 21.3087 7.34343C21.1554 6.97682 20.9308 6.64431 20.648 6.3652C20.3652 6.0861 20.0297 5.86596 19.6611 5.71757C19.2925 5.56918 18.8981 5.49549 18.5008 5.50079ZM9.08079 12.5008H11.5008C11.766 12.5008 12.0204 12.3954 12.2079 12.2079C12.3954 12.0204 12.5008 11.766 12.5008 11.5008V9.08079C12.5016 8.94919 12.4763 8.81872 12.4266 8.69689C12.3768 8.57505 12.3035 8.46423 12.2108 8.37079L6.63079 2.79079C6.44343 2.60454 6.18998 2.5 5.92579 2.5C5.66161 2.5 5.40815 2.60454 5.22079 2.79079L2.79079 5.22079C2.60454 5.40815 2.5 5.66161 2.5 5.92579C2.5 6.18998 2.60454 6.44343 2.79079 6.63079L8.37079 12.2108C8.46423 12.3035 8.57505 12.3768 8.69689 12.4266C8.81872 12.4763 8.94919 12.5016 9.08079 12.5008ZM5.92079 4.91079L10.5008 9.49079V10.4908H9.50079L4.91079 5.92079L5.92079 4.91079Z" fill="#099A96"/>
</g>
</svg>
