<svg width="48" height="48" viewBox="0 0 48 48" fill="none" xmlns="http://www.w3.org/2000/svg">
<circle cx="24" cy="24" r="24" fill="#099A96"/>
<path d="M36.3882 15.5278C36.2231 15.3606 36.0267 15.2278 35.8103 15.1372C35.5939 15.0466 35.3617 15 35.1273 15C34.8928 15 34.6607 15.0466 34.4442 15.1372C34.2278 15.2278 34.0314 15.3606 33.8663 15.5278L20.6349 28.8399L15.0759 23.2367C14.9045 23.0703 14.7022 22.9395 14.4804 22.8517C14.2587 22.7639 14.0219 22.7208 13.7836 22.725C13.5453 22.7291 13.3101 22.7804 13.0915 22.8758C12.8729 22.9713 12.6752 23.1091 12.5096 23.2813C12.344 23.4535 12.2138 23.6569 12.1264 23.8797C12.039 24.1025 11.9961 24.3404 12.0003 24.5798C12.0044 24.8193 12.0554 25.0555 12.1504 25.2752C12.2454 25.4948 12.3826 25.6935 12.554 25.8598L19.3739 32.7122C19.539 32.8794 19.7355 33.0122 19.9519 33.1028C20.1683 33.1934 20.4004 33.24 20.6349 33.24C20.8694 33.24 21.1015 33.1934 21.3179 33.1028C21.5343 33.0122 21.7308 32.8794 21.8959 32.7122L36.3882 18.151C36.5685 17.9839 36.7124 17.7811 36.8108 17.5554C36.9092 17.3296 36.96 17.0859 36.96 16.8394C36.96 16.593 36.9092 16.3492 36.8108 16.1235C36.7124 15.8977 36.5685 15.6949 36.3882 15.5278Z" fill="white"/>
</svg>
