<svg width="18" height="18" viewBox="0 0 18 18" fill="none" xmlns="http://www.w3.org/2000/svg">
<g id="ic_link">
<path id="chrome_restore" d="M7.5 12C7.0875 12 6.73438 11.8531 6.44063 11.5594C6.14688 11.2656 6 10.9125 6 10.5V4.5C6 4.0875 6.14688 3.73438 6.44063 3.44063C6.73438 3.14688 7.0875 3 7.5 3H13.5C13.9125 3 14.2656 3.14688 14.5594 3.44063C14.8531 3.73438 15 4.0875 15 4.5V10.5C15 10.9125 14.8531 11.2656 14.5594 11.5594C14.2656 11.8531 13.9125 12 13.5 12H7.5ZM7.5 4.5V10.5H13.5V4.5H7.5ZM4.5 15C4.0875 15 3.73438 14.8531 3.44063 14.5594C3.14688 14.2656 3 13.9125 3 13.5V6.39375H4.5V13.5H11.6063V15H4.5Z" fill="#099A96"/>
</g>
</svg>
