<svg width="16" height="16" viewBox="0 0 16 16" fill="none" xmlns="http://www.w3.org/2000/svg">
<path d="M11.7 0.875H4C2.27411 0.875 0.875 2.27411 0.875 4V11.7C0.875 13.4259 2.27411 14.825 4 14.825H11.7C13.4259 14.825 14.825 13.4259 14.825 11.7V4C14.825 2.27411 13.4259 0.875 11.7 0.875Z" fill="white" stroke="#099A96" stroke-width="1.75"/>
<path d="M6.29055 10.2803C6.37164 10.362 6.46811 10.4269 6.5744 10.4712C6.68068 10.5155 6.79469 10.5383 6.90983 10.5383C7.02498 10.5383 7.13898 10.5155 7.24527 10.4712C7.35156 10.4269 7.44803 10.362 7.52911 10.2803L11.0878 6.72163C11.252 6.55739 11.3443 6.33463 11.3443 6.10235C11.3443 5.87008 11.252 5.64732 11.0878 5.48308C10.9235 5.31883 10.7008 5.22656 10.4685 5.22656C10.2362 5.22656 10.0135 5.31883 9.84922 5.48308L6.90983 8.43119L5.85444 7.36708C5.6902 7.20283 5.46744 7.11056 5.23517 7.11056C5.00289 7.11056 4.78013 7.20283 4.61589 7.36708C4.45165 7.53132 4.35938 7.75408 4.35938 7.98635C4.35938 8.21863 4.45165 8.44139 4.61589 8.60563L6.29055 10.2803Z" fill="#099A96"/>
</svg>
