<svg width="48" height="48" viewBox="0 0 48 48" fill="none" xmlns="http://www.w3.org/2000/svg">
<g id="done_alert">
<path id="Vector" d="M24 48C37.2548 48 48 37.2548 48 24C48 10.7452 37.2548 0 24 0C10.7452 0 0 10.7452 0 24C0 37.2548 10.7452 48 24 48Z" fill="#099A96"/>
<path id="Vector_2" d="M36.8726 15.8872C36.7075 15.72 36.5111 15.5872 36.2947 15.4966C36.0782 15.406 35.8461 15.3594 35.6116 15.3594C35.3772 15.3594 35.145 15.406 34.9286 15.4966C34.7122 15.5872 34.5158 15.72 34.3507 15.8872L21.1193 29.1993L15.5603 23.5961C15.3889 23.4297 15.1865 23.2989 14.9648 23.2111C14.743 23.1233 14.5062 23.0802 14.2679 23.0843C14.0296 23.0885 13.7945 23.1397 13.5759 23.2352C13.3573 23.3307 13.1596 23.4684 12.994 23.6407C12.8284 23.8129 12.6982 24.0162 12.6108 24.239C12.5234 24.4618 12.4805 24.6998 12.4846 24.9392C12.4888 25.1786 12.5398 25.4149 12.6348 25.6345C12.7298 25.8542 12.8669 26.0528 13.0384 26.2192L19.8583 33.0715C20.0234 33.2388 20.2198 33.3715 20.4363 33.4621C20.6527 33.5527 20.8848 33.5994 21.1193 33.5994C21.3537 33.5994 21.5859 33.5527 21.8023 33.4621C22.0187 33.3715 22.2151 33.2388 22.3802 33.0715L36.8726 18.5104C37.0529 18.3433 37.1968 18.1405 37.2952 17.9147C37.3936 17.689 37.4444 17.4452 37.4444 17.1988C37.4444 16.9524 37.3936 16.7086 37.2952 16.4829C37.1968 16.2571 37.0529 16.0543 36.8726 15.8872Z" fill="white"/>
</g>
</svg>
