<svg width="18" height="18" viewBox="0 0 18 18" fill="none" xmlns="http://www.w3.org/2000/svg">
<g id="ic_18_rotation">
<g id="Frame 5091">
<path id="Subtract" fill-rule="evenodd" clip-rule="evenodd" d="M15.853 5.09841L15.4777 5.46188V4.83275C15.4777 3.97799 15.1151 3.1568 14.4671 2.55025C13.819 1.94349 12.9386 1.60156 12.0194 1.60156H10.596C10.4318 1.60156 10.2754 1.66272 10.1612 1.7697C10.0471 1.87648 9.98438 2.01983 9.98438 2.1678C9.98438 2.31577 10.0471 2.45912 10.1612 2.5659C10.2754 2.67288 10.4318 2.73404 10.596 2.73404L12.0194 2.73404C12.6101 2.73404 13.1778 2.95365 13.5974 3.34644C14.0172 3.73944 14.2544 4.27393 14.2544 4.83275V5.46188L13.8789 5.09826C13.8224 5.04504 13.7549 5.00247 13.6801 4.97329C13.605 4.94403 13.5243 4.92889 13.4427 4.92889C13.3611 4.92889 13.2804 4.94403 13.2053 4.97329C13.1303 5.00255 13.062 5.04583 13.0055 5.09924C12.9484 5.15222 12.9035 5.21488 12.873 5.28343C12.8425 5.35195 12.8269 5.42519 12.8269 5.49899C12.8269 5.57278 12.8425 5.64602 12.873 5.71455C12.9035 5.78309 12.9487 5.84604 13.0058 5.89901L14.4294 7.23177C14.486 7.28518 14.5537 7.3279 14.6287 7.35716C14.7037 7.38642 14.7844 7.40156 14.866 7.40156C14.9477 7.40156 15.0284 7.38642 15.1034 7.35716C15.1784 7.3279 15.2464 7.2849 15.303 7.23149L16.7263 5.89901C16.8409 5.79173 16.9039 5.64768 16.9039 5.49899C16.9039 5.42522 16.8884 5.352 16.8581 5.28345C16.8278 5.21487 16.7831 5.15212 16.7263 5.09896C16.6695 5.04579 16.6017 5.00328 16.5267 4.97418C16.4516 4.94508 16.371 4.93002 16.2894 4.93002C16.2078 4.93002 16.1271 4.94508 16.0521 4.97418C15.9773 5.00318 15.9097 5.04549 15.853 5.09841Z" fill="#8D969E"/>
<path id="Vector (Stroke)" fill-rule="evenodd" clip-rule="evenodd" d="M2.07096 3.54818C2.49922 3.13051 3.07695 2.89844 3.6763 2.89844H8.1506C8.30713 2.89844 8.45746 2.95961 8.56952 3.06889L12.4845 6.88708C12.6003 7 12.6656 7.15488 12.6656 7.31662V13.8621C12.6656 14.4601 12.4219 15.0305 11.9931 15.4487C11.5648 15.8664 10.9871 16.0984 10.3878 16.0984H3.6763C3.07695 16.0984 2.49923 15.8664 2.07096 15.4487C1.64219 15.0305 1.39844 14.4601 1.39844 13.8621V5.1348C1.39844 4.53675 1.64219 3.96635 2.07096 3.54818ZM3.6763 4.09844C3.38566 4.09844 3.10986 4.21118 2.9088 4.40727C2.70825 4.60285 2.59844 4.86487 2.59844 5.1348V13.8621C2.59844 14.132 2.70825 14.394 2.9088 14.5896C3.10985 14.7857 3.38566 14.8984 3.6763 14.8984H10.3878C10.6784 14.8984 10.9542 14.7857 11.1553 14.5896C11.3558 14.394 11.4656 14.132 11.4656 13.8621V7.56956L7.90646 4.09844H3.6763Z" fill="#8D969E"/>
<path id="Vector (Stroke)_2" fill-rule="evenodd" clip-rule="evenodd" d="M7.80696 2.94451C8.03067 2.85141 8.28843 2.90201 8.46034 3.07277L12.4872 7.07277C12.6596 7.24405 12.7117 7.50244 12.6191 7.72714C12.5265 7.95183 12.3074 8.09845 12.0644 8.09845H9.7633C9.14774 8.09845 8.55661 7.85558 8.12014 7.42203C7.68354 6.98833 7.4375 6.39927 7.4375 5.78417V3.49845C7.4375 3.25614 7.58325 3.03762 7.80696 2.94451ZM8.6375 4.94015V5.78417C8.6375 6.07839 8.75513 6.36137 8.96582 6.57066C9.17666 6.78009 9.46344 6.89845 9.7633 6.89845H10.609L8.6375 4.94015Z" fill="#8D969E"/>
</g>
</g>
</svg>
