<svg width="18" height="18" viewBox="0 0 18 18" fill="none" xmlns="http://www.w3.org/2000/svg">
<g id="ic_18_folder">
<g id="vuesax/linear/folder">
<g id="folder">
<path id="Vector (Stroke)" fill-rule="evenodd" clip-rule="evenodd" d="M2.78033 2.78033C2.45634 3.10432 2.25 3.74464 2.25 5.25V12.75C2.25 14.2554 2.45634 14.8957 2.78033 15.2197C3.10432 15.5437 3.74464 15.75 5.25 15.75H12.75C14.2554 15.75 14.8957 15.5437 15.2197 15.2197C15.5437 14.8957 15.75 14.2554 15.75 12.75V8.25C15.75 6.74464 15.5437 6.10432 15.2197 5.78033C14.8957 5.45634 14.2554 5.25 12.75 5.25H10.5C10.0573 5.25 9.67295 5.18513 9.33768 4.9825C9.04295 4.80436 8.85192 4.55123 8.72817 4.38725C8.7194 4.37563 8.71098 4.36447 8.70288 4.35381L8.69999 4.35001L8.7 4.35L7.575 2.85C7.34335 2.54113 7.25862 2.44421 7.15034 2.37916C7.05981 2.32478 6.87257 2.25 6.375 2.25H5.25C3.74464 2.25 3.10432 2.45634 2.78033 2.78033ZM1.71967 1.71967C2.52068 0.918664 3.75536 0.75 5.25 0.75H6.375C7.00243 0.75 7.50144 0.840223 7.92278 1.09334C8.30692 1.3241 8.55442 1.65507 8.74626 1.91161C8.75598 1.9246 8.76556 1.93741 8.775 1.95L9.89854 3.44805C10.0598 3.66013 10.088 3.6833 10.1136 3.69875L10.1139 3.69895C10.1218 3.7038 10.1973 3.75 10.5 3.75H12.75C14.2446 3.75 15.4793 3.91866 16.2803 4.71967C17.0813 5.52068 17.25 6.75536 17.25 8.25V12.75C17.25 14.2446 17.0813 15.4793 16.2803 16.2803C15.4793 17.0813 14.2446 17.25 12.75 17.25H5.25C3.75536 17.25 2.52068 17.0813 1.71967 16.2803C0.918664 15.4793 0.75 14.2446 0.75 12.75V5.25C0.75 3.75536 0.918664 2.52068 1.71967 1.71967Z" fill="#8D969E"/>
</g>
</g>
</g>
</svg>
