<svg width="10" height="14" viewBox="0 0 10 14" fill="none" xmlns="http://www.w3.org/2000/svg">
<g id="ic_18_updown">
<path id="ic_18_updown_2" fill-rule="evenodd" clip-rule="evenodd" d="M4.34527 12.3219L2.28027 9.80688C2.03454 9.50806 1.98334 9.09424 2.14868 8.74451C2.31402 8.39465 2.66632 8.17163 3.05322 8.17188H7.18329C7.57025 8.17163 7.92254 8.39465 8.08789 8.74451C8.25323 9.09424 8.20202 9.50806 7.95636 9.80688L5.89129 12.3219C5.70129 12.553 5.41791 12.6869 5.11877 12.6869C4.81964 12.6869 4.53625 12.553 4.34625 12.3219H4.34527ZM3.00006 5.51306C2.61139 5.51318 2.25793 5.28796 2.09369 4.93579C1.92944 4.5835 1.98419 4.16797 2.23407 3.87024L4.34308 1.35718C4.53308 1.13074 4.81347 1 5.10907 1C5.40466 1 5.68506 1.13074 5.87506 1.35718L7.98303 3.87012C8.23291 4.16797 8.28766 4.5835 8.12341 4.93579C7.95917 5.28796 7.60571 5.51318 7.21704 5.51318L3.00006 5.51306Z" fill="#8D969E"/>
</g>
</svg>
