<svg width="18" height="18" viewBox="0 0 18 18" fill="none" xmlns="http://www.w3.org/2000/svg">
<g id="ic_18_my">
<g id="Vector">
<path fill-rule="evenodd" clip-rule="evenodd" d="M9.00156 10.7016C10.4927 10.7016 11.7016 9.49273 11.7016 8.00156C11.7016 6.51039 10.4927 5.30156 9.00156 5.30156C7.51039 5.30156 6.30156 6.51039 6.30156 8.00156C6.30156 9.49273 7.51039 10.7016 9.00156 10.7016ZM9.00156 12.0016C11.2107 12.0016 13.0016 10.2107 13.0016 8.00156C13.0016 5.79242 11.2107 4.00156 9.00156 4.00156C6.79242 4.00156 5.00156 5.79242 5.00156 8.00156C5.00156 10.2107 6.79242 12.0016 9.00156 12.0016Z" fill="#3B424B"/>
<path fill-rule="evenodd" clip-rule="evenodd" d="M1.84194 1.84194C2.92348 0.760404 4.53745 0.351562 6.60156 0.351562H11.4016C13.4657 0.351562 15.0796 0.760404 16.1612 1.84194C17.2427 2.92348 17.6516 4.53745 17.6516 6.60156V11.4016C17.6516 13.4657 17.2427 15.0796 16.1612 16.1612C15.0796 17.2427 13.4657 17.6516 11.4016 17.6516H6.60156C4.53745 17.6516 2.92348 17.2427 1.84194 16.1612C0.760404 15.0796 0.351562 13.4657 0.351562 11.4016V6.60156C0.351562 4.53745 0.760404 2.92348 1.84194 1.84194ZM2.76118 2.76118C2.04272 3.47964 1.65156 4.66567 1.65156 6.60156V11.4016C1.65156 13.3375 2.04272 14.5235 2.76118 15.2419C3.47964 15.9604 4.66567 16.3516 6.60156 16.3516H11.4016C13.3375 16.3516 14.5235 15.9604 15.2419 15.2419C15.9604 14.5235 16.3516 13.3375 16.3516 11.4016V6.60156C16.3516 4.66567 15.9604 3.47964 15.2419 2.76118C14.5235 2.04272 13.3375 1.65156 11.4016 1.65156H6.60156C4.66567 1.65156 3.47964 2.04272 2.76118 2.76118Z" fill="#3B424B"/>
<path fill-rule="evenodd" clip-rule="evenodd" d="M4.39963 12.6313C5.6065 11.8273 7.23581 11.3516 9.00156 11.3516C10.7673 11.3516 12.3966 11.8273 13.6035 12.6313C14.8059 13.4323 15.6516 14.6108 15.6516 16.0016C15.6516 16.3605 15.3605 16.6516 15.0016 16.6516C14.6426 16.6516 14.3516 16.3605 14.3516 16.0016C14.3516 15.1809 13.8527 14.3594 12.8827 13.7132C11.9173 13.0701 10.5466 12.6516 9.00156 12.6516C7.45649 12.6516 6.0858 13.0701 5.12038 13.7132C4.15046 14.3594 3.65156 15.1809 3.65156 16.0016C3.65156 16.3605 3.36055 16.6516 3.00156 16.6516C2.64258 16.6516 2.35156 16.3605 2.35156 16.0016C2.35156 14.6108 3.19725 13.4323 4.39963 12.6313Z" fill="#3B424B"/>
</g>
</g>
</svg>
