<svg width="18" height="18" viewBox="0 0 18 18" fill="none" xmlns="http://www.w3.org/2000/svg">
<g id="ic_18_movement">
<g id="Group 237656">
<path id="Vector" d="M6.5 5.5C6.79667 5.5 7.08668 5.41203 7.33336 5.2472C7.58003 5.08238 7.77229 4.84811 7.88582 4.57402C7.99935 4.29994 8.02906 3.99834 7.97118 3.70736C7.9133 3.41639 7.77044 3.14912 7.56066 2.93934C7.35088 2.72956 7.08361 2.5867 6.79264 2.52882C6.50167 2.47094 6.20007 2.50065 5.92598 2.61418C5.65189 2.72771 5.41762 2.91997 5.2528 3.16664C5.08798 3.41332 5 3.70333 5 4C5 4.39782 5.15804 4.77936 5.43934 5.06066C5.72065 5.34196 6.10218 5.5 6.5 5.5ZM6.5 12.5C6.20333 12.5 5.91332 12.588 5.66665 12.7528C5.41997 12.9176 5.22771 13.1519 5.11418 13.426C5.00065 13.7001 4.97094 14.0017 5.02882 14.2926C5.0867 14.5836 5.22956 14.8509 5.43934 15.0607C5.64912 15.2704 5.91639 15.4133 6.20736 15.4712C6.49834 15.5291 6.79994 15.4993 7.07402 15.3858C7.34811 15.2723 7.58238 15.08 7.7472 14.8334C7.91203 14.5867 8 14.2967 8 14C8 13.6022 7.84196 13.2206 7.56066 12.9393C7.27936 12.658 6.89782 12.5 6.5 12.5ZM6.5 7.5C6.20333 7.5 5.91332 7.58797 5.66665 7.7528C5.41997 7.91762 5.22771 8.15189 5.11418 8.42597C5.00065 8.70006 4.97094 9.00166 5.02882 9.29263C5.0867 9.58361 5.22956 9.85088 5.43934 10.0607C5.64912 10.2704 5.91639 10.4133 6.20736 10.4712C6.49834 10.5291 6.79994 10.4993 7.07402 10.3858C7.34811 10.2723 7.58238 10.08 7.7472 9.83335C7.91203 9.58668 8 9.29667 8 9C8 8.60217 7.84196 8.22064 7.56066 7.93934C7.27936 7.65804 6.89782 7.5 6.5 7.5Z" fill="#ADB5BD"/>
<path id="Vector_2" d="M11.5 5.5C11.7967 5.5 12.0867 5.41203 12.3334 5.2472C12.58 5.08238 12.7723 4.84811 12.8858 4.57402C12.9994 4.29994 13.0291 3.99834 12.9712 3.70736C12.9133 3.41639 12.7704 3.14912 12.5607 2.93934C12.3509 2.72956 12.0836 2.5867 11.7926 2.52882C11.5017 2.47094 11.2001 2.50065 10.926 2.61418C10.6519 2.72771 10.4176 2.91997 10.2528 3.16664C10.088 3.41332 10 3.70333 10 4C10 4.39782 10.158 4.77936 10.4393 5.06066C10.7206 5.34196 11.1022 5.5 11.5 5.5ZM11.5 12.5C11.2033 12.5 10.9133 12.588 10.6666 12.7528C10.42 12.9176 10.2277 13.1519 10.1142 13.426C10.0006 13.7001 9.97094 14.0017 10.0288 14.2926C10.0867 14.5836 10.2296 14.8509 10.4393 15.0607C10.6491 15.2704 10.9164 15.4133 11.2074 15.4712C11.4983 15.5291 11.7999 15.4993 12.074 15.3858C12.3481 15.2723 12.5824 15.08 12.7472 14.8334C12.912 14.5867 13 14.2967 13 14C13 13.6022 12.842 13.2206 12.5607 12.9393C12.2794 12.658 11.8978 12.5 11.5 12.5ZM11.5 7.5C11.2033 7.5 10.9133 7.58797 10.6666 7.7528C10.42 7.91762 10.2277 8.15189 10.1142 8.42597C10.0006 8.70006 9.97094 9.00166 10.0288 9.29263C10.0867 9.58361 10.2296 9.85088 10.4393 10.0607C10.6491 10.2704 10.9164 10.4133 11.2074 10.4712C11.4983 10.5291 11.7999 10.4993 12.074 10.3858C12.3481 10.2723 12.5824 10.08 12.7472 9.83335C12.912 9.58668 13 9.29667 13 9C13 8.60217 12.842 8.22064 12.5607 7.93934C12.2794 7.65804 11.8978 7.5 11.5 7.5Z" fill="#ADB5BD"/>
</g>
</g>
</svg>
