<svg width="18" height="18" viewBox="0 0 18 18" fill="none" xmlns="http://www.w3.org/2000/svg">
<g id="ic_18_edit">
<g id="Edit Square">
<path id="Edit Square_2" fill-rule="evenodd" clip-rule="evenodd" d="M4.69624 10.1474L10.1809 4.67179C11.0791 3.77607 12.5348 3.77607 13.4329 4.67179L14.3263 5.56368C15.2246 6.46045 15.2246 7.9149 14.3263 8.81071L8.81541 14.3125C8.41338 14.7138 7.86821 14.9394 7.29965 14.9394H4.55043C4.24108 14.9394 3.99248 14.685 4.00017 14.3762L4.06917 11.6065C4.083 11.058 4.30741 10.5356 4.69624 10.1474ZM13.5479 6.34081L12.6549 5.44934C12.1866 4.98226 11.4273 4.98226 10.9591 5.44913L10.5073 5.90022L13.096 8.48465L13.5481 8.03336C14.0162 7.56658 14.0162 6.80831 13.5479 6.34081ZM12.3176 9.26179L9.72889 6.67735L5.47466 10.9245C5.28555 11.1133 5.1764 11.3674 5.16968 11.634L5.11422 13.8397L7.29965 13.8404C7.5416 13.8404 7.77487 13.7564 7.96047 13.6045L8.03698 13.5353L12.3176 9.26179Z" fill="white"/>
</g>
</g>
</svg>
