<svg width="18" height="18" viewBox="0 0 18 18" fill="none" xmlns="http://www.w3.org/2000/svg">
<g id="ic_18_delete">
<g id="Delete">
<path id="Vector (Stroke)" fill-rule="evenodd" clip-rule="evenodd" d="M3.99844 5.39844C4.32981 5.39844 4.59844 5.66707 4.59844 5.99844V14.0091C4.59844 14.7493 5.237 15.3984 6.08688 15.3984H11.91C12.7599 15.3984 13.3984 14.7493 13.3984 14.0091V5.99844C13.3984 5.66707 13.6671 5.39844 13.9984 5.39844C14.3298 5.39844 14.5984 5.66707 14.5984 5.99844V14.0091C14.5984 15.4663 13.3669 16.5984 11.91 16.5984H6.08688C4.62993 16.5984 3.39844 15.4663 3.39844 14.0091V5.99844C3.39844 5.66707 3.66707 5.39844 3.99844 5.39844Z" fill="#8D969E"/>
<path id="Vector (Stroke)_2" fill-rule="evenodd" clip-rule="evenodd" d="M7.49844 8.39844C7.82981 8.39844 8.09844 8.66707 8.09844 8.99844V12.9984C8.09844 13.3298 7.82981 13.5984 7.49844 13.5984C7.16707 13.5984 6.89844 13.3298 6.89844 12.9984V8.99844C6.89844 8.66707 7.16707 8.39844 7.49844 8.39844Z" fill="#8D969E"/>
<path id="Vector (Stroke)_3" fill-rule="evenodd" clip-rule="evenodd" d="M10.4984 8.39844C10.8298 8.39844 11.0984 8.66707 11.0984 8.99844V12.9984C11.0984 13.3298 10.8298 13.5984 10.4984 13.5984C10.1671 13.5984 9.89844 13.3298 9.89844 12.9984V8.99844C9.89844 8.66707 10.1671 8.39844 10.4984 8.39844Z" fill="#8D969E"/>
<path id="Rectangle 1142 (Stroke)" fill-rule="evenodd" clip-rule="evenodd" d="M2.39844 4.99844C2.39844 4.11478 3.11478 3.39844 3.99844 3.39844H13.9984C14.8821 3.39844 15.5984 4.11478 15.5984 4.99844C15.5984 5.88209 14.8821 6.59844 13.9984 6.59844H3.99844C3.11478 6.59844 2.39844 5.88209 2.39844 4.99844ZM3.99844 4.59844C3.77752 4.59844 3.59844 4.77752 3.59844 4.99844C3.59844 5.21935 3.77752 5.39844 3.99844 5.39844H13.9984C14.2194 5.39844 14.3984 5.21935 14.3984 4.99844C14.3984 4.77752 14.2194 4.59844 13.9984 4.59844H3.99844Z" fill="#8D969E"/>
<path id="Vector (Stroke)_4" fill-rule="evenodd" clip-rule="evenodd" d="M8.33177 2.59844C7.92675 2.59844 7.59844 2.92675 7.59844 3.33177V3.99844C7.59844 4.32981 7.32981 4.59844 6.99844 4.59844C6.66707 4.59844 6.39844 4.32981 6.39844 3.99844V3.33177C6.39844 2.26401 7.26401 1.39844 8.33177 1.39844H9.6651C10.7329 1.39844 11.5984 2.26401 11.5984 3.33177V3.99844C11.5984 4.32981 11.3298 4.59844 10.9984 4.59844C10.6671 4.59844 10.3984 4.32981 10.3984 3.99844V3.33177C10.3984 2.92675 10.0701 2.59844 9.6651 2.59844H8.33177Z" fill="#8D969E"/>
</g>
</g>
</svg>
