<svg width="18" height="18" viewBox="0 0 18 18" fill="none" xmlns="http://www.w3.org/2000/svg">
<g id="ic_18_message">
<g id="message-text">
<path id="Vector (Stroke)" fill-rule="evenodd" clip-rule="evenodd" d="M15.9053 1.99311C14.9651 1.05285 13.6156 0.648438 12 0.648438H6C4.38439 0.648438 3.03493 1.05285 2.09467 1.99311C1.15441 2.93337 0.75 4.28283 0.75 5.89844V11.8984C0.75 13.514 1.15441 14.8635 2.09467 15.8038C3.03493 16.744 4.38439 17.1484 6 17.1484H15.75C16.5767 17.1484 17.25 16.4752 17.25 15.6484V5.89844C17.25 4.28283 16.8456 2.93337 15.9053 1.99311ZM14.8447 3.05377C15.4044 3.61351 15.75 4.51405 15.75 5.89844V15.6484H6C4.61561 15.6484 3.71507 15.3028 3.15533 14.7431C2.59559 14.1834 2.25 13.2828 2.25 11.8984V5.89844C2.25 4.51405 2.59559 3.61351 3.15533 3.05377C3.71507 2.49403 4.61561 2.14844 6 2.14844H12C13.3844 2.14844 14.2849 2.49403 14.8447 3.05377Z" fill="#3B424B"/>
<g id="Group">
<path id="Vector (Stroke)_2" fill-rule="evenodd" clip-rule="evenodd" d="M4.5 7.02344C4.5 6.60922 4.83579 6.27344 5.25 6.27344H12.75C13.1642 6.27344 13.5 6.60922 13.5 7.02344C13.5 7.43765 13.1642 7.77344 12.75 7.77344H5.25C4.83579 7.77344 4.5 7.43765 4.5 7.02344Z" fill="#3B424B"/>
<path id="Vector (Stroke)_3" fill-rule="evenodd" clip-rule="evenodd" d="M4.5 10.7734C4.5 10.3592 4.83579 10.0234 5.25 10.0234H10.5C10.9142 10.0234 11.25 10.3592 11.25 10.7734C11.25 11.1877 10.9142 11.5234 10.5 11.5234H5.25C4.83579 11.5234 4.5 11.1877 4.5 10.7734Z" fill="#3B424B"/>
</g>
</g>
</g>
</svg>
