<svg width="18" height="18" viewBox="0 0 18 18" fill="none" xmlns="http://www.w3.org/2000/svg">
<g id="ic_18_group">
<g id="Union">
<path fill-rule="evenodd" clip-rule="evenodd" d="M6.75187 0.75C4.49156 0.75 2.67188 2.57939 2.67188 4.83C2.67188 7.03337 4.40897 8.82846 6.59918 8.90208C6.63024 8.90312 6.66133 8.90223 6.69228 8.89942C6.73197 8.89581 6.77402 8.89646 6.79725 8.89878C6.83041 8.90209 6.86376 8.9032 6.89707 8.90208C9.08783 8.82844 10.8227 7.03352 10.8319 4.83313L10.8319 4.83C10.8319 2.57829 9.00359 0.75 6.75187 0.75ZM4.17188 4.83C4.17188 3.40561 5.32219 2.25 6.75187 2.25C8.17465 2.25 9.33105 3.40589 9.33187 4.82847C9.32528 6.21378 8.24663 7.33465 6.88671 7.40127C6.79579 7.39524 6.70119 7.39556 6.61113 7.40135C5.24944 7.33549 4.17188 6.21363 4.17188 4.83Z" fill="#8D969E"/>
<path d="M12.3085 2.25C11.8943 2.25 11.5585 2.58579 11.5585 3C11.5585 3.41421 11.8943 3.75 12.3085 3.75C13.3479 3.75 14.1835 4.59032 14.1835 5.625C14.1835 6.62191 13.4035 7.43829 12.4227 7.49832C12.3228 7.49115 12.2229 7.49406 12.1282 7.50459C11.7165 7.55033 11.4198 7.92114 11.4656 8.33282C11.5113 8.7445 11.8821 9.04115 12.2938 8.99541C12.3006 8.99466 12.3067 8.99438 12.3113 8.99438L12.3149 8.99444C12.3544 8.99928 12.3943 9.00097 12.4341 8.99948C14.2374 8.93197 15.6835 7.44795 15.6835 5.625C15.6835 3.76468 14.1791 2.25 12.3085 2.25Z" fill="#8D969E"/>
<path fill-rule="evenodd" clip-rule="evenodd" d="M6.87844 9.14062C8.35265 9.14062 9.86556 9.51005 11.0426 10.2959C12.1063 11.0038 12.7378 12.0128 12.7378 13.1184C12.7378 14.2238 12.1066 15.2343 11.0438 15.9457C9.86331 16.7356 8.34815 17.1075 6.87281 17.1075C5.39782 17.1075 3.88316 16.7359 2.70281 15.9464C1.63923 15.2385 1.00781 14.2296 1.00781 13.1241C1.00781 12.0187 1.639 11.0082 2.70185 10.2968L2.7046 10.2949C3.88804 9.51025 5.40375 9.14062 6.87844 9.14062ZM3.53492 11.5441C2.78379 12.0475 2.50781 12.6341 2.50781 13.1241C2.50781 13.6138 2.78357 14.1985 3.53449 14.6981L3.53613 14.6992C4.41817 15.2893 5.62565 15.6075 6.87281 15.6075C8.11991 15.6075 9.32733 15.2894 10.2093 14.6993C10.9615 14.1957 11.2378 13.6087 11.2378 13.1184C11.2378 12.6287 10.9621 12.044 10.2111 11.5444L10.21 11.5437C9.33208 10.9573 8.12649 10.6406 6.87844 10.6406C5.63128 10.6406 4.42137 10.9569 3.53492 11.5441Z" fill="#8D969E"/>
<path d="M13.9453 9.76851C13.5413 9.67745 13.1399 9.9312 13.0488 10.3353C12.9578 10.7394 13.2115 11.1408 13.6156 11.2318C14.0676 11.3337 14.4644 11.5057 14.7728 11.7412L14.778 11.7452C15.2003 12.0619 15.3555 12.4321 15.3555 12.7464C15.3555 13.0607 15.2003 13.4309 14.778 13.7477L14.7712 13.7528C14.4533 13.9969 14.0513 14.173 13.605 14.2659C13.1995 14.3504 12.9392 14.7476 13.0237 15.1531C13.1082 15.5586 13.5054 15.8189 13.9109 15.7344C14.5433 15.6027 15.1599 15.3446 15.6814 14.9451C16.427 14.3845 16.8555 13.5933 16.8555 12.7464C16.8555 11.8992 16.4267 11.1078 15.6806 10.5471C15.1645 10.1538 14.5573 9.90641 13.9453 9.76851Z" fill="#8D969E"/>
</g>
</g>
</svg>
