<svg width="32" height="32" viewBox="0 0 32 32" fill="none" xmlns="http://www.w3.org/2000/svg">
<g id="ic_18_unlock">
<g id="User Interface / Edit">
<path id="Vector" d="M7.71181 23.1105H12.737C12.893 23.1114 13.0476 23.0815 13.192 23.0225C13.3364 22.9635 13.4677 22.8766 13.5785 22.7668L21.78 14.5534L25.1459 11.2586C25.257 11.1484 25.3451 11.0173 25.4053 10.8729C25.4655 10.7285 25.4965 10.5736 25.4965 10.4171C25.4965 10.2607 25.4655 10.1058 25.4053 9.96133C25.3451 9.81691 25.257 9.68582 25.1459 9.57565L20.1207 4.4912C20.0105 4.38012 19.8794 4.29194 19.735 4.23177C19.5906 4.1716 19.4357 4.14062 19.2792 4.14062C19.1228 4.14062 18.9678 4.1716 18.8234 4.23177C18.679 4.29194 18.5479 4.38012 18.4377 4.4912L15.0955 7.84528L6.87032 16.0586C6.76048 16.1694 6.67358 16.3007 6.61459 16.4451C6.55561 16.5895 6.52572 16.7441 6.52662 16.9001V21.9253C6.52662 22.2396 6.65149 22.5411 6.87375 22.7633C7.09602 22.9856 7.39747 23.1105 7.71181 23.1105ZM19.2792 7.00379L22.6333 10.3579L20.9503 12.0408L17.5962 8.68676L19.2792 7.00379ZM8.89699 17.386L15.9251 10.3579L19.2792 13.7119L12.2511 20.7401H8.89699V17.386ZM26.6748 25.4808H5.34144C5.0271 25.4808 4.72565 25.6057 4.50338 25.828C4.28112 26.0502 4.15625 26.3517 4.15625 26.666C4.15625 26.9803 4.28112 27.2818 4.50338 27.5041C4.72565 27.7263 5.0271 27.8512 5.34144 27.8512H26.6748C26.9891 27.8512 27.2906 27.7263 27.5128 27.5041C27.7351 27.2818 27.86 26.9803 27.86 26.666C27.86 26.3517 27.7351 26.0502 27.5128 25.828C27.2906 25.6057 26.9891 25.4808 26.6748 25.4808Z" fill="#ADB5BD"/>
</g>
</g>
</svg>
