<svg width="24" height="24" viewBox="0 0 24 24" fill="none" xmlns="http://www.w3.org/2000/svg">
<g id="ic_24_talk">
<path id="Vector" d="M9.79209 9.3125L9.05469 11.3944H10.5523L9.81602 9.31476C9.80747 9.31532 9.80063 9.3125 9.79209 9.3125Z" fill="white"/>
<path id="Vector_2" d="M11.9983 2C5.92302 2 1 5.85259 1 10.6052C1 13.6988 3.08683 16.4095 6.2182 17.9264C5.99026 18.7767 5.38507 21.0064 5.26426 21.4829C5.11553 22.075 5.48365 22.0671 5.7247 21.9075C5.9139 21.7829 8.73926 19.8825 9.95819 19.0621C10.6342 19.1612 11.3166 19.2109 12 19.2109C18.0753 19.2109 22.9983 15.3572 22.9983 10.6052C22.9983 5.85316 18.0736 2 11.9983 2ZM6.58462 12.9668C6.58432 13.1067 6.52813 13.2407 6.4283 13.3397C6.32848 13.4387 6.19313 13.4946 6.05181 13.4952H5.93784C5.79641 13.4946 5.66094 13.4387 5.56093 13.3398C5.46092 13.2408 5.40447 13.1068 5.40387 12.9668V9.15369H4.35476C4.20967 9.15369 4.07053 9.09666 3.96793 8.99514C3.86534 8.89361 3.8077 8.75592 3.8077 8.61234C3.8077 8.46877 3.86534 8.33108 3.96793 8.22955C4.07053 8.12803 4.20967 8.07099 4.35476 8.07099H7.57162C7.71671 8.07099 7.85586 8.12803 7.95845 8.22955C8.06105 8.33108 8.11869 8.46877 8.11869 8.61234C8.11869 8.75592 8.06105 8.89361 7.95845 8.99514C7.85586 9.09666 7.71671 9.15369 7.57162 9.15369H6.58405L6.58462 12.9668ZM11.8507 13.467C11.7176 13.5132 11.5715 13.5052 11.4443 13.4448C11.3172 13.3845 11.2194 13.2766 11.1726 13.145L10.9002 12.3747H8.70507L8.43268 13.1433C8.41363 13.2132 8.38022 13.2784 8.33454 13.3349C8.28886 13.3914 8.2319 13.438 8.1672 13.4717C8.10251 13.5055 8.03147 13.5256 7.95854 13.531C7.88562 13.5363 7.81236 13.5267 7.74336 13.5027C7.67435 13.4788 7.61108 13.441 7.5575 13.3918C7.50393 13.3425 7.46119 13.2828 7.43197 13.2165C7.40275 13.1502 7.38767 13.0786 7.38767 13.0062C7.38768 12.9339 7.40277 12.8623 7.43201 12.796L9.00881 8.61234C9.01749 8.58792 9.02757 8.56401 9.03901 8.54073C9.1034 8.23114 9.42708 7.9943 9.81858 7.9943C10.1713 7.9943 10.4671 8.18716 10.5697 8.45163L10.5748 8.45614L12.1784 12.7982C12.2242 12.93 12.2154 13.0743 12.1539 13.1997C12.0923 13.3251 11.9837 13.4212 11.8507 13.467ZM15.3029 13.4597H13.1164C13.0511 13.4597 12.9864 13.4471 12.9261 13.4224C12.8658 13.3977 12.811 13.3615 12.7648 13.3158C12.7187 13.2701 12.6821 13.2159 12.6571 13.1562C12.6322 13.0965 12.6194 13.0325 12.6194 12.9679C12.6195 12.9365 12.6227 12.9051 12.6291 12.8743C12.6233 12.8433 12.62 12.8118 12.6194 12.7802V8.58246C12.617 8.5038 12.6305 8.42545 12.6592 8.35207C12.6879 8.27868 12.7313 8.21175 12.7866 8.15525C12.842 8.09875 12.9082 8.05383 12.9815 8.02315C13.0547 7.99248 13.1334 7.97667 13.2129 7.97667C13.2925 7.97667 13.3712 7.99248 13.4444 8.02315C13.5177 8.05383 13.5839 8.09875 13.6393 8.15525C13.6946 8.21175 13.738 8.27868 13.7667 8.35207C13.7954 8.42545 13.8089 8.5038 13.8065 8.58246V12.4768H15.3023C15.4311 12.4811 15.5532 12.5348 15.6428 12.6265C15.7324 12.7182 15.7824 12.8407 15.7824 12.9682C15.7824 13.0958 15.7324 13.2183 15.6428 13.31C15.5532 13.4017 15.4317 13.4553 15.3029 13.4597ZM19.9758 13.3909C19.8635 13.474 19.7224 13.5097 19.5836 13.4902C19.4447 13.4706 19.3193 13.3974 19.2349 13.2865L17.6581 11.239L17.3191 11.574V12.9093C17.3143 13.0619 17.2497 13.2067 17.1389 13.313C17.0281 13.4192 16.8799 13.4787 16.7256 13.4787C16.5713 13.4787 16.423 13.4192 16.3122 13.313C16.2015 13.2067 16.1368 13.0619 16.1321 12.9093V8.58246C16.1296 8.5038 16.1431 8.42545 16.1718 8.35207C16.2006 8.27868 16.2439 8.21175 16.2992 8.15525C16.3546 8.09875 16.4208 8.05383 16.4941 8.02315C16.5673 7.99248 16.646 7.97667 16.7256 7.97667C16.8051 7.97667 16.8838 7.99248 16.957 8.02315C17.0303 8.05383 17.0965 8.09875 17.1519 8.15525C17.2072 8.21175 17.2506 8.27868 17.2793 8.35207C17.308 8.42545 17.3215 8.5038 17.3191 8.58246V10.1123L19.1836 8.26723C19.2819 8.17002 19.4151 8.11541 19.5541 8.11541C19.693 8.11541 19.8262 8.17002 19.9245 8.26723C20.0227 8.36445 20.0779 8.49629 20.0779 8.63377C20.0779 8.77125 20.0227 8.9031 19.9245 9.00031L18.4183 10.4913L20.0829 12.6555C20.1248 12.7107 20.1552 12.7735 20.1725 12.8403C20.1899 12.9071 20.1937 12.9767 20.1839 13.0449C20.174 13.1132 20.1507 13.1789 20.1152 13.2383C20.0797 13.2976 20.0327 13.3495 19.9769 13.3909H19.9758Z" fill="white"/>
</g>
</svg>
