<svg width="24" height="24" viewBox="0 0 24 24" fill="none" xmlns="http://www.w3.org/2000/svg">
<path fill-rule="evenodd" clip-rule="evenodd" d="M6.35156 11.0016C6.35156 10.6426 6.64258 10.3516 7.00156 10.3516H13.0016C13.3605 10.3516 13.6516 10.6426 13.6516 11.0016C13.6516 11.3605 13.3605 11.6516 13.0016 11.6516H7.00156C6.64258 11.6516 6.35156 11.3605 6.35156 11.0016Z" fill="#099A96"/>
<path fill-rule="evenodd" clip-rule="evenodd" d="M6.40772 4.65156C4.82637 4.65156 3.65156 5.80514 3.65156 7.10987V11.0016C3.65156 11.3605 3.36055 11.6516 3.00156 11.6516C2.64258 11.6516 2.35156 11.3605 2.35156 11.0016V7.10987C2.35156 4.97777 4.22292 3.35156 6.40772 3.35156H11.5954C12.6538 3.35156 13.6542 3.6516 14.4053 4.2394C15.1687 4.83691 15.6516 5.71813 15.6516 6.78977C15.6516 7.14875 15.3605 7.43977 15.0016 7.43977C14.6426 7.43977 14.3516 7.14875 14.3516 6.78977C14.3516 6.14299 14.0729 5.63011 13.604 5.26312C13.1227 4.88642 12.4201 4.65156 11.5954 4.65156H6.40772Z" fill="#099A96"/>
<path fill-rule="evenodd" clip-rule="evenodd" d="M6.55712 7.65156C4.93605 7.65156 3.65156 8.9273 3.65156 10.4682V16.5349C3.65156 18.0758 4.93605 19.3516 6.55712 19.3516H15.446C17.0671 19.3516 18.3516 18.0758 18.3516 16.5349V15.9282H18.1749C17.0941 15.9282 15.9709 15.2796 15.6549 14.1336L15.654 14.1302C15.4124 13.2351 15.7013 12.3523 16.3094 11.7779C16.7621 11.3287 17.3787 11.0749 18.0415 11.0749H18.3516V10.4682C18.3516 8.93596 17.0582 7.65156 15.446 7.65156H6.55712ZM2.35156 10.4682C2.35156 8.1785 4.2493 6.35156 6.55712 6.35156H15.446C17.7449 6.35156 19.6516 8.18716 19.6516 10.4682V11.7249C19.6516 12.0838 19.3605 12.3749 19.0016 12.3749H18.0415C17.7126 12.3749 17.4259 12.4995 17.2215 12.7042C17.2163 12.7094 17.2111 12.7144 17.2057 12.7194C16.9307 12.9768 16.7966 13.3721 16.9086 13.7897C17.0379 14.255 17.5498 14.6282 18.1749 14.6282H19.0016C19.3605 14.6282 19.6516 14.9192 19.6516 15.2782V16.5349C19.6516 18.8246 17.7538 20.6516 15.446 20.6516H6.55712C4.2493 20.6516 2.35156 18.8246 2.35156 16.5349V10.4682Z" fill="#099A96"/>
<path fill-rule="evenodd" clip-rule="evenodd" d="M17.9991 12.6516C17.5754 12.6516 17.2233 12.7772 16.9922 12.9554L16.9795 12.9649C16.7088 13.1632 16.6338 13.3824 16.6553 13.5515L16.6566 13.5616C16.6721 13.7013 16.7742 13.8904 17.0493 14.0648C17.3202 14.2364 17.7019 14.3516 18.1161 14.3516H19.9975C20.1487 14.3516 20.2604 14.3049 20.3194 14.2609C20.3361 14.2484 20.346 14.2387 20.3516 14.2322V12.7709C20.346 12.7644 20.3361 12.7547 20.3194 12.7422C20.2604 12.6982 20.1487 12.6516 19.9975 12.6516H17.9991ZM16.2048 11.921C16.6942 11.5462 17.3338 11.3516 17.9991 11.3516H19.9975C20.4019 11.3516 20.7923 11.4732 21.0964 11.7C21.3999 11.9263 21.6516 12.2899 21.6516 12.7479V14.2552C21.6516 14.7132 21.3999 15.0769 21.0964 15.3032C20.7923 15.5299 20.4019 15.6516 19.9975 15.6516H18.1161C17.4774 15.6516 16.8502 15.4777 16.3534 15.1628C15.8621 14.8514 15.4389 14.3581 15.365 13.7101C15.2722 12.9623 15.6611 12.3221 16.2048 11.921Z" fill="#099A96"/>
</svg>
