<svg width="24" height="24" viewBox="0 0 24 24" fill="none" xmlns="http://www.w3.org/2000/svg">
<path fill-rule="evenodd" clip-rule="evenodd" d="M7.74219 16.2188C7.74219 15.8045 8.07797 15.4688 8.49219 15.4688H15.7122C16.1264 15.4688 16.4622 15.8045 16.4622 16.2188C16.4622 16.633 16.1264 16.9688 15.7122 16.9688H8.49219C8.07797 16.9688 7.74219 16.633 7.74219 16.2188Z" fill="#099A96"/>
<path fill-rule="evenodd" clip-rule="evenodd" d="M7.74219 12.0312C7.74219 11.617 8.07797 11.2812 8.49219 11.2812H15.7122C16.1264 11.2812 16.4622 11.617 16.4622 12.0312C16.4622 12.4455 16.1264 12.7812 15.7122 12.7812H8.49219C8.07797 12.7812 7.74219 12.4455 7.74219 12.0312Z" fill="#099A96"/>
<path fill-rule="evenodd" clip-rule="evenodd" d="M7.74219 7.85938C7.74219 7.44516 8.07797 7.10938 8.49219 7.10938H11.2472C11.6614 7.10938 11.9972 7.44516 11.9972 7.85938C11.9972 8.27359 11.6614 8.60938 11.2472 8.60938H8.49219C8.07797 8.60938 7.74219 8.27359 7.74219 7.85938Z" fill="#099A96"/>
<path fill-rule="evenodd" clip-rule="evenodd" d="M15.908 2C17.4684 2 18.8017 2.51495 19.7441 3.48761C20.6837 4.45737 21.165 5.80983 21.165 7.357V16.553C21.165 18.0929 20.6872 19.4393 19.7554 20.4075C18.8207 21.3785 17.498 21.8974 15.9496 21.907L15.945 21.907L8.25664 21.91C6.6962 21.91 5.36245 21.395 4.42028 20.4223C3.48095 19.4525 3 18.1001 3 16.553V7.357C3 5.81725 3.47746 4.47105 4.40912 3.50304C5.34357 2.53213 6.66606 2.01355 8.21438 2.00401L8.219 2.00399L15.908 2ZM15.9082 3.5C15.9081 3.5 15.9082 3.5 15.9082 3.5L8.22362 3.50399C8.22294 3.50399 8.22226 3.50399 8.22158 3.504C7.01091 3.51189 6.09959 3.90972 5.48988 4.54321C4.87704 5.17995 4.5 6.12675 4.5 7.357V16.553C4.5 17.7899 4.88005 18.741 5.49772 19.3787C6.11251 20.0134 7.03234 20.41 8.25579 20.41C8.25573 20.41 8.25586 20.41 8.25579 20.41L15.9404 20.407C15.941 20.407 15.9417 20.407 15.9423 20.407C17.1529 20.3991 18.0646 20.0011 18.6746 19.3673C19.2878 18.7302 19.665 17.7831 19.665 16.553V7.357C19.665 6.12017 19.2848 5.16913 18.6669 4.53139C18.0518 3.8966 17.1316 3.50007 15.9082 3.5Z" fill="#099A96"/>
</svg>
