<svg width="24" height="24" viewBox="0 0 24 24" fill="none" xmlns="http://www.w3.org/2000/svg">
<path fill-rule="evenodd" clip-rule="evenodd" d="M4.70153 4.70155C5.76382 3.63926 7.33733 3.25002 9.30646 3.25002H13.0968C13.511 3.25002 13.8468 3.58581 13.8468 4.00002C13.8468 4.41424 13.511 4.75002 13.0968 4.75002H9.30646C7.48527 4.75002 6.40554 5.11885 5.76219 5.76221C5.11883 6.40557 4.75 7.48529 4.75 9.30649V13.8549C4.75 15.6761 5.11883 16.7558 5.76219 17.3992C6.40554 18.0425 7.48527 18.4113 9.30646 18.4113C9.72068 18.4113 10.0565 18.7471 10.0565 19.1613C10.0565 19.5756 9.72068 19.9113 9.30646 19.9113C7.33733 19.9113 5.76382 19.5221 4.70153 18.4598C3.63923 17.3975 3.25 15.824 3.25 13.8549V9.30649C3.25 7.33735 3.63923 5.76384 4.70153 4.70155Z" fill="#099A96"/>
<path fill-rule="evenodd" clip-rule="evenodd" d="M19.1641 9.3125C19.5783 9.3125 19.9141 9.64829 19.9141 10.0625V12.3367C19.9141 12.7509 19.5783 13.0867 19.1641 13.0867C18.7498 13.0867 18.4141 12.7509 18.4141 12.3367V10.0625C18.4141 9.64829 18.7498 9.3125 19.1641 9.3125Z" fill="#099A96"/>
<path fill-rule="evenodd" clip-rule="evenodd" d="M12.8067 3.30711C13.087 3.19103 13.4096 3.25519 13.6241 3.46969L19.6886 9.53422C19.9031 9.74872 19.9673 10.0713 19.8512 10.3516C19.7351 10.6318 19.4616 10.8146 19.1583 10.8146H16.126C14.9474 10.8146 13.9229 10.6278 13.2267 9.93157C12.5305 9.23536 12.3438 8.21094 12.3438 7.03229V4.00002C12.3438 3.69668 12.5265 3.4232 12.8067 3.30711ZM13.8438 5.81068V7.03229C13.8438 8.12784 14.036 8.61954 14.2874 8.87091C14.5388 9.12228 15.0305 9.31455 16.126 9.31455H17.3476L13.8438 5.81068Z" fill="#099A96"/>
<path fill-rule="evenodd" clip-rule="evenodd" d="M18.7264 14.9225C18.4614 13.9991 17.9256 13.3208 17.2282 12.9114C16.4274 12.4414 15.4849 12.3677 14.6476 12.5872C13.8103 12.8067 13.0249 13.3334 12.5557 14.1348C12.1936 14.7534 12.0441 15.4943 12.1666 16.3058C10.1354 17.1847 10.4161 20.5652 13.0086 20.7528C13.0266 20.7541 13.0446 20.7547 13.0627 20.7547H17.7458C18.4888 20.7547 19.2244 20.48 19.7791 19.9739C21.5052 18.458 20.7942 15.5902 18.7264 14.9225ZM13.0342 17.6118C13.1325 17.6177 13.2337 17.6044 13.3323 17.5691C13.7223 17.4295 13.9252 17.0002 13.7856 16.6102C13.5156 15.8557 13.6175 15.2901 13.8502 14.8926C14.0933 14.4775 14.5239 14.1703 15.028 14.0381C15.5321 13.906 16.0562 13.9628 16.4689 14.205C16.8637 14.4368 17.228 14.8797 17.3598 15.672C17.4142 15.9995 17.6775 16.2522 18.007 16.2932C19.1901 16.4404 19.6883 18.0623 18.7857 18.85L18.7715 18.8627C18.5016 19.1106 18.1283 19.2547 17.7458 19.2547H13.0933C12.0932 19.1607 12.0735 17.7573 13.0342 17.6118Z" fill="#099A96"/>
</svg>
