<svg width="24" height="24" viewBox="0 0 24 24" fill="none" xmlns="http://www.w3.org/2000/svg">
<path fill-rule="evenodd" clip-rule="evenodd" d="M13.4285 9.15288C11.7172 8.16487 9.52905 8.7512 8.54104 10.4625C7.55304 12.1737 8.13937 14.3619 9.85064 15.35C11.5619 16.338 13.7501 15.7516 14.7381 14.0404C15.7261 12.3291 15.1398 10.1409 13.4285 9.15288ZM9.78046 11.1781C10.3733 10.1513 11.6862 9.79949 12.7129 10.3923C13.7397 10.9851 14.0915 12.298 13.4987 13.3248C12.9059 14.3515 11.593 14.7033 10.5662 14.1105C9.53945 13.5177 9.18766 12.2048 9.78046 11.1781Z" fill="#099A96"/>
<path fill-rule="evenodd" clip-rule="evenodd" d="M15.0175 4.29696C15.0011 3.0431 13.9865 1.99409 12.7016 2.00729L10.8053 2.00002C9.40706 1.99404 8.2726 3.13579 8.27304 4.52194C8.27425 5.2353 8.02851 5.54965 7.83492 5.66162C7.64123 5.77366 7.24747 5.83004 6.63172 5.47453C5.41975 4.77481 3.87041 5.20052 3.1779 6.39998L2.33829 7.85423C1.64578 9.05369 2.05177 10.6083 3.26374 11.308C3.87949 11.6635 4.02755 12.0327 4.02737 12.2565C4.02718 12.4801 3.87868 12.8496 3.26029 13.2053C2.05963 13.898 1.63744 15.4522 2.34175 16.6601L3.29598 18.2984C3.92706 19.4177 5.3428 19.7719 6.43685 19.1592L6.62575 19.0504C7.24427 18.6948 7.64017 18.7511 7.83497 18.8636C8.02883 18.9755 8.27377 19.2877 8.27158 19.9976L8.27158 20.0006L8.27178 20.2101L8.27189 20.2186C8.2883 21.4725 9.30285 22.5214 10.5878 22.5083L12.4841 22.5156C13.8833 22.5215 15.0102 21.3878 15.0164 19.997L15.0164 19.9926C15.0151 19.2793 15.2609 18.9659 15.4545 18.854C15.6482 18.7419 16.0419 18.6855 16.6577 19.041C17.8696 19.7408 19.419 19.3151 20.1115 18.1156L20.9511 16.6613C21.6508 15.4494 21.2251 13.9 20.0257 13.2075C19.4099 12.852 19.2619 12.4828 19.262 12.2591C19.2622 12.0354 19.4107 11.6659 20.0291 11.3103C21.2299 10.6175 21.6523 9.06344 20.9477 7.85545L19.9935 6.21729C19.3624 5.09787 17.9466 4.74367 16.8526 5.35639L16.6636 5.46515C16.0451 5.82076 15.6492 5.76445 15.4544 5.65198C15.2606 5.54005 15.0156 5.22783 15.0178 4.51799L15.0178 4.51493L15.0176 4.30547L15.0175 4.29696ZM12.7137 3.43839C13.1784 3.43231 13.578 3.81585 13.5864 4.31202L13.5867 4.51358L13.5867 4.51528C13.5839 5.53135 13.9478 6.4347 14.7389 6.8914C15.5294 7.3478 16.4956 7.21275 17.3777 6.70542L17.5551 6.60332C17.989 6.36254 18.5209 6.51688 18.7479 6.92238L19.7114 8.57654C20.0144 9.09599 19.8321 9.77147 19.3151 10.07C18.4329 10.5775 17.8316 11.3448 17.8309 12.2579C17.8301 13.1711 18.4303 13.939 19.3101 14.4469C19.8293 14.7467 20.0138 15.4226 19.7117 15.9458L18.8721 17.4C18.5723 17.9192 17.8965 18.1037 17.3733 17.8016C16.4934 17.2937 15.5284 17.1579 14.7379 17.6151C13.948 18.072 13.5841 18.9755 13.5852 19.9925C13.5815 20.6007 13.0895 21.0871 12.4896 21.0844L10.5878 21.077L10.5757 21.0772C10.111 21.0833 9.7114 20.6997 9.70298 20.2036L9.70273 20.002L9.70273 20.0006C9.70553 18.9844 9.34166 18.0809 8.55054 17.6242C7.76004 17.1678 6.79384 17.3028 5.91166 17.8102L5.73429 17.9123C5.30039 18.153 4.76854 17.9987 4.54146 17.5932L3.57796 15.939C3.275 15.4196 3.45727 14.7443 3.9741 14.4457C4.85641 13.9382 5.45778 13.1709 5.45852 12.2577C5.45926 11.3445 4.85913 10.5766 3.97932 10.0686C3.4561 9.76655 3.27795 9.089 3.57771 8.5698L4.41732 7.11556C4.71707 6.59636 5.39293 6.41187 5.91614 6.71395C6.79595 7.22191 7.76101 7.3577 8.5515 6.90046C9.34188 6.44328 9.70571 5.53904 9.7042 4.52138C9.70406 3.92429 10.1984 3.42849 10.7998 3.43117L12.7016 3.43855L12.7137 3.43839Z" fill="#099A96"/>
</svg>
