<svg width="24" height="24" viewBox="0 0 24 24" fill="none" xmlns="http://www.w3.org/2000/svg">
<g id="ic_24_back">
<path id="Union" fill-rule="evenodd" clip-rule="evenodd" d="M11.9028 3.26515C11.8194 3.18113 11.7203 3.11445 11.6111 3.06894C11.5018 3.02343 11.3847 3 11.2663 3C11.148 3 11.0308 3.02343 10.9216 3.06894C10.8124 3.11445 10.7132 3.18113 10.6299 3.26515L6.14796 7.74708C6.06395 7.83041 5.99726 7.92955 5.95175 8.03879C5.90624 8.14802 5.88281 8.26518 5.88281 8.38352C5.88281 8.50185 5.90624 8.61901 5.95175 8.72825C5.99726 8.83748 6.06395 8.93662 6.14796 9.01995L10.6299 13.5019C10.7132 13.5859 10.8124 13.6526 10.9216 13.6981C11.0308 13.7436 11.148 13.767 11.2663 13.767C11.3847 13.767 11.5018 13.7436 11.6111 13.6981C11.7203 13.6526 11.8194 13.5859 11.9028 13.5019C11.9868 13.4186 12.0535 13.3194 12.099 13.2102C12.1445 13.1009 12.1679 12.9838 12.1679 12.8654C12.1679 12.7471 12.1445 12.63 12.099 12.5207C12.0535 12.4115 11.9868 12.3123 11.9028 12.229L9.21418 9.54668H14.8463C17.3216 9.54668 19.3282 11.5533 19.3282 14.0286C19.3282 16.5039 17.3216 18.5105 14.8463 18.5105H6.77905V18.5118C6.28406 18.5119 5.88281 18.9132 5.88281 19.4082C5.88281 19.9033 6.28414 20.3046 6.7792 20.3046C6.79534 20.3046 6.81138 20.3042 6.82732 20.3033H14.8463C18.3117 20.3033 21.121 17.494 21.121 14.0286C21.121 10.5632 18.3117 7.75391 14.8463 7.75391H8.67938L11.9028 4.53802C11.9868 4.45469 12.0535 4.35555 12.099 4.24631C12.1445 4.13708 12.1679 4.01992 12.1679 3.90158C12.1679 3.78325 12.1445 3.66609 12.099 3.55685C12.0535 3.44762 11.9868 3.34848 11.9028 3.26515Z" fill="#16191C"/>
</g>
</svg>
