<svg width="24" height="24" viewBox="0 0 24 24" fill="none" xmlns="http://www.w3.org/2000/svg">
<g id="ic_24_&#8;textcolor">
<g id="Vector">
<path d="M19.2 17.381H4.8C3.81 17.381 3 18.1952 3 19.1905C3 20.1857 3.81 21 4.8 21H19.2C20.19 21 21 20.1857 21 19.1905C21 18.1952 20.19 17.381 19.2 17.381Z" fill="black"/>
<path d="M7.599 14.6667C8.031 14.6667 8.418 14.3952 8.553 13.9881L9.462 11.4276H14.547L15.438 13.979C15.582 14.3952 15.969 14.6667 16.401 14.6667C17.112 14.6667 17.598 13.9519 17.346 13.2914L13.521 3.05857C13.287 2.42524 12.675 2 12 2C11.325 2 10.713 2.42524 10.479 3.05857L6.654 13.2914C6.402 13.9519 6.897 14.6667 7.599 14.6667ZM11.946 4.35238H12.054L13.881 9.59095H10.119L11.946 4.35238Z" fill="black"/>
</g>
</g>
</svg>
