<svg width="24" height="24" viewBox="0 0 24 24" fill="none" xmlns="http://www.w3.org/2000/svg">
<g id="ic_24_unlock">
<g id="vuesax/linear/unlock">
<g id="unlock">
<path id="Vector (Stroke)" fill-rule="evenodd" clip-rule="evenodd" d="M4.38275 11.7187C3.98146 12.12 3.72969 12.9092 3.72969 14.749V16.5823C3.72969 18.4221 3.98146 19.2113 4.38275 19.6126C4.78404 20.0139 5.57326 20.2656 7.41302 20.2656H16.5797C18.4195 20.2656 19.2087 20.0139 19.61 19.6126C20.0113 19.2113 20.263 18.4221 20.263 16.5823V14.749C20.263 12.9092 20.0113 12.12 19.61 11.7187C19.2087 11.3174 18.4195 11.0656 16.5797 11.0656H7.41302C5.57326 11.0656 4.78404 11.3174 4.38275 11.7187ZM3.10996 10.4459C4.08366 9.47219 5.58612 9.26562 7.41302 9.26562H16.5797C18.4066 9.26562 19.909 9.47219 20.8827 10.4459C21.8565 11.4196 22.063 12.9221 22.063 14.749V16.5823C22.063 18.4092 21.8565 19.9116 20.8827 20.8854C19.909 21.8591 18.4066 22.0656 16.5797 22.0656H7.41302C5.58612 22.0656 4.08366 21.8591 3.10996 20.8854C2.13625 19.9116 1.92969 18.4092 1.92969 16.5823V14.749C1.92969 12.9221 2.13625 11.4196 3.10996 10.4459Z" fill="#ADB5BD"/>
<path id="Vector (Stroke)_2" fill-rule="evenodd" clip-rule="evenodd" d="M8.22589 5.00646C7.62328 5.75455 7.39375 6.86644 7.39375 8.32969V10.163C7.39375 10.6601 6.99081 11.063 6.49375 11.063C5.99669 11.063 5.59375 10.6601 5.59375 10.163V8.32969C5.59375 6.75876 5.82255 5.12066 6.82411 3.87729C7.85954 2.59188 9.54805 1.92969 11.9938 1.92969C14.0962 1.92969 15.7109 2.21807 16.8084 2.99004C17.9906 3.82163 18.3937 5.07387 18.3937 6.49766C18.3937 6.99471 17.9908 7.39766 17.4937 7.39766C16.9967 7.39766 16.5938 6.99471 16.5938 6.49766C16.5938 5.42144 16.3094 4.8397 15.7728 4.4623C15.1516 4.02529 14.0163 3.72969 11.9938 3.72969C9.85612 3.72969 8.79463 4.30041 8.22589 5.00646Z" fill="#ADB5BD"/>
<path id="Vector (Stroke)_3" fill-rule="evenodd" clip-rule="evenodd" d="M11.9964 14.2687C11.2278 14.2687 10.6047 14.8918 10.6047 15.6604C10.6047 16.429 11.2278 17.0521 11.9964 17.0521C12.765 17.0521 13.388 16.429 13.388 15.6604C13.388 14.8918 12.765 14.2687 11.9964 14.2687ZM8.80469 15.6604C8.80469 13.8977 10.2336 12.4688 11.9964 12.4688C13.7591 12.4688 15.188 13.8977 15.188 15.6604C15.188 17.4231 13.7591 18.8521 11.9964 18.8521C10.2336 18.8521 8.80469 17.4231 8.80469 15.6604Z" fill="#ADB5BD"/>
</g>
</g>
</g>
</svg>
