<svg width="24" height="24" viewBox="0 0 24 24" fill="none" xmlns="http://www.w3.org/2000/svg">
<path fill-rule="evenodd" clip-rule="evenodd" d="M9.64286 11C9.9979 11 10.2857 11.2686 10.2857 11.6V14.9515L10.9026 14.3757C11.1536 14.1414 11.5607 14.1414 11.8117 14.3757C12.0628 14.61 12.0628 14.9899 11.8117 15.2243L10.0974 16.8242C9.91357 16.9958 9.63707 17.0472 9.39685 16.9543C9.15663 16.8614 9 16.6427 9 16.4V11.6C9 11.2686 9.28782 11 9.64286 11Z" fill="#099A96"/>
<path fill-rule="evenodd" clip-rule="evenodd" d="M7.18829 14.1883C7.43934 13.9372 7.84637 13.9372 8.09743 14.1883L9.81171 15.9026C10.0628 16.1536 10.0628 16.5607 9.81171 16.8117C9.56066 17.0628 9.15363 17.0628 8.90257 16.8117L7.18829 15.0974C6.93724 14.8464 6.93724 14.4393 7.18829 14.1883Z" fill="#099A96"/>
<path fill-rule="evenodd" clip-rule="evenodd" d="M5.43237 5.43237C4.66588 6.19886 4.25581 7.45728 4.25581 9.48837V14.5116C4.25581 16.5427 4.66588 17.8011 5.43237 18.5676C6.19886 19.3341 7.45728 19.7442 9.48837 19.7442H14.5116C16.5427 19.7442 17.8011 19.3341 18.5676 18.5676C19.3341 17.8011 19.7442 16.5427 19.7442 14.5116V10.3256C19.7442 9.9788 20.0253 9.69767 20.3721 9.69767C20.7189 9.69767 21 9.9788 21 10.3256V14.5116C21 16.6666 20.5729 18.3384 19.4556 19.4556C18.3384 20.5729 16.6666 21 14.5116 21H9.48837C7.33342 21 5.6616 20.5729 4.54437 19.4556C3.42715 18.3384 3 16.6666 3 14.5116V9.48837C3 7.33342 3.42715 5.6616 4.54437 4.54437C5.6616 3.42715 7.33342 3 9.48837 3H13.6744C14.0212 3 14.3023 3.28112 14.3023 3.62791C14.3023 3.97469 14.0212 4.25581 13.6744 4.25581H9.48837C7.45728 4.25581 6.19886 4.66588 5.43237 5.43237Z" fill="#099A96"/>
<path fill-rule="evenodd" clip-rule="evenodd" d="M13.3899 3.04809C13.6259 2.95034 13.8975 3.00437 14.0782 3.185L20.815 9.92183C20.9956 10.1025 21.0497 10.3741 20.9519 10.6101C20.8541 10.8461 20.6239 11 20.3684 11H17C15.7018 11 14.6354 10.7918 13.9218 10.0782C13.2082 9.36456 13 8.29815 13 7.00001V3.6316C13 3.37615 13.1539 3.14585 13.3899 3.04809ZM14.2632 5.15636V7.00001C14.2632 8.22818 14.476 8.84598 14.815 9.18499C15.154 9.524 15.7718 9.73685 17 9.73685H18.8436L14.2632 5.15636Z" fill="#099A96"/>
</svg>
