<svg width="24" height="24" viewBox="0 0 24 24" fill="none" xmlns="http://www.w3.org/2000/svg">
<g id="ic_24_sample">
<g id="vuesax/linear/document-filter">
<g id="document-filter">
<path id="Vector (Stroke)" fill-rule="evenodd" clip-rule="evenodd" d="M8.52769 4.87928C8.46096 4.47047 8.07546 4.19318 7.66665 4.25991C7.30586 4.31881 6.91654 4.39317 6.56091 4.48419C6.22112 4.57116 5.85285 4.68767 5.56967 4.85037C3.8601 5.82621 3.25 7.66754 3.25 10.1317V14.6864C3.25 16.6562 3.6344 18.2301 4.68523 19.2937C5.73828 20.3595 7.29909 20.7501 9.25 20.7501H13.75C15.7009 20.7501 17.2617 20.3595 18.3148 19.2937C19.3656 18.2301 19.75 16.6562 19.75 14.6864V12.409C19.75 11.9948 19.4142 11.659 19 11.659C18.5858 11.659 18.25 11.9948 18.25 12.409V14.6864C18.25 16.512 17.8844 17.595 17.2477 18.2394C16.6133 18.8816 15.5491 19.2501 13.75 19.2501H9.25C7.45091 19.2501 6.38672 18.8816 5.75227 18.2394C5.11561 17.595 4.75 16.512 4.75 14.6864V10.1317C4.75 7.85962 5.30964 6.72553 6.31411 6.15261L6.31663 6.15116C6.41578 6.0941 6.62066 6.01725 6.93285 5.93735C7.22971 5.86136 7.57162 5.79528 7.90833 5.74032C8.31713 5.67358 8.59443 5.28808 8.52769 4.87928Z" fill="#3B424B"/>
</g>
</g>
<g id="Group">
<path id="Vector (Stroke)_2" fill-rule="evenodd" clip-rule="evenodd" d="M15.2 3.75C13.8469 3.75 12.75 4.84691 12.75 6.20001C12.75 7.5531 13.8469 8.64999 15.2 8.64999C16.5531 8.64999 17.65 7.5531 17.65 6.20001C17.65 4.84691 16.5531 3.75 15.2 3.75ZM11.25 6.20001C11.25 4.01849 13.0185 2.25 15.2 2.25C17.3815 2.25 19.15 4.01849 19.15 6.20001C19.15 8.38155 17.3815 10.15 15.2 10.15C13.0185 10.15 11.25 8.38155 11.25 6.20001Z" fill="#3B424B"/>
<path id="Vector (Stroke)_3" fill-rule="evenodd" clip-rule="evenodd" d="M17.4697 8.46967C17.7626 8.17678 18.2374 8.17678 18.5303 8.46967L19.5303 9.46967C19.8232 9.76256 19.8232 10.2374 19.5303 10.5303C19.2374 10.8232 18.7626 10.8232 18.4697 10.5303L17.4697 9.53033C17.1768 9.23744 17.1768 8.76256 17.4697 8.46967Z" fill="#3B424B"/>
</g>
</g>
</svg>
