<svg width="24" height="24" viewBox="0 0 24 24" fill="none" xmlns="http://www.w3.org/2000/svg">
<g id="ic_24_specialcharacters">
<path id="Vector (Stroke)" fill-rule="evenodd" clip-rule="evenodd" d="M5.91919 5.3719C7.5483 3.85272 9.73155 3 12 3C14.2816 3 16.4683 3.85123 18.0856 5.37635C19.7035 6.90204 20.6244 8.97935 20.6244 11.16C20.6244 13.248 19.8222 15.268 18.3826 16.8493L18.38 16.8523L17.6196 17.6818H19.8261C20.4744 17.6818 21 18.2008 21 18.8409C21 19.4811 20.4744 20 19.8261 20H14.974C14.5098 20 14.0892 19.7299 13.9009 19.311C13.7127 18.8921 13.7921 18.403 14.1036 18.0631L16.6365 15.2996C16.637 15.2991 16.6375 15.2986 16.6379 15.2981C17.7018 14.1288 18.2765 12.6569 18.2765 11.16C18.2765 9.63165 17.6322 8.15437 16.464 7.05279C15.2952 5.95064 13.694 5.31818 12 5.31818C10.3252 5.31818 8.72169 5.94831 7.53366 7.05501C6.36697 8.15636 5.72346 9.63268 5.72346 11.16C5.72346 12.6753 6.30015 14.1447 7.35903 15.2948L7.3608 15.2967L9.89644 18.0631C10.2079 18.403 10.2873 18.8921 10.0991 19.311C9.91082 19.7299 9.49023 20 9.02605 20H4.17391C3.52558 20 3 19.4811 3 18.8409C3 18.2008 3.52558 17.6818 4.17391 17.6818H6.38038L5.62178 16.8542C5.62141 16.8538 5.62104 16.8534 5.62066 16.853C4.1759 15.2832 3.37564 13.2606 3.37564 11.16C3.37564 8.97935 4.29652 6.90204 5.91444 5.37635L5.91918 5.37188L5.91919 5.3719Z" fill="#292D32"/>
</g>
</svg>
