<svg width="20" height="20" viewBox="0 0 20 20" fill="none" xmlns="http://www.w3.org/2000/svg">
<circle cx="10" cy="10" r="10" fill="#099A96"/>
<path d="M7.76479 13.2352C7.88087 13.3523 8.01898 13.4452 8.17115 13.5085C8.32332 13.5719 8.48653 13.6046 8.65138 13.6046C8.81623 13.6046 8.97944 13.5719 9.13161 13.5085C9.28378 13.4452 9.42189 13.3523 9.53797 13.2352L14.6328 8.14042C14.8679 7.90529 15 7.58637 15 7.25383C15 6.92129 14.8679 6.60238 14.6328 6.36724C14.3976 6.1321 14.0787 6 13.7462 6C13.4136 6 13.0947 6.1321 12.8596 6.36724L8.65138 10.5879L7.14043 9.06448C6.90529 8.82934 6.58637 8.69724 6.25383 8.69724C5.9213 8.69724 5.60238 8.82934 5.36724 9.06448C5.1321 9.29962 5 9.61854 5 9.95107C5 10.2836 5.1321 10.6025 5.36724 10.8377L7.76479 13.2352Z" fill="white"/>
</svg>
