<svg width="24" height="24" viewBox="0 0 24 24" fill="none" xmlns="http://www.w3.org/2000/svg">
<g id="ic_24_cost">
<g id="vuesax/linear/wallet-3">
<path id="Vector" d="M13 11H7" stroke="#3B424B" stroke-width="1.3" stroke-linecap="round" stroke-linejoin="round"/>
<path id="Vector_2" d="M3 11V7.10831C3 5.38989 4.52308 4 6.40616 4H11.5938C13.4769 4 15 5.06979 15 6.78821" stroke="#3B424B" stroke-width="1.3" stroke-linecap="round" stroke-linejoin="round"/>
<path id="Vector_3" d="M16.76 12.2433C16.3155 12.6593 16.1022 13.3006 16.28 13.9593C16.5022 14.7653 17.32 15.2767 18.1733 15.2767H19V16.5333C19 18.4487 17.4089 20 15.4444 20H6.55556C4.59111 20 3 18.4487 3 16.5333V10.4667C3 8.55133 4.59111 7 6.55556 7H15.4444C17.4 7 19 8.56 19 10.4667V11.7233H18.04C17.5422 11.7233 17.0889 11.914 16.76 12.2433Z" stroke="#3B424B" stroke-width="1.3" stroke-linecap="round" stroke-linejoin="round"/>
<path id="Vector_4" d="M21 12.7463V14.2537C21 14.6634 20.5516 15 19.9959 15H18.1145C17.0617 15 16.0966 14.422 16.0089 13.6317C15.9504 13.1708 16.1843 12.739 16.5938 12.439C16.9545 12.161 17.4516 12 17.9975 12H19.9959C20.5516 12 21 12.3366 21 12.7463Z" stroke="#3B424B" stroke-width="1.3" stroke-linecap="round" stroke-linejoin="round"/>
</g>
</g>
</svg>
