<svg width="24" height="24" viewBox="0 0 24 24" fill="none" xmlns="http://www.w3.org/2000/svg">
<g id="ic_24_unlock">
<g id="Icon/gray/24/unlock">
<path id="Vector" d="M12 12.8996C11.7336 12.8964 11.4727 12.9772 11.2523 13.1312C11.0319 13.2851 10.8626 13.5048 10.7673 13.7607C10.672 14.0166 10.6552 14.2964 10.7191 14.5625C10.7831 14.8285 10.9247 15.068 11.125 15.2487V16.4998C11.125 16.7385 11.2172 16.9674 11.3813 17.1362C11.5454 17.305 11.7679 17.3998 12 17.3998C12.2321 17.3998 12.4546 17.305 12.6187 17.1362C12.7828 16.9674 12.875 16.7385 12.875 16.4998V15.2487C13.0753 15.068 13.2169 14.8285 13.2809 14.5625C13.3448 14.2964 13.328 14.0166 13.2327 13.7607C13.1374 13.5048 12.9681 13.2851 12.7477 13.1312C12.5273 12.9772 12.2664 12.8964 12 12.8996ZM16.375 9.29938H9.375V7.49929C9.37372 6.96483 9.52667 6.442 9.81448 5.99702C10.1023 5.55204 10.512 5.20493 10.9917 4.99964C11.4715 4.79435 11.9996 4.74012 12.5093 4.84383C13.019 4.94753 13.4874 5.2045 13.855 5.58219C14.184 5.92787 14.4192 6.35607 14.5375 6.82425C14.5662 6.9389 14.6166 7.04661 14.6858 7.14122C14.755 7.23584 14.8416 7.31551 14.9408 7.37568C15.0399 7.43586 15.1496 7.47536 15.2635 7.49194C15.3775 7.50851 15.4935 7.50183 15.605 7.47229C15.7165 7.44274 15.8212 7.39089 15.9132 7.31972C16.0051 7.24855 16.0826 7.15943 16.1411 7.05747C16.1996 6.9555 16.238 6.84269 16.2541 6.72546C16.2702 6.60822 16.2637 6.48888 16.235 6.37423C16.0357 5.59551 15.6403 4.88459 15.0887 4.31312C14.4764 3.68521 13.6969 3.25803 12.8487 3.08549C12.0005 2.91296 11.1216 3.00282 10.323 3.34373C9.52444 3.68463 8.84195 4.2613 8.36176 5.00091C7.88156 5.74052 7.62518 6.6099 7.625 7.49929V9.29938C6.92881 9.29938 6.26113 9.58386 5.76884 10.0902C5.27656 10.5966 5 11.2834 5 11.9995V18.2999C5 19.016 5.27656 19.7028 5.76884 20.2091C6.26113 20.7155 6.92881 21 7.625 21H16.375C17.0712 21 17.7389 20.7155 18.2312 20.2091C18.7234 19.7028 19 19.016 19 18.2999V11.9995C19 11.2834 18.7234 10.5966 18.2312 10.0902C17.7389 9.58386 17.0712 9.29938 16.375 9.29938ZM17.25 18.2999C17.25 18.5386 17.1578 18.7675 16.9937 18.9363C16.8296 19.1051 16.6071 19.1999 16.375 19.1999H7.625C7.39294 19.1999 7.17038 19.1051 7.00628 18.9363C6.84219 18.7675 6.75 18.5386 6.75 18.2999V11.9995C6.75 11.7608 6.84219 11.5319 7.00628 11.3631C7.17038 11.1943 7.39294 11.0995 7.625 11.0995H16.375C16.6071 11.0995 16.8296 11.1943 16.9937 11.3631C17.1578 11.5319 17.25 11.7608 17.25 11.9995V18.2999Z" fill="#ADB5BD"/>
</g>
</g>
</svg>
