<svg width="24" height="24" viewBox="0 0 24 24" fill="none" xmlns="http://www.w3.org/2000/svg">
<g id="ic_24_listnumber">
<g id="Vector">
<path d="M7.00195 7.99805H21.002C21.602 7.99805 22.002 7.59805 22.002 6.99805C22.002 6.39805 21.602 5.99805 21.002 5.99805H7.00195C6.40195 5.99805 6.00195 6.39805 6.00195 6.99805C6.00195 7.59805 6.40195 7.99805 7.00195 7.99805ZM21.002 10.998H7.00195C6.40195 10.998 6.00195 11.398 6.00195 11.998C6.00195 12.598 6.40195 12.998 7.00195 12.998H21.002C21.602 12.998 22.002 12.598 22.002 11.998C22.002 11.398 21.602 10.998 21.002 10.998ZM21.002 15.998H7.00195C6.40195 15.998 6.00195 16.398 6.00195 16.998C6.00195 17.598 6.40195 17.998 7.00195 17.998H21.002C21.602 17.998 22.002 17.598 22.002 16.998C22.002 16.398 21.602 15.998 21.002 15.998Z" fill="black"/>
<path d="M4.15869 4.99219H3.21338L2.25195 5.57764V6.45312L3.11133 5.9375H3.13281V8.88086H4.15869V4.99219Z" fill="black"/>
<path d="M1.76026 13.9248H4.71973V13.103H3.1836V13.0815L3.57569 12.7432C4.45386 12.0046 4.67676 11.626 4.67676 11.1748C4.67676 10.4578 4.08863 9.98242 3.16748 9.98242C2.2732 9.98242 1.68775 10.4819 1.69043 11.293H2.6626C2.65992 10.9626 2.8667 10.772 3.16748 10.772C3.46558 10.772 3.68042 10.9573 3.68311 11.2607C3.68042 11.5427 3.50049 11.7253 3.20508 11.9751L1.76026 13.189V13.9248Z" fill="black"/>
<path d="M3.18555 19.0222C4.12817 19.0222 4.79419 18.5388 4.7915 17.8567C4.79419 17.3786 4.47461 17.0403 3.85693 16.9704V16.9382C4.31616 16.8872 4.64917 16.5891 4.64648 16.154C4.64917 15.5041 4.05029 15.0261 3.19629 15.0261C2.32349 15.0261 1.70044 15.5229 1.69775 16.2292H2.67529C2.68066 15.9875 2.89819 15.8157 3.19629 15.8157C3.47021 15.8157 3.66089 15.9822 3.6582 16.2185C3.66089 16.4629 3.4353 16.6374 3.11035 16.6374H2.71826V17.3464H3.11035C3.46753 17.3491 3.71191 17.5237 3.71191 17.7707C3.71191 18.0205 3.49976 18.195 3.19092 18.195C2.87939 18.195 2.65649 18.0285 2.64844 17.7976H1.61719C1.62524 18.5146 2.27515 19.0222 3.18555 19.0222Z" fill="black"/>
</g>
</g>
</svg>
