<svg width="24" height="24" viewBox="0 0 24 24" fill="none" xmlns="http://www.w3.org/2000/svg">
<path fill-rule="evenodd" clip-rule="evenodd" d="M5.64962 5.86812C7.46198 5.45639 9.27694 5.25 11.0935 5.25C14.1199 5.25 17.1524 5.5966 20.1634 6.26798C20.5677 6.35812 20.8223 6.75894 20.7322 7.16322C20.642 7.56751 20.2412 7.82217 19.8369 7.73202C16.928 7.0834 14.0049 6.75 11.0935 6.75C9.39083 6.75 7.68657 6.94343 5.97971 7.33135L5.97505 7.33241L4.16172 7.73239C3.75723 7.82162 3.35699 7.56605 3.26777 7.16156C3.17854 6.75707 3.43411 6.35683 3.8386 6.26761L5.64962 5.86812Z" fill="#099A96"/>
<path fill-rule="evenodd" clip-rule="evenodd" d="M9.93119 4.78288L9.74266 6.10581C9.68422 6.51588 9.30442 6.80094 8.89435 6.7425C8.48428 6.68406 8.19922 6.30426 8.25766 5.89419L8.44623 4.57096C8.4496 4.54739 8.45305 4.52283 8.45654 4.49794C8.51515 4.08059 8.59857 3.48644 8.94075 3.02918C9.3663 2.4605 10.039 2.25 10.8773 2.25H13.123C13.9744 2.25 14.6448 2.47796 15.0662 3.05024C15.4087 3.51528 15.49 4.11163 15.546 4.52164C15.5488 4.54233 15.5515 4.56255 15.5543 4.58224L15.7425 5.89339C15.8014 6.3034 15.5168 6.68351 15.1068 6.74238C14.6968 6.80126 14.3167 6.51662 14.2578 6.10661L14.0687 4.78966C13.9968 4.2704 13.9481 4.06154 13.8584 3.93966C13.8295 3.90038 13.7187 3.75 13.123 3.75H10.8773C10.2743 3.75 10.1665 3.89458 10.1425 3.92677C10.1423 3.92716 10.142 3.92753 10.1417 3.92789C10.1109 3.96912 10.0718 4.04476 10.0335 4.19529C9.99382 4.35072 9.96685 4.53332 9.93119 4.78288Z" fill="#099A96"/>
<path fill-rule="evenodd" clip-rule="evenodd" d="M5.9548 8.25137C6.36825 8.22632 6.72373 8.54118 6.74879 8.95464L7.31789 18.3474C7.31793 18.348 7.31797 18.3486 7.31801 18.3493C7.34274 18.7252 7.36365 19.0229 7.41265 19.2821C7.4606 19.5357 7.52656 19.6974 7.60707 19.809C7.73353 19.9845 8.05633 20.25 9.18848 20.25H14.8118C15.944 20.25 16.2668 19.9845 16.3933 19.809C16.4738 19.6974 16.5397 19.5357 16.5877 19.2821C16.6367 19.0229 16.6576 18.7252 16.6823 18.3492C16.6824 18.3486 16.6824 18.348 16.6824 18.3474L17.2515 8.95464C17.2766 8.54118 17.6321 8.22632 18.0455 8.25137C18.459 8.27642 18.7738 8.6319 18.7488 9.04536L18.1792 18.4458L18.178 18.4638C18.155 18.8147 18.1296 19.201 18.0616 19.5607C17.9913 19.9326 17.8667 20.3302 17.61 20.6863C17.062 21.4463 16.1235 21.75 14.8118 21.75H9.18848C7.87684 21.75 6.93832 21.4463 6.39033 20.6863C6.13361 20.3302 6.00906 19.9326 5.93876 19.5607C5.87076 19.2011 5.84537 18.8147 5.8223 18.4638L5.82112 18.4458L5.82088 18.4419L5.25153 9.04536C5.22648 8.6319 5.54134 8.27642 5.9548 8.25137Z" fill="#099A96"/>
</svg>
