<svg width="24" height="24" viewBox="0 0 24 24" fill="none" xmlns="http://www.w3.org/2000/svg">
<g id="ic_24_form_02">
<g id="vuesax/linear/document-text">
<g id="document-text">
<path id="Vector (Stroke)" fill-rule="evenodd" clip-rule="evenodd" d="M4.70263 4.70263C3.85097 5.55428 3.39535 6.95252 3.39535 9.20929V14.7907C3.39535 17.0474 3.85097 18.4457 4.70263 19.2973C5.55428 20.149 6.95252 20.6046 9.20929 20.6046H14.7907C17.0474 20.6046 18.4457 20.149 19.2973 19.2973C20.149 18.4457 20.6046 17.0474 20.6046 14.7907V10.1395C20.6046 9.7542 20.917 9.44184 21.3023 9.44184C21.6876 9.44184 22 9.7542 22 10.1395V14.7907C22 17.1851 21.5254 19.0426 20.284 20.284C19.0426 21.5254 17.1851 22 14.7907 22H9.20929C6.8149 22 4.95733 21.5254 3.71597 20.284C2.4746 19.0426 2 17.1851 2 14.7907V9.20929C2 6.8149 2.4746 4.95733 3.71597 3.71597C4.95733 2.4746 6.8149 2 9.20929 2H13.8604C14.2458 2 14.5581 2.31236 14.5581 2.69767C14.5581 3.08299 14.2458 3.39535 13.8604 3.39535H9.20929C6.95252 3.39535 5.55428 3.85097 4.70263 4.70263Z" fill="#3B424B"/>
<path id="Vector (Stroke)_2" fill-rule="evenodd" clip-rule="evenodd" d="M13.5947 2.05313C13.8555 1.94514 14.1555 2.00483 14.3551 2.20436L21.7969 9.64621C21.9964 9.84574 22.0561 10.1458 21.9481 10.4065C21.8402 10.6672 21.5858 10.8372 21.3036 10.8372H17.5827C16.1487 10.8372 14.9707 10.6072 14.1824 9.81892C13.3941 9.03062 13.1641 7.85261 13.1641 6.41862V2.69769C13.1641 2.41551 13.334 2.16111 13.5947 2.05313ZM14.5594 4.38202V6.41862C14.5594 7.77531 14.7945 8.45777 15.169 8.83226C15.5435 9.20675 16.226 9.44186 17.5827 9.44186H19.6192L14.5594 4.38202Z" fill="#3B424B"/>
<path id="Vector (Stroke)_3" fill-rule="evenodd" clip-rule="evenodd" d="M6.64844 12.932C6.64844 12.5467 6.9608 12.2344 7.34611 12.2344H12.9275C13.3128 12.2344 13.6252 12.5467 13.6252 12.932C13.6252 13.3174 13.3128 13.6297 12.9275 13.6297H7.34611C6.9608 13.6297 6.64844 13.3174 6.64844 12.932Z" fill="#3B424B"/>
<path id="Vector (Stroke)_4" fill-rule="evenodd" clip-rule="evenodd" d="M6.64844 16.6508C6.64844 16.2655 6.9608 15.9531 7.34611 15.9531H11.067C11.4523 15.9531 11.7647 16.2655 11.7647 16.6508C11.7647 17.0361 11.4523 17.3485 11.067 17.3485H7.34611C6.9608 17.3485 6.64844 17.0361 6.64844 16.6508Z" fill="#3B424B"/>
</g>
</g>
</g>
</svg>
