<svg width="24" height="24" viewBox="0 0 24 24" fill="none" xmlns="http://www.w3.org/2000/svg">
<path fill-rule="evenodd" clip-rule="evenodd" d="M5.86983 11.8281C5.24902 11.8281 4.69835 12.1069 4.33203 12.5532L4.30868 12.5816L4.29655 12.5937C3.99551 12.9865 3.83244 13.4889 3.88471 14.0312L3.88588 14.0433L4.25191 18.6199C4.32685 19.3828 4.38831 19.7467 4.57602 19.981C4.71557 20.1552 5.07083 20.4115 6.2365 20.4115H17.7682C18.9338 20.4115 19.2891 20.1552 19.4286 19.981C19.6164 19.7467 19.6778 19.3828 19.7528 18.6199L20.1197 14.0333L20.1208 14.0232C20.1802 13.4689 20.0045 12.9619 19.6754 12.5656L19.5801 12.4509C19.2233 12.0698 18.7126 11.8281 18.1348 11.8281H5.86983ZM19.7037 12.5893C19.7094 12.595 19.707 12.593 19.7 12.5856L19.7037 12.5893ZM3.19756 11.5714C3.83963 10.8068 4.79958 10.3281 5.86983 10.3281H18.1348C19.2092 10.3281 20.1616 10.8103 20.7936 11.559C20.8063 11.5728 20.8256 11.5948 20.8466 11.6227C20.8538 11.6323 20.8644 11.6467 20.8768 11.6657C21.4142 12.3412 21.7127 13.2186 21.6134 14.1724L21.2464 18.7596C21.2436 18.7882 21.2407 18.8173 21.2378 18.8467C21.1774 19.4727 21.098 20.2963 20.5994 20.9188C20.0285 21.6315 19.0867 21.9115 17.7682 21.9115H6.2365C4.918 21.9115 3.97618 21.6315 3.40531 20.9188C2.90664 20.2963 2.82722 19.4727 2.76686 18.8467C2.76401 18.8173 2.76121 18.7882 2.75841 18.7596L2.7571 18.7463L2.39101 14.1687C2.29995 13.206 2.60329 12.3113 3.14738 11.6283L3.17375 11.5952L3.19756 11.5714Z" fill="#099A96"/>
<path fill-rule="evenodd" clip-rule="evenodd" d="M5.52046 4.16887C5.17459 4.51474 4.96096 5.19151 4.96096 6.75521V11.476C4.96096 11.8903 4.62518 12.226 4.21096 12.226C3.79675 12.226 3.46096 11.8903 3.46096 11.476V6.75521C3.46096 5.20223 3.63692 3.93109 4.4598 3.10821C5.28268 2.28533 6.55382 2.10938 8.1068 2.10938H9.27096C9.92045 2.10938 10.4328 2.205 10.8638 2.464C11.2604 2.70229 11.5153 3.04287 11.7153 3.31008C11.7239 3.32165 11.7325 3.33309 11.741 3.34437L11.7418 3.34551L12.9038 4.90096C13.0686 5.11712 13.1015 5.14706 13.1352 5.16746C13.149 5.17585 13.2322 5.22604 13.5518 5.22604H15.8893C17.4423 5.22604 18.7134 5.402 19.5363 6.22488C20.3592 7.04776 20.5351 8.3189 20.5351 9.87188V11.5127C20.5351 11.9269 20.1993 12.2627 19.7851 12.2627C19.3709 12.2627 19.0351 11.9269 19.0351 11.5127V9.87188C19.0351 8.30818 18.8215 7.63141 18.4756 7.28554C18.1298 6.93967 17.453 6.72604 15.8893 6.72604H13.5518C13.0922 6.72604 12.6987 6.65707 12.3574 6.45004C12.0573 6.26804 11.8624 6.01053 11.7348 5.84181C11.7257 5.82982 11.717 5.81827 11.7086 5.80724L11.7043 5.8016L10.541 4.24437C10.5408 4.24419 10.5411 4.24456 10.541 4.24437C10.3051 3.92995 10.2114 3.82193 10.0912 3.74975C9.98834 3.68792 9.78564 3.60938 9.27096 3.60938H8.1068C6.5431 3.60938 5.86633 3.823 5.52046 4.16887Z" fill="#099A96"/>
<path fill-rule="evenodd" clip-rule="evenodd" d="M8.89844 16.5781C8.89844 16.1639 9.23422 15.8281 9.64844 15.8281H14.3601C14.7743 15.8281 15.1101 16.1639 15.1101 16.5781C15.1101 16.9923 14.7743 17.3281 14.3601 17.3281H9.64844C9.23422 17.3281 8.89844 16.9923 8.89844 16.5781Z" fill="#099A96"/>
</svg>
