<svg width="24" height="24" viewBox="0 0 24 24" fill="none" xmlns="http://www.w3.org/2000/svg">
<g id="ic_24_superscript" clip-path="url(#clip0_183_11679)">
<g id="Vector">
<path d="M10.51 12.73L7.3 7.72C6.82 6.97 7.35 6 8.23 6C8.62 6 8.97 6.2 9.18 6.53L11.94 10.99H12.06L14.8 6.54C15 6.2 15.36 6 15.75 6C16.63 6 17.17 6.98 16.69 7.72L13.46 12.72L17.01 18.27C17.5 19.02 16.96 20 16.08 20C15.7 20 15.34 19.8 15.13 19.48L12.06 14.59H11.94L8.87 19.48C8.66 19.8 8.31 20 7.92 20C7.04 20 6.5 19.03 6.98 18.28L10.51 12.73ZM23 8.5C23 8.22 22.78 8 22.5 8H20V7H22C22.55 7 23 6.55 23 6V5C23 4.45 22.55 4 22 4H19.5C19.22 4 19 4.22 19 4.5C19 4.78 19.22 5 19.5 5H22V6H20C19.45 6 19 6.45 19 7V8C19 8.55 19.45 9 20 9H22.5C22.78 9 23 8.78 23 8.5Z" fill="black"/>
</g>
</g>
<defs>
<clipPath id="clip0_183_11679">
<rect width="24" height="24" fill="white"/>
</clipPath>
</defs>
</svg>
