<svg width="24" height="24" viewBox="0 0 24 24" fill="none" xmlns="http://www.w3.org/2000/svg">
<path fill-rule="evenodd" clip-rule="evenodd" d="M12.0016 13.7016C13.4927 13.7016 14.7016 12.4927 14.7016 11.0016C14.7016 9.51039 13.4927 8.30156 12.0016 8.30156C10.5104 8.30156 9.30156 9.51039 9.30156 11.0016C9.30156 12.4927 10.5104 13.7016 12.0016 13.7016ZM12.0016 15.0016C14.2107 15.0016 16.0016 13.2107 16.0016 11.0016C16.0016 8.79242 14.2107 7.00156 12.0016 7.00156C9.79242 7.00156 8.00156 8.79242 8.00156 11.0016C8.00156 13.2107 9.79242 15.0016 12.0016 15.0016Z" fill="#099A96"/>
<path fill-rule="evenodd" clip-rule="evenodd" d="M4.84194 4.84194C5.92348 3.7604 7.53745 3.35156 9.60156 3.35156H14.4016C16.4657 3.35156 18.0796 3.7604 19.1612 4.84194C20.2427 5.92348 20.6516 7.53745 20.6516 9.60156V14.4016C20.6516 16.4657 20.2427 18.0796 19.1612 19.1612C18.0796 20.2427 16.4657 20.6516 14.4016 20.6516H9.60156C7.53745 20.6516 5.92348 20.2427 4.84194 19.1612C3.7604 18.0796 3.35156 16.4657 3.35156 14.4016V9.60156C3.35156 7.53745 3.7604 5.92348 4.84194 4.84194ZM5.76118 5.76118C5.04272 6.47964 4.65156 7.66567 4.65156 9.60156V14.4016C4.65156 16.3375 5.04272 17.5235 5.76118 18.2419C6.47964 18.9604 7.66567 19.3516 9.60156 19.3516H14.4016C16.3375 19.3516 17.5235 18.9604 18.2419 18.2419C18.9604 17.5235 19.3516 16.3375 19.3516 14.4016V9.60156C19.3516 7.66567 18.9604 6.47964 18.2419 5.76118C17.5235 5.04272 16.3375 4.65156 14.4016 4.65156H9.60156C7.66567 4.65156 6.47964 5.04272 5.76118 5.76118Z" fill="#099A96"/>
<path fill-rule="evenodd" clip-rule="evenodd" d="M7.39963 15.6313C8.6065 14.8273 10.2358 14.3516 12.0016 14.3516C13.7673 14.3516 15.3966 14.8273 16.6035 15.6313C17.8059 16.4323 18.6516 17.6108 18.6516 19.0016C18.6516 19.3605 18.3605 19.6516 18.0016 19.6516C17.6426 19.6516 17.3516 19.3605 17.3516 19.0016C17.3516 18.1809 16.8527 17.3594 15.8827 16.7132C14.9173 16.0701 13.5466 15.6516 12.0016 15.6516C10.4565 15.6516 9.0858 16.0701 8.12038 16.7132C7.15046 17.3594 6.65156 18.1809 6.65156 19.0016C6.65156 19.3605 6.36055 19.6516 6.00156 19.6516C5.64258 19.6516 5.35156 19.3605 5.35156 19.0016C5.35156 17.6108 6.19725 16.4323 7.39963 15.6313Z" fill="#099A96"/>
</svg>
