<svg width="24" height="24" viewBox="0 0 24 24" fill="none" xmlns="http://www.w3.org/2000/svg">
<path fill-rule="evenodd" clip-rule="evenodd" d="M8.19289 10.2375L15.5424 2.9002C16.746 1.69993 18.6966 1.69993 19.9001 2.9002L21.0972 4.09534C22.3009 5.29702 22.3009 7.246 21.0972 8.44638L13.7126 15.8188C13.1739 16.3566 12.4434 16.6589 11.6815 16.6589H7.99751C7.58297 16.6589 7.24985 16.3179 7.26015 15.9042L7.3526 12.1927C7.37114 11.4577 7.67186 10.7577 8.19289 10.2375ZM20.0541 5.13671L18.8576 3.94213C18.23 3.31624 17.2125 3.31624 16.5852 3.94185L15.9798 4.5463L19.4487 8.00947L20.0544 7.40474C20.6816 6.77924 20.6816 5.76316 20.0541 5.13671ZM18.4056 9.05083L14.9367 5.58767L9.23598 11.2789C8.98257 11.5319 8.83631 11.8724 8.8273 12.2296L8.75298 15.1853L11.6815 15.1862C12.0057 15.1862 12.3183 15.0736 12.567 14.8701L12.6695 14.7774L18.4056 9.05083ZM11.3348 2.03906C11.7422 2.03906 12.0724 2.36874 12.0724 2.77542C12.0724 3.14821 11.7949 3.45629 11.4349 3.50505L11.3348 3.51177H7.65773C5.17793 3.51177 3.5717 5.15405 3.47937 7.70441L3.47516 7.93874V16.1015C3.47516 18.7097 5.00328 20.4253 7.43426 20.524L7.65773 20.5285H16.3356C18.8216 20.5285 20.4229 18.8897 20.515 16.3361L20.5192 16.1015V12.1468C20.5192 11.7401 20.8494 11.4104 21.2567 11.4104C21.6301 11.4104 21.9387 11.6874 21.9876 12.0468L21.9943 12.1468V16.1015C21.9943 19.5006 19.8376 21.8906 16.5657 21.9974L16.3356 22.0012H7.65773C4.33531 22.0012 2.10323 19.6883 2.00349 16.337L2 16.1015V7.93874C2 4.54295 4.16225 2.14983 7.4281 2.0428L7.65773 2.03906H11.3348Z" fill="#099A96"/>
</svg>
