<svg width="24" height="24" viewBox="0 0 24 24" fill="none" xmlns="http://www.w3.org/2000/svg">
<g id="ic_24_linespacing">
<path id="Vector" d="M9.99693 8H20.9969C21.5969 8 21.9969 7.6 21.9969 7C21.9969 6.4 21.5969 6 20.9969 6H9.99693C9.39693 6 8.99692 6.4 8.99692 7C8.99692 7.6 9.39693 8 9.99693 8ZM5.69692 15.3V8.7C5.89692 8.9 6.09693 9 6.29693 9C6.59693 9 6.79693 8.9 6.99692 8.8C7.39692 8.4 7.49692 7.8 7.09692 7.4L5.39692 5.4C5.19692 5.1 4.99692 5 4.69692 5C4.39692 5 4.09693 5.1 3.89693 5.4L2.19692 7.4C1.89692 7.8 1.89693 8.4 2.39693 8.8C2.79693 9.1 3.29693 9.1 3.69693 8.8V15.4C3.29693 15.1 2.79693 15 2.39693 15.4C1.99693 15.8 1.89692 16.4 2.29692 16.8L3.99692 18.8C4.09692 18.9 4.39692 19 4.69692 19C4.99692 19 5.29692 18.9 5.49692 18.6L7.19692 16.6C7.59692 16.2 7.49692 15.5 7.09692 15.2C6.59692 14.9 5.99692 14.9 5.69692 15.3ZM20.9969 11H9.99693C9.39693 11 8.99692 11.4 8.99692 12C8.99692 12.6 9.39693 13 9.99693 13H20.9969C21.5969 13 21.9969 12.6 21.9969 12C21.9969 11.4 21.5969 11 20.9969 11ZM20.9969 16H9.99693C9.39693 16 8.99692 16.4 8.99692 17C8.99692 17.6 9.39693 18 9.99693 18H20.9969C21.5969 18 21.9969 17.6 21.9969 17C21.9969 16.4 21.5969 16 20.9969 16Z" fill="black"/>
</g>
</svg>
