<svg width="24" height="24" viewBox="0 0 24 24" fill="none" xmlns="http://www.w3.org/2000/svg">
<g id="ic_24_table">
<path id="Vector" d="M20.1 3H3.9C3.36 3 3 3.36 3 3.9V20.1C3 20.64 3.36 21 3.9 21H20.1C20.64 21 21 20.64 21 20.1V3.9C21 3.36 20.64 3 20.1 3ZM10.2 19.2V15.6H13.8V19.2H10.2ZM10.2 13.8V10.2H13.8V13.8H10.2ZM4.8 10.2H8.4V13.8H4.8V10.2ZM10.2 8.4V4.8H13.8V8.4H10.2ZM15.6 10.2H19.2V13.8H15.6V10.2ZM19.2 8.4H15.6V4.8H19.2V8.4ZM8.4 4.8V8.4H4.8V4.8H8.4ZM4.8 15.6H8.4V19.2H4.8V15.6ZM15.6 19.2V15.6H19.2V19.2H15.6Z" fill="black"/>
</g>
</svg>
