<svg width="24" height="24" viewBox="0 0 24 24" fill="none" xmlns="http://www.w3.org/2000/svg">
<path fill-rule="evenodd" clip-rule="evenodd" d="M18.8971 5.10161C18.4249 4.62875 17.4353 4.3684 15.8047 4.91194L8.02292 7.50585C8.02276 7.50591 8.02307 7.5058 8.02292 7.50585C6.76253 7.9275 5.87537 8.39742 5.31855 8.85758C4.75906 9.31994 4.60938 9.70297 4.60938 9.96969C4.60938 10.2362 4.75882 10.6185 5.31795 11.0796C5.87459 11.5386 6.76122 12.0068 8.0218 12.4263L10.3322 13.1964C10.5561 13.2711 10.7319 13.4468 10.8065 13.6708L11.5765 15.9808C11.9959 17.2411 12.4647 18.128 12.9243 18.6846C13.3859 19.2437 13.7692 19.3935 14.0367 19.3935C14.3042 19.3935 14.6874 19.2437 15.149 18.6846C15.6086 18.128 16.0773 17.2415 16.4967 15.9811L19.0904 8.19993C19.0903 8.20019 19.0905 8.19968 19.0904 8.19993C19.6296 6.56915 19.3701 5.57535 18.8971 5.10161ZM19.9585 4.04174C21.0186 5.10334 21.1301 6.80965 20.5146 8.67091L20.514 8.67259L17.92 16.4547C17.9199 16.4548 17.92 16.4546 17.92 16.4547C17.4685 17.8113 16.9265 18.8878 16.3057 19.6397C15.6868 20.3892 14.9196 20.8935 14.0367 20.8935C13.1537 20.8935 12.3866 20.3892 11.7677 19.6397C11.1468 18.8878 10.6049 17.8116 10.1535 16.4551L9.50207 14.5008L7.5482 13.8496C7.54808 13.8495 7.54833 13.8496 7.5482 13.8496C6.19188 13.3982 5.11544 12.8568 4.36361 12.2369C3.6142 11.6188 3.10938 10.8525 3.10938 9.96969C3.10938 9.08715 3.61396 8.32033 4.36301 7.70131C5.11466 7.08015 6.19064 6.53706 7.54708 6.08333L15.3303 3.48891C17.1922 2.86828 18.8976 2.97918 19.9585 4.04174Z" fill="#099A96"/>
<path fill-rule="evenodd" clip-rule="evenodd" d="M14.0769 9.68768C14.3702 9.98017 14.3708 10.455 14.0784 10.7483L10.7967 14.0392C10.5042 14.3325 10.0293 14.3331 9.73603 14.0407C9.44273 13.7482 9.44207 13.2733 9.73456 12.98L13.0162 9.68916C13.3087 9.39586 13.7836 9.3952 14.0769 9.68768Z" fill="#099A96"/>
</svg>
