<svg width="70" height="70" viewBox="0 0 70 70" fill="none" xmlns="http://www.w3.org/2000/svg">
<path d="M63.3197 59.1781L60.6072 56.4656L60.3447 56.1739L60.1697 55.9697L58.7114 54.5114L58.3322 54.3072L43.2239 39.1406L42.9614 38.9072L33.6281 29.5447L33.3364 29.1656L10.8197 6.67808C10.5478 6.40613 10.225 6.19041 9.86964 6.04324C9.51433 5.89606 9.1335 5.82031 8.74891 5.82031C8.36432 5.82031 7.9835 5.89606 7.62819 6.04324C7.27287 6.19041 6.95003 6.40613 6.67808 6.67808C6.12886 7.2273 5.82031 7.9722 5.82031 8.74891C5.82031 9.52563 6.12886 10.2705 6.67808 10.8197L9.59475 13.7364C9.0365 14.9121 8.74753 16.1975 8.74891 17.4989V52.4989C8.74891 54.8196 9.67079 57.0452 11.3117 58.6861C12.9527 60.327 15.1783 61.2489 17.4989 61.2489H52.4989C53.7864 61.2334 55.0533 60.9241 56.2031 60.3447C56.2031 60.3447 56.2031 60.3447 56.3489 60.3447L59.1197 63.2614C59.3909 63.5348 59.7135 63.7518 60.0689 63.8998C60.4243 64.0479 60.8055 64.1242 61.1906 64.1242C61.5756 64.1242 61.9568 64.0479 62.3123 63.8998C62.6677 63.7518 62.9903 63.5348 63.2614 63.2614C63.8037 62.7239 64.1135 61.9951 64.1244 61.2317C64.1353 60.4682 63.8464 59.7309 63.3197 59.1781ZM14.5822 18.6947L24.0322 28.1447C23.3162 28.5139 22.6579 28.9855 22.0781 29.5447L14.5822 37.0697V18.6947ZM17.4989 55.4156C16.7254 55.4156 15.9835 55.1083 15.4365 54.5613C14.8895 54.0143 14.5822 53.2725 14.5822 52.4989V45.3239L26.2489 33.6572C26.6855 33.2534 27.2584 33.0291 27.8531 33.0291C28.4478 33.0291 29.0206 33.2534 29.4572 33.6572L51.3031 55.4156H17.4989ZM28.1739 14.5822H52.4989C53.2725 14.5822 54.0143 14.8895 54.5613 15.4365C55.1083 15.9835 55.4156 16.7254 55.4156 17.4989V34.8239C55.1436 34.552 54.8208 34.3362 54.4655 34.1891C54.1102 34.0419 53.7293 33.9661 53.3447 33.9661C52.9602 33.9661 52.5793 34.0419 52.224 34.1891C51.8687 34.3362 51.5459 34.552 51.2739 34.8239C51.002 35.0959 50.7862 35.4187 50.6391 35.774C50.4919 36.1293 50.4161 36.5102 50.4161 36.8947C50.4161 37.2793 50.4919 37.6602 50.6391 38.0155C50.7862 38.3708 51.002 38.6936 51.2739 38.9656L56.3489 44.0406C56.6201 44.314 56.9426 44.5309 57.2981 44.679C57.6535 44.8271 58.0347 44.9033 58.4197 44.9033C58.8048 44.9033 59.186 44.8271 59.5414 44.679C59.8968 44.5309 60.2194 44.314 60.4906 44.0406C60.7644 43.7646 60.9803 43.4366 61.1256 43.076C61.2708 42.7154 61.3425 42.3293 61.3364 41.9406V17.4989C61.3364 15.1783 60.4145 12.9527 58.7736 11.3117C57.1326 9.67079 54.9071 8.74891 52.5864 8.74891H28.1739C27.4004 8.74891 26.6585 9.0562 26.1115 9.60318C25.5645 10.1502 25.2572 10.892 25.2572 11.6656C25.2572 12.4391 25.5645 13.181 26.1115 13.728C26.6585 14.275 27.4004 14.5822 28.1739 14.5822Z" fill="#DFE3E6"/>
</svg>
