<svg width="24" height="24" viewBox="0 0 24 24" fill="none" xmlns="http://www.w3.org/2000/svg">
<g id="ic_24_contracting_out">
<g id="vuesax/linear/document-filter">
<g id="document-filter">
<g id="Group">
<path id="Vector (Stroke)" fill-rule="evenodd" clip-rule="evenodd" d="M5.02776 4.75C4.92289 4.75 4.74682 4.84972 4.75004 5.11759L4.75014 5.12659L4.75009 6.36503C4.75009 6.39157 4.7643 6.48841 4.82443 6.62723C4.88219 6.76059 4.95423 6.86727 5.00899 6.92432L5.02259 6.93887L6.98595 9.09618C7.0006 9.11228 7.01455 9.12901 7.02775 9.14633C7.18216 9.34891 7.31802 9.60425 7.41638 9.86108C7.51329 10.1141 7.5954 10.4246 7.5954 10.7356V13.588C7.5954 13.8682 7.87335 13.978 8.03898 13.8783L8.7492 13.3981L8.7548 13.3944C8.75735 13.3919 8.76264 13.3865 8.77022 13.3772C8.78789 13.3554 8.80943 13.3229 8.83007 13.2817C8.85057 13.2406 8.86615 13.199 8.876 13.162C8.88081 13.144 8.88373 13.1291 8.88537 13.1177C8.88704 13.1062 8.88707 13.1005 8.88707 13.1006V10.7835C8.88707 10.4569 8.96327 10.1194 9.08418 9.82193C9.20262 9.53054 9.38657 9.22239 9.64769 8.98894L11.8413 6.97153C11.8977 6.90575 11.975 6.7881 12.0396 6.64017C12.111 6.47648 12.1389 6.33997 12.1389 6.26116V5.07865C12.1389 4.87234 11.9782 4.75 11.8535 4.75H5.02776ZM3.25009 5.13056C3.24054 4.12216 3.99927 3.25 5.02776 3.25H11.8535C12.864 3.25 13.6389 4.10245 13.6389 5.07865V6.26116C13.6389 6.61381 13.5364 6.9607 13.4142 7.24045C13.2911 7.52234 13.1199 7.8004 12.9238 8.01086C12.9106 8.02498 12.8969 8.03859 12.8827 8.05166L10.6483 10.1066C10.6058 10.1442 10.5347 10.237 10.4738 10.3868C10.4144 10.5328 10.3871 10.6786 10.3871 10.7835V13.1006C10.3871 13.4048 10.2941 13.7077 10.1718 13.9523C10.0532 14.1896 9.86162 14.4627 9.58369 14.6446L8.86838 15.1282L8.8523 15.1387C7.6674 15.8962 6.0954 15.0306 6.0954 13.588V10.7356C6.0954 10.6709 6.07399 10.55 6.0156 10.3976C5.96416 10.2632 5.90106 10.1489 5.85053 10.0772L3.91912 7.95496C3.71679 7.7417 3.55757 7.47638 3.448 7.22343C3.33941 6.97274 3.25009 6.66608 3.25009 6.36503V5.13056Z" fill="#3B424B"/>
</g>
<path id="Vector (Stroke)_2" fill-rule="evenodd" clip-rule="evenodd" d="M15.2198 3.87928C15.2865 3.47047 15.672 3.19318 16.0808 3.25991C16.4649 3.32261 16.8786 3.40164 17.256 3.49823C17.6175 3.59077 18.0049 3.71373 18.3008 3.88377C20.1009 4.91123 20.75 6.85176 20.75 9.4738V14.3321C20.75 16.4285 20.3406 18.0909 19.2335 19.2114C18.1242 20.3342 16.4759 20.7501 14.4 20.7501H9.6C7.52409 20.7501 5.87578 20.3342 4.76648 19.2114C3.65939 18.0909 3.25 16.4285 3.25 14.3321V11.903C3.25 11.4887 3.58579 11.153 4 11.153C4.41421 11.153 4.75 11.4887 4.75 11.903V14.3321C4.75 16.2843 5.1406 17.4559 5.83352 18.1572C6.52422 18.8563 7.67591 19.2501 9.6 19.2501H14.4C16.3241 19.2501 17.4758 18.8563 18.1665 18.1572C18.8594 17.4559 19.25 16.2843 19.25 14.3321V9.4738C19.25 7.04383 18.6514 5.81055 17.5564 5.18601L17.5539 5.18456C17.442 5.12016 17.218 5.03686 16.884 4.95139C16.5654 4.86984 16.1991 4.79908 15.8392 4.74032C15.4304 4.67358 15.1531 4.28808 15.2198 3.87928Z" fill="#3B424B"/>
</g>
</g>
</g>
</svg>
