<svg width="24" height="24" viewBox="0 0 24 24" fill="none" xmlns="http://www.w3.org/2000/svg">
<path fill-rule="evenodd" clip-rule="evenodd" d="M8.448 5.75C6.39767 5.75 4.75 7.38899 4.75 9.39663C4.75 11.8954 5.92252 13.9045 7.41426 15.4071C8.91466 16.9185 10.6889 17.8645 11.7426 18.2182L11.7499 18.2206C11.782 18.2318 11.8726 18.25 12 18.25C12.1274 18.25 12.218 18.2318 12.2501 18.2207L12.2573 18.2182C13.3111 17.8645 15.0853 16.9185 16.5857 15.4071C18.0775 13.9045 19.25 11.8954 19.25 9.39663C19.25 7.38899 17.6023 5.75 15.552 5.75C14.3465 5.75 13.2692 6.32588 12.5985 7.21386C12.4567 7.4015 12.2352 7.5118 12 7.5118C11.7648 7.5118 11.5433 7.4015 11.4015 7.21386C10.7303 6.32527 9.66073 5.75 8.448 5.75ZM3.25 9.39663C3.25 6.54359 5.58633 4.25 8.448 4.25C9.82377 4.25 11.0731 4.78029 12.0003 5.64598C12.9297 4.77999 14.1832 4.25 15.552 4.25C18.4137 4.25 20.75 6.54359 20.75 9.39663C20.75 12.4035 19.3305 14.7714 17.6503 16.4639C15.98 18.1464 14.0042 19.2135 12.7378 19.6392C12.4989 19.7213 12.2313 19.75 12 19.75C11.7687 19.75 11.5011 19.7213 11.2622 19.6392C9.99584 19.2135 8.01996 18.1464 6.34974 16.4639C4.66948 14.7714 3.25 12.4035 3.25 9.39663Z" fill="#099A96"/>
</svg>
