<svg width="24" height="24" viewBox="0 0 24 24" fill="none" xmlns="http://www.w3.org/2000/svg">
<path fill-rule="evenodd" clip-rule="evenodd" d="M3.35156 20.0016C3.35156 19.6426 3.64258 19.3516 4.00156 19.3516H20.0016C20.3605 19.3516 20.6516 19.6426 20.6516 20.0016C20.6516 20.3605 20.3605 20.6516 20.0016 20.6516H4.00156C3.64258 20.6516 3.35156 20.3605 3.35156 20.0016Z" fill="#099A96"/>
<path fill-rule="evenodd" clip-rule="evenodd" d="M5.1843 4.52061C5.8244 3.75821 6.807 3.35156 8.11267 3.35156H15.8905C17.1961 3.35156 18.1787 3.75821 18.8188 4.52061C19.4412 5.26189 19.6516 6.23644 19.6516 7.20156V20.0016C19.6516 20.3605 19.3605 20.6516 19.0016 20.6516H5.00156C4.64258 20.6516 4.35156 20.3605 4.35156 20.0016V7.20156C4.35156 6.23644 4.56195 5.26189 5.1843 4.52061ZM6.17993 5.35651C5.83006 5.77323 5.65156 6.39869 5.65156 7.20156V19.3516H18.3516V7.20156C18.3516 6.39869 18.1731 5.77323 17.8232 5.35651C17.4911 4.96092 16.9181 4.65156 15.8905 4.65156H8.11267C7.08502 4.65156 6.51206 4.96092 6.17993 5.35651Z" fill="#099A96"/>
<path fill-rule="evenodd" clip-rule="evenodd" d="M8.35156 16.0016C8.35156 15.6426 8.64258 15.3516 9.00156 15.3516H10.0016C10.3605 15.3516 10.6516 15.6426 10.6516 16.0016C10.6516 16.3605 10.3605 16.6516 10.0016 16.6516H9.00156C8.64258 16.6516 8.35156 16.3605 8.35156 16.0016Z" fill="#099A96"/>
<path fill-rule="evenodd" clip-rule="evenodd" d="M13.3516 16.0016C13.3516 15.6426 13.6426 15.3516 14.0016 15.3516H15.0016C15.3605 15.3516 15.6516 15.6426 15.6516 16.0016C15.6516 16.3605 15.3605 16.6516 15.0016 16.6516H14.0016C13.6426 16.6516 13.3516 16.3605 13.3516 16.0016Z" fill="#099A96"/>
<path fill-rule="evenodd" clip-rule="evenodd" d="M8.35156 12.0016C8.35156 11.6426 8.64258 11.3516 9.00156 11.3516H10.0016C10.3605 11.3516 10.6516 11.6426 10.6516 12.0016C10.6516 12.3605 10.3605 12.6516 10.0016 12.6516H9.00156C8.64258 12.6516 8.35156 12.3605 8.35156 12.0016Z" fill="#099A96"/>
<path fill-rule="evenodd" clip-rule="evenodd" d="M13.3516 12.0016C13.3516 11.6426 13.6426 11.3516 14.0016 11.3516H15.0016C15.3605 11.3516 15.6516 11.6426 15.6516 12.0016C15.6516 12.3605 15.3605 12.6516 15.0016 12.6516H14.0016C13.6426 12.6516 13.3516 12.3605 13.3516 12.0016Z" fill="#099A96"/>
<path fill-rule="evenodd" clip-rule="evenodd" d="M8.35156 8.00156C8.35156 7.64258 8.64258 7.35156 9.00156 7.35156H10.0016C10.3605 7.35156 10.6516 7.64258 10.6516 8.00156C10.6516 8.36055 10.3605 8.65156 10.0016 8.65156H9.00156C8.64258 8.65156 8.35156 8.36055 8.35156 8.00156Z" fill="#099A96"/>
<path fill-rule="evenodd" clip-rule="evenodd" d="M13.3516 8.00156C13.3516 7.64258 13.6426 7.35156 14.0016 7.35156H15.0016C15.3605 7.35156 15.6516 7.64258 15.6516 8.00156C15.6516 8.36055 15.3605 8.65156 15.0016 8.65156H14.0016C13.6426 8.65156 13.3516 8.36055 13.3516 8.00156Z" fill="#099A96"/>
</svg>
