<svg width="24" height="24" viewBox="0 0 24 24" fill="none" xmlns="http://www.w3.org/2000/svg">
<g id="ic_24_certification">
<path id="Vector" d="M20.5837 2.81376C20.453 2.71035 20.3003 2.6369 20.1368 2.59882C19.9732 2.56074 19.8031 2.55898 19.6387 2.59369C18.4366 2.8401 17.1956 2.84324 15.9922 2.60291C14.7888 2.36258 13.6484 1.88387 12.6412 1.19625C12.4529 1.06847 12.2292 1 12 1C11.7708 1 11.5471 1.06847 11.3588 1.19625C10.3516 1.88387 9.21121 2.36258 8.00779 2.60291C6.80437 2.84324 5.56339 2.8401 4.36126 2.59369C4.19694 2.55898 4.02675 2.56074 3.86322 2.59882C3.69968 2.6369 3.54695 2.71035 3.41626 2.81376C3.28573 2.91732 3.18059 3.04817 3.10856 3.1967C3.03653 3.34522 2.99944 3.50764 3.00001 3.67203V11.8696C2.99901 13.4472 3.38338 15.0022 4.12111 16.4052C4.85884 17.8081 5.92858 19.0183 7.24125 19.9351L11.3475 22.796C11.538 22.9287 11.7661 23 12 23C12.2339 23 12.462 22.9287 12.6525 22.796L16.7587 19.9351C18.0714 19.0183 19.1412 17.8081 19.8789 16.4052C20.6166 15.0022 21.001 13.4472 21 11.8696V3.67203C21.0006 3.50764 20.9635 3.34522 20.8914 3.1967C20.8194 3.04817 20.7143 2.91732 20.5837 2.81376ZM18.75 11.8696C18.7509 13.0962 18.4522 14.3053 17.8789 15.3962C17.3055 16.4871 16.4741 17.4284 15.4537 18.1416L12 20.5513L8.54625 18.1416C7.52592 17.4284 6.69449 16.4871 6.12115 15.3962C5.54781 14.3053 5.24914 13.0962 5.25 11.8696V4.93742C7.60849 5.13486 9.97055 4.59964 12 3.40794C14.0295 4.59964 16.3915 5.13486 18.75 4.93742V11.8696Z" fill="#ADB5BD"/>
<path id="Vector_2" d="M8.4118 11.0161C8.31597 11.109 8.23991 11.2197 8.18801 11.3415C8.1361 11.4634 8.10938 11.5941 8.10938 11.7261C8.10938 11.8581 8.1361 11.9888 8.18801 12.1107C8.23991 12.2325 8.31597 12.3431 8.4118 12.4361L10.3748 14.3561C10.4699 14.4498 10.5829 14.5242 10.7075 14.575C10.8321 14.6257 10.9658 14.6519 11.1007 14.6519C11.2357 14.6519 11.3693 14.6257 11.4939 14.575C11.6185 14.5242 11.7316 14.4498 11.8266 14.3561L15.9981 10.2761C16.1099 10.1872 16.2012 10.0763 16.2661 9.95048C16.331 9.82469 16.368 9.68691 16.3746 9.54616C16.3813 9.40542 16.3574 9.26489 16.3047 9.13378C16.2519 9.00267 16.1714 8.88394 16.0685 8.78538C15.9655 8.68683 15.8425 8.61066 15.7073 8.56187C15.5722 8.51308 15.428 8.49277 15.2843 8.50228C15.1406 8.51179 15.0005 8.55089 14.8733 8.61704C14.7461 8.68318 14.6347 8.77487 14.5462 8.88609L11.1007 12.2361L9.86362 11.0161C9.76857 10.9224 9.65549 10.848 9.5309 10.7972C9.40631 10.7464 9.27268 10.7203 9.13771 10.7203C9.00274 10.7203 8.86911 10.7464 8.74452 10.7972C8.61993 10.848 8.50685 10.9224 8.4118 11.0161Z" fill="#ADB5BD"/>
</g>
</svg>
