<svg width="24" height="24" viewBox="0 0 24 24" fill="none" xmlns="http://www.w3.org/2000/svg">
<g id="ic_24_del">
<g id="vuesax/linear/trash">
<g id="trash">
<path id="Vector (Stroke)" fill-rule="evenodd" clip-rule="evenodd" d="M5.64962 5.86812C7.46198 5.4564 9.27694 5.25 11.0935 5.25C14.1199 5.25 17.1524 5.5966 20.1634 6.26798C20.5677 6.35812 20.8223 6.75894 20.7322 7.16322C20.642 7.56751 20.2412 7.82217 19.8369 7.73202C16.928 7.0834 14.0049 6.75 11.0935 6.75C9.39083 6.75 7.68657 6.94343 5.97971 7.33135L5.97505 7.33241L5.97505 7.33239L4.16172 7.73239C3.75723 7.82162 3.35699 7.56605 3.26777 7.16156C3.17854 6.75707 3.43411 6.35683 3.8386 6.26761L5.64962 5.86812Z" fill="#3B424B"/>
<path id="Vector (Stroke)_2" fill-rule="evenodd" clip-rule="evenodd" d="M9.93112 4.78288L9.74259 6.10581C9.68415 6.51588 9.30435 6.80094 8.89428 6.7425C8.48421 6.68406 8.19916 6.30426 8.2576 5.89419L8.44617 4.57096C8.44954 4.54739 8.45299 4.52283 8.45648 4.49794C8.51508 4.08059 8.59851 3.48644 8.94068 3.02918C9.36624 2.4605 10.0389 2.25 10.8772 2.25H13.123C13.9743 2.25 14.6448 2.47796 15.0662 3.05024C15.4086 3.51528 15.49 4.11163 15.5459 4.52164C15.5487 4.54233 15.5515 4.56255 15.5542 4.58224L15.7425 5.89339C15.8014 6.3034 15.5167 6.68351 15.1067 6.74238C14.6967 6.80126 14.3166 6.51662 14.2577 6.10661L14.0686 4.78966C13.9967 4.2704 13.9481 4.06154 13.8583 3.93966C13.8294 3.90038 13.7187 3.75 13.123 3.75H10.8772C10.2742 3.75 10.1665 3.89458 10.1425 3.92677C10.1422 3.92716 10.1419 3.92753 10.1417 3.92789C10.1108 3.96912 10.0718 4.04476 10.0334 4.19529C9.99376 4.35072 9.96679 4.53332 9.93112 4.78288Z" fill="#3B424B"/>
<path id="Vector (Stroke)_3" fill-rule="evenodd" clip-rule="evenodd" d="M5.95466 8.2514C6.36812 8.22635 6.7236 8.54121 6.74865 8.95466L7.31775 18.3474C7.31779 18.348 7.31783 18.3487 7.31788 18.3493C7.34261 18.7253 7.36351 19.0229 7.41252 19.2821C7.46047 19.5358 7.52642 19.6974 7.60693 19.8091C7.7334 19.9845 8.05619 20.25 9.18834 20.25H14.8117C15.9439 20.25 16.2667 19.9845 16.3931 19.8091C16.4736 19.6974 16.5396 19.5358 16.5875 19.2821C16.6365 19.0229 16.6574 18.7252 16.6822 18.3492C16.6822 18.3486 16.6823 18.348 16.6823 18.3474L17.2514 8.95466C17.2764 8.54121 17.6319 8.22635 18.0454 8.2514C18.4588 8.27645 18.7737 8.63193 18.7487 9.04538L18.1791 18.4458L18.1779 18.4638C18.1548 18.8147 18.1294 19.2011 18.0614 19.5608C17.9911 19.9326 17.8666 20.3302 17.6098 20.6863C17.0619 21.4464 16.1233 21.75 14.8117 21.75H9.18834C7.8767 21.75 6.93819 21.4464 6.3902 20.6863C6.13348 20.3302 6.00892 19.9326 5.93863 19.5608C5.87063 19.2011 5.84523 18.8147 5.82217 18.4638L5.82098 18.4458L5.82074 18.442L5.2514 9.04538C5.22635 8.63193 5.54121 8.27645 5.95466 8.2514Z" fill="#3B424B"/>
</g>
</g>
</g>
</svg>
