<svg width="24" height="24" viewBox="0 0 24 24" fill="none" xmlns="http://www.w3.org/2000/svg">
<g id="ic_24_filter_search">
<g id="vuesax/linear/filter-search">
<g id="filter-search">
<g id="Group">
<path id="Vector (Stroke)" fill-rule="evenodd" clip-rule="evenodd" d="M5.85963 3.55469C5.27549 3.55469 4.75 4.03273 4.75 4.75635V6.89215C4.75 7.03082 4.80182 7.27025 4.92709 7.54948C5.04956 7.82247 5.21173 8.0651 5.36805 8.22141L5.38133 8.23504L8.91646 11.9543C8.92907 11.9675 8.94119 11.9813 8.95279 11.9954C9.19926 12.296 9.42178 12.6906 9.58374 13.0962C9.74445 13.4986 9.86852 13.9692 9.86852 14.4226V19.3478C9.86852 20.2085 10.859 20.7493 11.6001 20.2967L12.8913 19.4634L12.9085 19.4526C12.9885 19.404 13.1161 19.2737 13.2275 19.0594C13.3369 18.849 13.3858 18.6431 13.3858 18.5101C13.3858 18.0959 13.7216 17.7601 14.1358 17.7601C14.55 17.7601 14.8858 18.0959 14.8858 18.5101C14.8858 18.9387 14.7505 19.3818 14.5584 19.7513C14.3699 20.114 14.0819 20.4913 13.6974 20.7284L12.4067 21.5614L12.3944 21.5692C10.7241 22.6019 8.36852 21.4678 8.36852 19.3478V14.4226C8.36852 14.2224 8.30848 13.9474 8.19071 13.6524C8.07874 13.3721 7.93558 13.1262 7.80835 12.9657L4.30016 9.27482C3.99025 8.96262 3.73614 8.55942 3.5585 8.16345C3.38228 7.77065 3.25 7.31504 3.25 6.89215V4.75635C3.25 3.25213 4.40003 2.05469 5.85963 2.05469H18.1404C19.5764 2.05469 20.75 3.22819 20.75 4.66429V6.70801C20.75 7.22337 20.5922 7.75131 20.39 8.19437C20.1868 8.63948 19.9076 9.06709 19.6005 9.37414C19.3076 9.66703 18.8328 9.66703 18.5399 9.37414C18.247 9.08125 18.247 8.60637 18.5399 8.31348C18.6931 8.16023 18.8788 7.89278 19.0254 7.5715C19.173 7.24816 19.25 6.93834 19.25 6.70801V4.66429C19.25 4.05665 18.748 3.55469 18.1404 3.55469H5.85963Z" fill="#ADB5BD"/>
</g>
<g id="Group_2">
<path id="Vector (Stroke)_2" fill-rule="evenodd" clip-rule="evenodd" d="M15.7428 11.0156C14.53 11.0156 13.5469 11.9988 13.5469 13.2116C13.5469 14.4243 14.53 15.4074 15.7428 15.4074C16.9556 15.4074 17.9387 14.4243 17.9387 13.2116C17.9387 11.9988 16.9556 11.0156 15.7428 11.0156ZM12.0469 13.2116C12.0469 11.1704 13.7016 9.51562 15.7428 9.51562C17.784 9.51562 19.4387 11.1704 19.4387 13.2116C19.4387 15.2528 17.784 16.9074 15.7428 16.9074C13.7016 16.9074 12.0469 15.2528 12.0469 13.2116Z" fill="#ADB5BD"/>
<path id="Vector (Stroke)_3" fill-rule="evenodd" clip-rule="evenodd" d="M17.79 15.2587C18.0829 14.9658 18.5577 14.9658 18.8506 15.2587L19.7712 16.1793C20.0641 16.4722 20.0641 16.9471 19.7712 17.24C19.4783 17.5329 19.0035 17.5329 18.7106 17.24L17.79 16.3194C17.4971 16.0265 17.4971 15.5516 17.79 15.2587Z" fill="#ADB5BD"/>
</g>
</g>
</g>
</g>
</svg>
