<svg width="24" height="24" viewBox="0 0 24 24" fill="none" xmlns="http://www.w3.org/2000/svg">
<g id="ic_24_handwriting">
<path id="Vector" fill-rule="evenodd" clip-rule="evenodd" d="M19.5538 12.5003V13.2503C19.5538 13.7145 19.3694 14.1596 19.0413 14.4878C18.7131 14.8159 18.2679 15.0003 17.8038 15.0003C17.3397 15.0003 16.8946 14.8159 16.5664 14.4878C16.2382 14.1596 16.0538 13.7145 16.0538 13.2503V9.00032C16.0538 8.73511 15.9485 8.48075 15.7609 8.29322C15.5734 8.10568 15.319 8.00032 15.0538 8.00032C14.8213 7.99515 14.5942 8.0712 14.4117 8.21539C14.2292 8.35958 14.1026 8.56289 14.0538 8.79032C13.3187 8.2819 12.4476 8.00662 11.5538 8.00032C10.801 7.99132 10.0579 8.17135 9.39269 8.52392C8.72746 8.87649 8.16132 9.39033 7.74612 10.0184C7.33093 10.6464 7.07995 11.3686 7.01617 12.1188C6.9524 12.869 7.07787 13.6232 7.38108 14.3123C7.6843 15.0015 8.15558 15.6035 8.75175 16.0633C9.34792 16.5231 10.0499 16.826 10.7935 16.9442C11.537 17.0624 12.2983 16.9922 13.0077 16.7399C13.7171 16.4876 14.3518 16.0614 14.8538 15.5003C15.329 16.1156 15.984 16.5676 16.728 16.7933C17.4719 17.0191 18.2676 17.0074 19.0046 16.7599C19.7416 16.5124 20.3831 16.0414 20.84 15.4124C21.2969 14.7834 21.5464 14.0277 21.5538 13.2503V12.5003C21.5538 12.167 21.3537 11.5002 20.5537 11.5002C19.7537 11.5002 19.5538 12.167 19.5538 12.5003ZM10.1649 14.579C10.576 14.8537 11.0594 15.0003 11.5538 15.0003C12.2169 15.0003 12.8527 14.7369 13.3216 14.2681C13.7904 13.7992 14.0538 13.1634 14.0538 12.5003C14.0538 12.0059 13.9072 11.5225 13.6325 11.1114C13.3578 10.7003 12.9673 10.3798 12.5105 10.1906C12.0537 10.0014 11.551 9.9519 11.0661 10.0484C10.5811 10.1448 10.1357 10.3829 9.78605 10.7326C9.43642 11.0822 9.19831 11.5276 9.10185 12.0126C9.00539 12.4975 9.0549 13.0002 9.24412 13.457C9.43334 13.9138 9.75377 14.3043 10.1649 14.579Z" fill="#ADB5BD"/>
<path id="Vector_2" d="M21 2H3C2.73478 2 2.48043 2.10536 2.29289 2.29289C2.10536 2.48043 2 2.73478 2 3V21C2 21.2652 2.10536 21.5196 2.29289 21.7071C2.48043 21.8946 2.73478 22 3 22H21C21.2652 22 21.5196 21.8946 21.7071 21.7071C21.8946 21.5196 22 21.2652 22 21V3C22 2.73478 21.8946 2.48043 21.7071 2.29289C21.5196 2.10536 21.2652 2 21 2ZM20 20H4V4H20V20Z" fill="#ADB5BD"/>
</g>
</svg>
