<svg width="24" height="24" viewBox="0 0 24 24" fill="none" xmlns="http://www.w3.org/2000/svg">
<g id="ic_24_internalwriting">
<path id="Vector" d="M21 17H13C12.4 17 12 17.4 12 18C12 18.6 12.4 19 13 19H21C21.6 19 22 18.6 22 18C22 17.4 21.6 17 21 17ZM21 13H13C12.4 13 12 13.4 12 14C12 14.6 12.4 15 13 15H21C21.6 15 22 14.6 22 14C22 13.4 21.6 13 21 13ZM13 7H21C21.6 7 22 6.6 22 6C22 5.4 21.6 5 21 5H13C12.4 5 12 5.4 12 6C12 6.6 12.4 7 13 7ZM21 9H13C12.4 9 12 9.4 12 10C12 10.6 12.4 11 13 11H21C21.6 11 22 10.6 22 10C22 9.4 21.6 9 21 9ZM8.99995 5C8.39995 5 7.99995 5.4 7.99995 6V18C7.99995 18.6 8.39995 19 8.99995 19C9.59995 19 9.99995 18.6 9.99995 18V6C9.99995 5.4 9.59995 5 8.99995 5ZM4.29995 9.6C4.69995 9.2 5.29995 9.3 5.69995 9.7C6.09995 10.1 5.99995 10.8 5.59995 11.1L4.49995 12L5.59995 12.9C5.79995 13.1 5.89995 13.4 5.89995 13.7C5.89995 14.3 5.49995 14.7 4.89995 14.7C4.69995 14.7 4.39995 14.6 4.29995 14.5L2.29995 12.8L2.19995 12.7C1.79995 12.3 1.89995 11.6 2.29995 11.3L4.29995 9.6Z" fill="black"/>
</g>
</svg>
