<svg width="24" height="24" viewBox="0 0 24 24" fill="none" xmlns="http://www.w3.org/2000/svg">
<g id="ic_24_cloud">
<g id="vuesax/linear/document-cloud">
<g id="document-cloud">
<g id="Group">
<path id="Vector (Stroke)" fill-rule="evenodd" clip-rule="evenodd" d="M4.70153 4.70153C5.76382 3.63923 7.33733 3.25 9.30646 3.25H13.0968C13.511 3.25 13.8468 3.58579 13.8468 4C13.8468 4.41421 13.511 4.75 13.0968 4.75H9.30646C7.48527 4.75 6.40554 5.11883 5.76219 5.76219C5.11883 6.40554 4.75 7.48527 4.75 9.30646V13.8549C4.75 15.6761 5.11883 16.7558 5.76219 17.3991C6.40554 18.0425 7.48527 18.4113 9.30646 18.4113C9.72068 18.4113 10.0565 18.7471 10.0565 19.1613C10.0565 19.5755 9.72068 19.9113 9.30646 19.9113C7.33733 19.9113 5.76382 19.5221 4.70153 18.4598C3.63923 17.3975 3.25 15.824 3.25 13.8549V9.30646C3.25 7.33733 3.63923 5.76382 4.70153 4.70153Z" fill="#3B424B"/>
<path id="Vector (Stroke)_2" fill-rule="evenodd" clip-rule="evenodd" d="M19.1641 9.3125C19.5783 9.3125 19.9141 9.64829 19.9141 10.0625V12.3367C19.9141 12.7509 19.5783 13.0867 19.1641 13.0867C18.7498 13.0867 18.4141 12.7509 18.4141 12.3367V10.0625C18.4141 9.64829 18.7498 9.3125 19.1641 9.3125Z" fill="#3B424B"/>
<path id="Vector (Stroke)_3" fill-rule="evenodd" clip-rule="evenodd" d="M12.8067 3.30711C13.087 3.19103 13.4096 3.25519 13.6241 3.46969L19.6886 9.53422C19.9031 9.74872 19.9673 10.0713 19.8512 10.3516C19.7351 10.6318 19.4616 10.8146 19.1583 10.8146H16.126C14.9474 10.8146 13.9229 10.6278 13.2267 9.93157C12.5305 9.23536 12.3438 8.21094 12.3438 7.03229V4.00002C12.3438 3.69668 12.5265 3.4232 12.8067 3.30711ZM13.8438 5.81068V7.03229C13.8438 8.12784 14.036 8.61954 14.2874 8.87091C14.5388 9.12228 15.0305 9.31455 16.126 9.31455H17.3476L13.8438 5.81068Z" fill="#3B424B"/>
</g>
<g id="Group_2">
<path id="Vector (Stroke)_4" fill-rule="evenodd" clip-rule="evenodd" d="M18.7264 14.9223C18.4614 13.999 17.9256 13.3207 17.2282 12.9113C16.4274 12.4413 15.4849 12.3676 14.6476 12.587C13.8103 12.8066 13.0249 13.3332 12.5557 14.1347C12.1936 14.7532 12.0441 15.4941 12.1666 16.3057C10.1354 17.1846 10.4161 20.5651 13.0086 20.7526C13.0266 20.7539 13.0446 20.7546 13.0627 20.7546H17.7458C18.4888 20.7546 19.2244 20.4799 19.7791 19.9738C21.5052 18.4578 20.7942 15.5901 18.7264 14.9223ZM13.0342 17.6116C13.1325 17.6176 13.2337 17.6042 13.3323 17.5689C13.7223 17.4293 13.9252 17 13.7856 16.6101C13.5156 15.8556 13.6175 15.29 13.8502 14.8925C14.0933 14.4773 14.5239 14.1702 15.028 14.038C15.5321 13.9059 16.0562 13.9627 16.4689 14.2049C16.8637 14.4367 17.228 14.8796 17.3598 15.6719C17.4142 15.9994 17.6775 16.2521 18.007 16.2931C19.1901 16.4403 19.6883 18.0621 18.7857 18.8499L18.7715 18.8626C18.5016 19.1105 18.1283 19.2546 17.7458 19.2546H13.0933C12.0932 19.1606 12.0735 17.7572 13.0342 17.6116Z" fill="#3B424B"/>
</g>
</g>
</g>
</g>
</svg>
