<svg width="24" height="24" viewBox="0 0 24 24" fill="none" xmlns="http://www.w3.org/2000/svg">
<g id="ic_24_stamp">
<path id="Vector 165 (Stroke)" fill-rule="evenodd" clip-rule="evenodd" d="M7.82969 5.13917C8.88183 3.77519 10.5722 3 12 3C13.4247 3 15.0366 3.73563 16.0502 5.09548C17.1067 6.51296 17.4484 8.51219 16.4804 10.8667C16.2722 11.3732 16.0633 11.8136 15.8809 12.1979C15.8581 12.2461 15.8356 12.2934 15.8137 12.3398C15.6118 12.7666 15.4536 13.1128 15.3349 13.4592C15.1739 13.9291 15.0757 14.427 15.1112 15.1081H20C20.5523 15.1081 21 15.5558 21 16.1081V20C21 20.5523 20.5523 21 20 21H4C3.44772 21 3 20.5523 3 20V16.1081C3 15.5558 3.44772 15.1081 4 15.1081H8.8284C8.82449 14.955 8.81187 14.7746 8.78501 14.5525C8.68973 13.7645 8.3963 12.5807 7.55501 10.9436C6.36271 8.62339 6.71544 6.58368 7.82969 5.13917ZM9.4133 6.36072C8.79374 7.16391 8.47981 8.36744 9.33388 10.0294C10.2704 11.8518 10.6436 13.2625 10.7705 14.3124C10.888 15.2834 10.7778 16.1334 10.7778 16.1081C10.7778 16.6604 10.3301 17.1081 9.77778 17.1081H5V19H19V17.1081H14.2222C13.7351 17.1081 13.3188 16.7571 13.2366 16.2769C12.988 14.8256 13.1073 13.7904 13.4429 12.811C13.6019 12.3467 13.8049 11.9091 14.0058 11.4845C14.0285 11.4364 14.0513 11.3884 14.0742 11.3402C14.2576 10.9533 14.4438 10.5608 14.6307 10.1063C15.3621 8.32705 15.0372 7.08304 14.4466 6.2907C13.8131 5.44075 12.7975 5 12 5C11.2056 5 10.095 5.47699 9.4133 6.36072Z" fill="#ADB5BD"/>
</g>
</svg>
