<svg width="16" height="16" viewBox="0 0 16 16" fill="none" xmlns="http://www.w3.org/2000/svg">
<g id="ic_20_search">
<path id="Vector (Stroke)" fill-rule="evenodd" clip-rule="evenodd" d="M7.5 13.2C10.648 13.2 13.2 10.648 13.2 7.5C13.2 4.35198 10.648 1.8 7.5 1.8C4.35198 1.8 1.8 4.35198 1.8 7.5C1.8 10.648 4.35198 13.2 7.5 13.2ZM15 7.5C15 11.6421 11.6421 15 7.5 15C3.35786 15 0 11.6421 0 7.5C0 3.35786 3.35786 0 7.5 0C11.6421 0 15 3.35786 15 7.5Z" fill="#8D969E"/>
<path id="Line 55 (Stroke)" fill-rule="evenodd" clip-rule="evenodd" d="M11.6605 11.6676C12.012 11.3162 12.5818 11.3162 12.9333 11.6676L15.6605 14.3949C16.012 14.7463 16.012 15.3162 15.6605 15.6676C15.309 16.0191 14.7392 16.0191 14.3877 15.6676L11.6605 12.9404C11.309 12.589 11.309 12.0191 11.6605 11.6676Z" fill="#8D969E"/>
</g>
</svg>
