<svg width="20" height="21" viewBox="0 0 20 21" fill="none" xmlns="http://www.w3.org/2000/svg">
<g id="ic_24_setting_n">
<path fill-rule="evenodd" clip-rule="evenodd" d="M11.4285 7.15288C9.7172 6.16487 7.52905 6.7512 6.54104 8.4625C5.55304 10.1737 6.13937 12.3619 7.85064 13.35C9.5619 14.338 11.7501 13.7516 12.7381 12.0404C13.7261 10.3291 13.1398 8.1409 11.4285 7.15288ZM7.78046 9.1781C8.3733 8.1513 9.6862 7.79949 10.7129 8.3923C11.7397 8.9851 12.0915 10.298 11.4987 11.3248C10.9059 12.3515 9.593 12.7033 8.5662 12.1105C7.53945 11.5177 7.18766 10.2048 7.78046 9.1781Z" fill="#3B424B"/>
<path fill-rule="evenodd" clip-rule="evenodd" d="M13.0175 2.29696C13.0011 1.0431 11.9865 -0.00590676 10.7016 0.00729324L8.8053 2.33841e-05C7.40706 -0.00595662 6.2726 1.13579 6.27304 2.52194C6.27425 3.2353 6.02851 3.54965 5.83492 3.66162C5.64123 3.77366 5.24747 3.83004 4.63172 3.47453C3.41975 2.77481 1.87041 3.20052 1.1779 4.39998L0.338288 5.85423C-0.354222 7.05369 0.0517679 8.6083 1.26374 9.308C1.87949 9.6635 2.02755 10.0327 2.02737 10.2565C2.02718 10.4801 1.87868 10.8496 1.26029 11.2053C0.0596278 11.898 -0.362562 13.4522 0.341748 14.6601L1.29598 16.2984C1.92706 17.4177 3.3428 17.7719 4.43685 17.1592L4.62575 17.0504C5.24427 16.6948 5.64017 16.7511 5.83497 16.8636C6.02883 16.9755 6.27377 17.2877 6.27158 17.9976L6.27178 18.2101L6.27189 18.2186C6.2883 19.4725 7.30285 20.5214 8.5878 20.5083L10.4841 20.5156C11.8833 20.5215 13.0102 19.3878 13.0164 17.997V17.9926C13.0151 17.2793 13.2609 16.9659 13.4545 16.854C13.6482 16.7419 14.0419 16.6855 14.6577 17.041C15.8696 17.7408 17.419 17.3151 18.1115 16.1156L18.9511 14.6613C19.6508 13.4494 19.2251 11.9 18.0257 11.2075C17.4099 10.852 17.2619 10.4828 17.262 10.2591C17.2622 10.0354 17.4107 9.6659 18.0291 9.3103C19.2299 8.6175 19.6523 7.06344 18.9477 5.85545L17.9935 4.21729C17.3624 3.09787 15.9466 2.74367 14.8526 3.35639L14.6636 3.46515C14.0451 3.82076 13.6492 3.76445 13.4544 3.65198C13.2606 3.54005 13.0156 3.22783 13.0178 2.51799L13.0176 2.30547L13.0175 2.29696ZM10.7137 1.43839C11.1784 1.43231 11.578 1.81585 11.5864 2.31202L11.5867 2.51358V2.51528C11.5839 3.53135 11.9478 4.4347 12.7389 4.8914C13.5294 5.3478 14.4956 5.21275 15.3777 4.70542L15.5551 4.60332C15.989 4.36254 16.5209 4.51688 16.7479 4.92238L17.7114 6.57654C18.0144 7.09599 17.8321 7.77147 17.3151 8.07C16.4329 8.5775 15.8316 9.3448 15.8309 10.2579C15.8301 11.1711 16.4303 11.939 17.3101 12.4469C17.8293 12.7467 18.0138 13.4226 17.7117 13.9458L16.8721 15.4C16.5723 15.9192 15.8965 16.1037 15.3733 15.8016C14.4934 15.2937 13.5284 15.1579 12.7379 15.6151C11.948 16.072 11.5841 16.9755 11.5852 17.9925C11.5815 18.6007 11.0895 19.0871 10.4896 19.0844L8.5878 19.077L8.5757 19.0772C8.111 19.0833 7.7114 18.6997 7.70298 18.2036L7.70273 18.002V18.0006C7.70553 16.9844 7.34166 16.0809 6.55054 15.6242C5.76004 15.1678 4.79384 15.3028 3.91166 15.8102L3.73429 15.9123C3.30039 16.153 2.76854 15.9987 2.54146 15.5932L1.57796 13.939C1.275 13.4196 1.45727 12.7443 1.9741 12.4457C2.85641 11.9382 3.45778 11.1709 3.45852 10.2577C3.45926 9.3445 2.85913 8.5766 1.97932 8.0686C1.4561 7.76655 1.27795 7.089 1.57771 6.5698L2.41732 5.11556C2.71707 4.59636 3.39293 4.41187 3.91614 4.71395C4.79595 5.22191 5.76101 5.3577 6.5515 4.90046C7.34188 4.44328 7.70571 3.53904 7.7042 2.52138C7.70406 1.92429 8.1984 1.42849 8.7998 1.43117L10.7016 1.43855L10.7137 1.43839Z" fill="#3B424B"/>
</g>
</svg>
