<svg width="24" height="24" viewBox="0 0 24 24" fill="none" xmlns="http://www.w3.org/2000/svg">
<path fill-rule="evenodd" clip-rule="evenodd" d="M5.02777 4.75011C4.92289 4.75011 4.74682 4.84984 4.75004 5.11771L4.75015 5.12671L4.75009 6.36514C4.75009 6.39169 4.7643 6.48853 4.82443 6.62734C4.8822 6.76071 4.95423 6.86739 5.00899 6.92443L5.02259 6.93899L6.98595 9.09629C7.00061 9.1124 7.01455 9.12913 7.02775 9.14644C7.18217 9.34902 7.31802 9.60436 7.41638 9.86119C7.5133 10.1142 7.59541 10.4248 7.59541 10.7357V13.5881C7.59541 13.8683 7.87336 13.9781 8.03899 13.8784L8.7492 13.3982L8.7548 13.3945C8.75735 13.3921 8.76265 13.3866 8.77022 13.3773C8.7879 13.3555 8.80944 13.3231 8.83008 13.2818C8.85057 13.2408 8.86616 13.1991 8.876 13.1622C8.88082 13.1441 8.88374 13.1292 8.88538 13.1178C8.88704 13.1063 8.88708 13.1007 8.88708 13.1007V10.7836C8.88708 10.4571 8.96327 10.1195 9.08418 9.82205C9.20262 9.53066 9.38657 9.2225 9.64769 8.98906L11.8413 6.97165C11.8977 6.90587 11.975 6.78822 12.0396 6.64029C12.111 6.47659 12.1389 6.34008 12.1389 6.26127V5.07877C12.1389 4.87246 11.9782 4.75011 11.8535 4.75011H5.02777ZM3.25009 5.13067C3.24054 4.12227 3.99928 3.25011 5.02777 3.25011H11.8535C12.864 3.25011 13.6389 4.10256 13.6389 5.07877V6.26127C13.6389 6.61392 13.5364 6.96081 13.4142 7.24057C13.2911 7.52246 13.1199 7.80052 12.9238 8.01098C12.9107 8.0251 12.897 8.03871 12.8827 8.05177L10.6483 10.1068C10.6058 10.1443 10.5347 10.2371 10.4738 10.3869C10.4144 10.5329 10.3871 10.6787 10.3871 10.7836V13.1007C10.3871 13.4049 10.2941 13.7078 10.1718 13.9524C10.0532 14.1897 9.86162 14.4628 9.5837 14.6447L8.86838 15.1283L8.8523 15.1389C7.6674 15.8963 6.09541 15.0307 6.09541 13.5881V10.7357C6.09541 10.6711 6.07399 10.5501 6.0156 10.3977C5.96416 10.2634 5.90106 10.149 5.85053 10.0773L3.91912 7.95507C3.71679 7.74181 3.55757 7.47649 3.44801 7.22355C3.33942 6.97285 3.25009 6.66619 3.25009 6.36514V5.13067Z" fill="#099A96"/>
<path fill-rule="evenodd" clip-rule="evenodd" d="M15.2198 3.87928C15.2865 3.47047 15.672 3.19318 16.0808 3.25991C16.4649 3.32261 16.8786 3.40164 17.256 3.49823C17.6175 3.59077 18.0049 3.71373 18.3008 3.88377C20.1009 4.91123 20.75 6.85176 20.75 9.4738V14.3321C20.75 16.4285 20.3406 18.0909 19.2335 19.2114C18.1242 20.3342 16.4759 20.7501 14.4 20.7501H9.6C7.52409 20.7501 5.87578 20.3342 4.76648 19.2114C3.65939 18.0909 3.25 16.4285 3.25 14.3321V11.903C3.25 11.4887 3.58579 11.153 4 11.153C4.41421 11.153 4.75 11.4887 4.75 11.903V14.3321C4.75 16.2843 5.1406 17.4559 5.83352 18.1572C6.52422 18.8563 7.67591 19.2501 9.6 19.2501H14.4C16.3241 19.2501 17.4758 18.8563 18.1665 18.1572C18.8594 17.4559 19.25 16.2843 19.25 14.3321V9.4738C19.25 7.04383 18.6514 5.81055 17.5564 5.18601L17.5539 5.18456C17.442 5.12016 17.218 5.03686 16.884 4.95139C16.5654 4.86984 16.1991 4.79908 15.8392 4.74032C15.4304 4.67358 15.1531 4.28808 15.2198 3.87928Z" fill="#099A96"/>
</svg>
