<svg width="19" height="20" viewBox="0 0 19 20" fill="none" xmlns="http://www.w3.org/2000/svg">
<g id="ic_24_form_01_w">
<path fill-rule="evenodd" clip-rule="evenodd" d="M4.74219 14.2188C4.74219 13.8045 5.07797 13.4688 5.49219 13.4688H12.7122C13.1264 13.4688 13.4622 13.8045 13.4622 14.2188C13.4622 14.633 13.1264 14.9688 12.7122 14.9688H5.49219C5.07797 14.9688 4.74219 14.633 4.74219 14.2188Z" fill="white"/>
<path fill-rule="evenodd" clip-rule="evenodd" d="M4.74219 10.0312C4.74219 9.617 5.07797 9.2812 5.49219 9.2812H12.7122C13.1264 9.2812 13.4622 9.617 13.4622 10.0312C13.4622 10.4455 13.1264 10.7812 12.7122 10.7812H5.49219C5.07797 10.7812 4.74219 10.4455 4.74219 10.0312Z" fill="white"/>
<path fill-rule="evenodd" clip-rule="evenodd" d="M4.74219 5.85938C4.74219 5.44516 5.07797 5.10938 5.49219 5.10938H8.2472C8.6614 5.10938 8.9972 5.44516 8.9972 5.85938C8.9972 6.27359 8.6614 6.60938 8.2472 6.60938H5.49219C5.07797 6.60938 4.74219 6.27359 4.74219 5.85938Z" fill="white"/>
<path fill-rule="evenodd" clip-rule="evenodd" d="M12.908 0C14.4684 0 15.8017 0.51495 16.7441 1.48761C17.6837 2.45737 18.165 3.80983 18.165 5.357V14.553C18.165 16.0929 17.6872 17.4393 16.7554 18.4075C15.8207 19.3785 14.498 19.8974 12.9496 19.907L5.25664 19.91C3.6962 19.91 2.36245 19.395 1.42028 18.4223C0.48095 17.4525 0 16.1001 0 14.553V5.357C0 3.81725 0.47746 2.47105 1.40912 1.50304C2.34357 0.53213 3.66606 0.01355 5.21438 0.00400996L5.219 0.00398993L12.908 0ZM12.9082 1.5L5.22362 1.50399L5.22158 1.504C4.01091 1.51189 3.09959 1.90972 2.48988 2.54321C1.87704 3.17995 1.5 4.12675 1.5 5.357V14.553C1.5 15.7899 1.88005 16.741 2.49772 17.3787C3.11251 18.0134 4.03234 18.41 5.25579 18.41L12.9423 18.407C14.1529 18.3991 15.0646 18.0011 15.6746 17.3673C16.2878 16.7302 16.665 15.7831 16.665 14.553V5.357C16.665 4.12017 16.2848 3.16913 15.6669 2.53139C15.0518 1.8966 14.1316 1.50007 12.9082 1.5Z" fill="white"/>
</g>
</svg>
