<svg width="24" height="24" viewBox="0 0 24 24" fill="none" xmlns="http://www.w3.org/2000/svg">
<path fill-rule="evenodd" clip-rule="evenodd" d="M8.52769 4.87916C8.46096 4.47036 8.07546 4.19306 7.66665 4.2598C7.30586 4.3187 6.91654 4.39305 6.56091 4.48408C6.22112 4.57105 5.85285 4.68756 5.56967 4.85026C3.8601 5.8261 3.25 7.66743 3.25 10.1316V14.6862C3.25 16.6561 3.6344 18.23 4.68523 19.2936C5.73828 20.3594 7.29909 20.75 9.25 20.75H13.75C15.7009 20.75 17.2617 20.3594 18.3148 19.2936C19.3656 18.23 19.75 16.6561 19.75 14.6862V12.4089C19.75 11.9947 19.4142 11.6589 19 11.6589C18.5858 11.6589 18.25 11.9947 18.25 12.4089V14.6862C18.25 16.5119 17.8844 17.5949 17.2477 18.2393C16.6133 18.8815 15.5491 19.25 13.75 19.25H9.25C7.45091 19.25 6.38672 18.8815 5.75227 18.2393C5.11561 17.5949 4.75 16.5119 4.75 14.6862V10.1316C4.75 7.85951 5.30964 6.72542 6.31411 6.15249L6.31663 6.15104C6.41578 6.09398 6.62066 6.01714 6.93285 5.93723C7.22971 5.86125 7.57162 5.79517 7.90833 5.7402C8.31713 5.67346 8.59443 5.28796 8.52769 4.87916Z" fill="#099A96"/>
<path fill-rule="evenodd" clip-rule="evenodd" d="M15.2 3.75C13.8469 3.75 12.75 4.84691 12.75 6.20001C12.75 7.5531 13.8469 8.64999 15.2 8.64999C16.5531 8.64999 17.65 7.5531 17.65 6.20001C17.65 4.84691 16.5531 3.75 15.2 3.75ZM11.25 6.20001C11.25 4.01849 13.0185 2.25 15.2 2.25C17.3815 2.25 19.15 4.01849 19.15 6.20001C19.15 8.38155 17.3815 10.15 15.2 10.15C13.0185 10.15 11.25 8.38155 11.25 6.20001Z" fill="#099A96"/>
<path fill-rule="evenodd" clip-rule="evenodd" d="M17.4697 8.46967C17.7626 8.17678 18.2374 8.17678 18.5303 8.46967L19.5303 9.46967C19.8232 9.76256 19.8232 10.2374 19.5303 10.5303C19.2374 10.8232 18.7626 10.8232 18.4697 10.5303L17.4697 9.53033C17.1768 9.23744 17.1768 8.76256 17.4697 8.46967Z" fill="#099A96"/>
</svg>
