<svg width="24" height="24" viewBox="0 0 24 24" fill="none" xmlns="http://www.w3.org/2000/svg">
<g id="ic_24_folder">
<g id="Folder">
<path id="Folder_2" d="M20.3116 12.6095C20.6918 12.6095 21 12.3012 21 11.9208V11.0026C21 7.36148 19.378 5.5884 16.0549 5.5884H13.6022C13.2029 5.59029 12.8255 5.40592 12.5815 5.08972L11.7903 4.03695C11.2792 3.38079 10.4935 2.998 9.66198 3.00001H7.93714C4.66154 3.00001 3 4.89183 3 8.62797V15.3799C3 18.847 5.15209 21 8.62549 21H15.3666C18.8321 21 20.9921 18.847 20.9921 15.3799C20.9542 15.026 20.6556 14.7575 20.2998 14.7575C19.9439 14.7575 19.6454 15.026 19.6075 15.3799C19.6075 18.1108 18.1042 19.6227 15.3666 19.6227H8.61758C5.88 19.6227 4.3767 18.1187 4.3767 15.3799V14.723H15.4536C15.8338 14.723 16.142 14.4146 16.142 14.0343C16.142 13.654 15.8338 13.3456 15.4536 13.3456H4.3767V8.59631C4.3767 5.62006 5.43692 4.34565 7.92923 4.34565H9.66989C10.0691 4.35156 10.4443 4.53777 10.6905 4.85225L11.4818 5.8971C11.984 6.56287 12.7685 6.95532 13.6022 6.95779H16.047C18.6185 6.95779 19.6154 8.10555 19.6154 11.0026V11.9208C19.6154 12.1049 19.689 12.2812 19.8198 12.4106C19.9506 12.54 20.1277 12.6116 20.3116 12.6095Z" fill="#3B424B"/>
</g>
</g>
</svg>
