<svg width="20" height="20" viewBox="0 0 20 20" fill="none" xmlns="http://www.w3.org/2000/svg">
<g id="ic_20_down">
<path id="Vector" d="M8.9458 14.3708L1.2958 6.71079C1.20207 6.61783 1.12768 6.50723 1.07691 6.38537C1.02614 6.26351 1 6.1328 1 6.00079C1 5.86878 1.02614 5.73808 1.07691 5.61622C1.12768 5.49436 1.20207 5.38376 1.2958 5.29079C1.48316 5.10454 1.73661 5 2.0008 5C2.26498 5 2.51844 5.10454 2.7058 5.29079L9.7058 12.2408L16.6558 5.29079C16.8432 5.10454 17.0966 5 17.3608 5C17.625 5 17.8784 5.10454 18.0658 5.29079C18.1603 5.38341 18.2355 5.49385 18.287 5.61573C18.3384 5.7376 18.3652 5.86849 18.3658 6.00079C18.3652 6.1331 18.3384 6.26398 18.287 6.38586C18.2355 6.50773 18.1603 6.61818 18.0658 6.71079L10.4158 14.3708C10.3222 14.4723 10.2085 14.5533 10.082 14.6087C9.9555 14.6641 9.8189 14.6927 9.6808 14.6927C9.5427 14.6927 9.40609 14.6641 9.27959 14.6087C9.15309 14.5533 9.03944 14.4723 8.9458 14.3708Z" fill="#16191C"/>
</g>
</svg>
