<svg width="20" height="20" viewBox="0 0 20 20" fill="none" xmlns="http://www.w3.org/2000/svg">
<path id="ic_24_contract" fill-rule="evenodd" clip-rule="evenodd" d="M6.19289 8.2375L13.5424 0.900203C14.746 -0.300068 16.6966 -0.300068 17.9001 0.900203L19.0972 2.09534C20.3009 3.29702 20.3009 5.246 19.0972 6.44638L11.7126 13.8188C11.1739 14.3566 10.4434 14.6589 9.6815 14.6589H5.99751C5.58297 14.6589 5.24985 14.3179 5.26015 13.9042L5.3526 10.1927C5.37114 9.4577 5.67186 8.7577 6.19289 8.2375ZM18.0541 3.13671L16.8576 1.94213C16.23 1.31624 15.2125 1.31624 14.5852 1.94185L13.9798 2.5463L17.4487 6.00947L18.0544 5.40474C18.6816 4.77924 18.6816 3.76316 18.0541 3.13671ZM16.4056 7.05083L12.9367 3.58767L7.23598 9.2789C6.98257 9.5319 6.83631 9.8724 6.8273 10.2296L6.75298 13.1853L9.6815 13.1862C10.0057 13.1862 10.3183 13.0736 10.567 12.8701L10.6695 12.7774L16.4056 7.05083ZM9.3348 0.0390628C9.7422 0.0390628 10.0724 0.368743 10.0724 0.775423C10.0724 1.14821 9.7949 1.45629 9.4349 1.50505L9.3348 1.51177H5.65773C3.17793 1.51177 1.5717 3.15405 1.47937 5.70441L1.47516 5.93874V14.1015C1.47516 16.7097 3.00328 18.4253 5.43426 18.524L5.65773 18.5285H14.3356C16.8216 18.5285 18.4229 16.8897 18.515 14.3361L18.5192 14.1015V10.1468C18.5192 9.7401 18.8494 9.4104 19.2567 9.4104C19.6301 9.4104 19.9387 9.6874 19.9876 10.0468L19.9943 10.1468V14.1015C19.9943 17.5006 17.8376 19.8906 14.5657 19.9974L14.3356 20.0012H5.65773C2.33531 20.0012 0.10323 17.6883 0.00348997 14.337L0 14.1015V5.93874C0 2.54295 2.16225 0.149833 5.4281 0.0428026L5.65773 0.0390628H9.3348Z" fill="#3B424B"/>
</svg>
