<svg width="34" height="34" viewBox="0 0 34 34" fill="none" xmlns="http://www.w3.org/2000/svg">
<g id="ic_client">
<circle id="avatar_Kopie" cx="17" cy="17" r="17" fill="#3B424B"/>
<path id="Ellipse 86" d="M24 18.3333V16C24 12.134 20.866 9 17 9C13.134 9 10 12.134 10 16V18.3333" stroke="white" stroke-width="1.5" stroke-linecap="round"/>
<path id="Rectangle 22" d="M10 18.3359H12.1111C12.6634 18.3359 13.1111 18.7837 13.1111 19.3359V21.447C13.1111 22.3062 12.4147 23.0026 11.5556 23.0026V23.0026C10.6964 23.0026 10 22.3062 10 21.447V18.3359Z" stroke="white" stroke-width="1.5" stroke-linecap="round"/>
<path id="Rectangle 23" d="M20.8906 19.3359C20.8906 18.7837 21.3383 18.3359 21.8906 18.3359H24.0017V21.447C24.0017 22.3062 23.3053 23.0026 22.4462 23.0026V23.0026C21.5871 23.0026 20.8906 22.3062 20.8906 21.447V19.3359Z" stroke="white" stroke-width="1.5" stroke-linecap="round"/>
</g>
</svg>
