<svg width="32" height="32" viewBox="0 0 32 32" fill="none" xmlns="http://www.w3.org/2000/svg">
<path d="M16 3C13.4288 3 10.9154 3.76244 8.77759 5.19089C6.63975 6.61935 4.97351 8.64967 3.98957 11.0251C3.00563 13.4006 2.74819 16.0144 3.2498 18.5362C3.7514 21.0579 4.98953 23.3743 6.80762 25.1924C8.6257 27.0105 10.9421 28.2486 13.4638 28.7502C15.9856 29.2518 18.5994 28.9944 20.9749 28.0104C23.3503 27.0265 25.3806 25.3602 26.8091 23.2224C28.2376 21.0846 29 18.5712 29 16C29 14.2928 28.6637 12.6023 28.0104 11.0251C27.3571 9.44788 26.3995 8.01477 25.1924 6.80761C23.9852 5.60045 22.5521 4.64288 20.9749 3.98957C19.3977 3.33625 17.7072 3 16 3Z" fill="#099A96"/>
<path d="M21.2 14.7H17.3V10.8C17.3 10.4552 17.163 10.1246 16.9192 9.88076C16.6754 9.63696 16.3448 9.5 16 9.5C15.6552 9.5 15.3246 9.63696 15.0808 9.88076C14.837 10.1246 14.7 10.4552 14.7 10.8V14.7H10.8C10.4552 14.7 10.1246 14.837 9.88076 15.0808C9.63696 15.3246 9.5 15.6552 9.5 16C9.5 16.3448 9.63696 16.6754 9.88076 16.9192C10.1246 17.163 10.4552 17.3 10.8 17.3H14.7V21.2C14.7 21.5448 14.837 21.8754 15.0808 22.1192C15.3246 22.363 15.6552 22.5 16 22.5C16.3448 22.5 16.6754 22.363 16.9192 22.1192C17.163 21.8754 17.3 21.5448 17.3 21.2V17.3H21.2C21.5448 17.3 21.8754 17.163 22.1192 16.9192C22.363 16.6754 22.5 16.3448 22.5 16C22.5 15.6552 22.363 15.3246 22.1192 15.0808C21.8754 14.837 21.5448 14.7 21.2 14.7Z" fill="white"/>
</svg>
