<svg width="22" height="22" viewBox="0 0 22 22" fill="none" xmlns="http://www.w3.org/2000/svg">
<g id="profile_modify">
<path id="Vector" d="M22 11C22 17.0751 17.0751 22 11 22C4.92487 22 0 17.0751 0 11C0 4.92487 4.92487 0 11 0C17.0751 0 22 4.92487 22 11Z" fill="#099A96"/>
<path id="Vector_2" fill-rule="evenodd" clip-rule="evenodd" d="M6.69624 11.1474L12.1809 5.67179C13.0791 4.77607 14.5348 4.77607 15.4329 5.67179L16.3263 6.56368C17.2246 7.46045 17.2246 8.9149 16.3263 9.81071L10.8154 15.3125C10.4134 15.7138 9.86821 15.9394 9.29965 15.9394H6.55043C6.24108 15.9394 5.99248 15.685 6.00017 15.3762L6.06917 12.6065C6.083 12.058 6.30741 11.5356 6.69624 11.1474ZM15.5479 7.34081L14.6549 6.44934C14.1866 5.98226 13.4273 5.98226 12.9591 6.44913L12.5073 6.90022L15.096 9.48466L15.5481 9.03336C16.0162 8.56658 16.0162 7.80831 15.5479 7.34081ZM14.3176 10.2618L11.7289 7.67735L7.47466 11.9245C7.28555 12.1133 7.1764 12.3674 7.16968 12.634L7.11422 14.8397L9.29965 14.8404C9.5416 14.8404 9.77487 14.7564 9.96047 14.6045L10.037 14.5353L14.3176 10.2618Z" fill="white"/>
</g>
</svg>
