<svg width="120" height="82" viewBox="0 0 120 82" fill="none" xmlns="http://www.w3.org/2000/svg">
<g id="tap_p_s_s" clip-path="url(#clip0_355_10445)">
<g id="Mask group">
<mask id="mask0_355_10445" style="mask-type:alpha" maskUnits="userSpaceOnUse" x="0" y="0" width="120" height="82">
<g id="Group">
<path id="Vector" d="M120 0H0V82H120V0Z" fill="#D9D9D9"/>
</g>
</mask>
<g mask="url(#mask0_355_10445)">
<g id="Group_2">
<g id="Group_3" filter="url(#filter0_d_355_10445)">
<path id="Vector_2" fill-rule="evenodd" clip-rule="evenodd" d="M120 8V16H112C116.418 16 120 12.4182 120 8Z" fill="white"/>
<path id="Vector_3" fill-rule="evenodd" clip-rule="evenodd" d="M120 74V66H112C116.418 66 120 69.5818 120 74Z" fill="white"/>
<path id="Vector_4" d="M20 32C20 23.1634 27.1634 16 36 16H120V66H36C27.1634 66 20 58.8366 20 50V32Z" fill="white"/>
</g>
</g>
</g>
</g>
<rect id="Rectangle 1427" x="20" y="16" width="67" height="50" rx="5" fill="white"/>
</g>
<defs>
<filter id="filter0_d_355_10445" x="0" y="-12" width="140" height="106" filterUnits="userSpaceOnUse" color-interpolation-filters="sRGB">
<feFlood flood-opacity="0" result="BackgroundImageFix"/>
<feColorMatrix in="SourceAlpha" type="matrix" values="0 0 0 0 0 0 0 0 0 0 0 0 0 0 0 0 0 0 127 0" result="hardAlpha"/>
<feOffset/>
<feGaussianBlur stdDeviation="10"/>
<feComposite in2="hardAlpha" operator="out"/>
<feColorMatrix type="matrix" values="0 0 0 0 0.376471 0 0 0 0 0.372549 0 0 0 0 1 0 0 0 0.1 0"/>
<feBlend mode="normal" in2="BackgroundImageFix" result="effect1_dropShadow_355_10445"/>
<feBlend mode="normal" in="SourceGraphic" in2="effect1_dropShadow_355_10445" result="shape"/>
</filter>
<clipPath id="clip0_355_10445">
<rect width="120" height="82" fill="white"/>
</clipPath>
</defs>
</svg>
