<svg width="24" height="24" viewBox="0 0 24 24" fill="none" xmlns="http://www.w3.org/2000/svg">
<g id="ic_24_mic_g">
<path id="keyboard_voice" d="M12 14.5C11.1667 14.5 10.4583 14.2083 9.875 13.625C9.29167 13.0417 9 12.3333 9 11.5V5.5C9 4.66667 9.29167 3.95833 9.875 3.375C10.4583 2.79167 11.1667 2.5 12 2.5C12.8333 2.5 13.5417 2.79167 14.125 3.375C14.7083 3.95833 15 4.66667 15 5.5V11.5C15 12.3333 14.7083 13.0417 14.125 13.625C13.5417 14.2083 12.8333 14.5 12 14.5ZM11 21.5V18.425C9.26667 18.1917 7.83333 17.4167 6.7 16.1C5.56667 14.7833 5 13.25 5 11.5H7C7 12.8833 7.48767 14.0623 8.463 15.037C9.43767 16.0123 10.6167 16.5 12 16.5C13.3833 16.5 14.5627 16.0123 15.538 15.037C16.5127 14.0623 17 12.8833 17 11.5H19C19 13.25 18.4333 14.7833 17.3 16.1C16.1667 17.4167 14.7333 18.1917 13 18.425V21.5H11ZM12 12.5C12.2833 12.5 12.521 12.404 12.713 12.212C12.9043 12.0207 13 11.7833 13 11.5V5.5C13 5.21667 12.9043 4.979 12.713 4.787C12.521 4.59567 12.2833 4.5 12 4.5C11.7167 4.5 11.4793 4.59567 11.288 4.787C11.096 4.979 11 5.21667 11 5.5V11.5C11 11.7833 11.096 12.0207 11.288 12.212C11.4793 12.404 11.7167 12.5 12 12.5Z" fill="#BDBDBD"/>
</g>
</svg>
