<svg width="24" height="24" viewBox="0 0 24 24" fill="none" xmlns="http://www.w3.org/2000/svg">
<g id="ic_24_sign_g">
<path id="edit_square" d="M3.75 22.2672C3.2 22.2672 2.72917 22.0714 2.3375 21.6797C1.94583 21.288 1.75 20.8172 1.75 20.2672V6.26719C1.75 5.71719 1.94583 5.24635 2.3375 4.85469C2.72917 4.46302 3.2 4.26719 3.75 4.26719H12.675L10.675 6.26719H3.75V20.2672H17.75V13.3172L19.75 11.3172V20.2672C19.75 20.8172 19.5542 21.288 19.1625 21.6797C18.7708 22.0714 18.3 22.2672 17.75 22.2672H3.75ZM14.925 4.84219L16.35 6.24219L9.75 12.8422V14.2672H11.15L17.775 7.64219L19.2 9.04219L12 16.2672H7.75V12.0172L14.925 4.84219ZM19.2 9.04219L14.925 4.84219L17.425 2.34219C17.825 1.94219 18.3042 1.74219 18.8625 1.74219C19.4208 1.74219 19.8917 1.94219 20.275 2.34219L21.675 3.76719C22.0583 4.15052 22.25 4.61719 22.25 5.16719C22.25 5.71719 22.0583 6.18385 21.675 6.56719L19.2 9.04219Z" fill="#099A96"/>
</g>
</svg>
