<svg width="24" height="24" viewBox="0 0 24 24" fill="none" xmlns="http://www.w3.org/2000/svg">
<g id="ic_24_file_g">
<path id="attachment" d="M12.7063 19.0688C11.6221 20.153 10.3257 20.6951 8.81724 20.6951C7.30874 20.6951 6.01238 20.153 4.92815 19.0688C3.84392 17.9845 3.3018 16.6882 3.3018 15.1797C3.3018 13.6712 3.84392 12.3748 4.92815 11.2906L12.3528 3.86598C13.1306 3.08816 14.0734 2.69925 15.1812 2.69925C16.289 2.69925 17.2318 3.08816 18.0096 3.86598C18.7874 4.6438 19.1764 5.58661 19.1764 6.69441C19.1764 7.80221 18.7874 8.74502 18.0096 9.52283L11.2921 16.2403C10.7971 16.7353 10.2079 16.9828 9.52434 16.9828C8.84081 16.9828 8.25155 16.7353 7.75658 16.2403C7.2616 15.7454 7.01411 15.1561 7.01411 14.4726C7.01411 13.789 7.2616 13.1998 7.75658 12.7048L14.4741 5.9873L15.5348 7.04796L8.81724 13.7655C8.61689 13.9658 8.51672 14.2015 8.51672 14.4726C8.51672 14.7436 8.61689 14.9793 8.81724 15.1797C9.01758 15.38 9.25329 15.4802 9.52434 15.4802C9.7954 15.4802 10.0311 15.38 10.2315 15.1797L16.949 8.46217C17.4439 7.9672 17.6914 7.37794 17.6914 6.69441C17.6914 6.01087 17.4439 5.42161 16.949 4.92664C16.454 4.43166 15.8647 4.18418 15.1812 4.18418C14.4977 4.18418 13.9084 4.43166 13.4134 4.92664L5.98881 12.3513C5.21099 13.1291 4.82208 14.0719 4.82208 15.1797C4.82208 16.2875 5.21099 17.2303 5.98881 18.0081C6.76663 18.7859 7.70944 19.1748 8.81724 19.1748C9.92504 19.1748 10.8678 18.7859 11.6457 18.0081L19.0703 10.5835L20.1309 11.6442L12.7063 19.0688Z" fill="#BDBDBD"/>
</g>
</svg>
