<svg width="24" height="24" viewBox="0 0 24 24" fill="none" xmlns="http://www.w3.org/2000/svg">
<g id="ic_24_stamp_g">
<path id="Vector (Stroke)" fill-rule="evenodd" clip-rule="evenodd" d="M19 16.9044L18.9958 16.9002C18.9943 16.8987 18.9915 16.8959 18.9915 16.8959H15.11C14.0054 16.8959 13.11 16.0005 13.11 14.8959C13.11 14.116 13.2467 13.4743 13.4502 12.8912C13.6005 12.4541 13.7938 12.0392 13.9691 11.6628C13.9759 11.6482 13.9827 11.6337 13.9895 11.6192C14.0283 11.5281 14.0697 11.4437 14.1148 11.3617C14.2878 10.9965 14.4645 10.6223 14.6406 10.1944L14.6413 10.1929C15.3739 8.41806 15.0493 7.17533 14.4573 6.38232L14.4543 6.37837C13.8246 5.53039 12.8021 5.08594 12.01 5.08594C11.2245 5.08594 10.104 5.56673 9.42367 6.44741C8.80643 7.24845 8.48966 8.45066 9.34644 10.1071L9.3501 10.1142C10.2863 11.942 10.6525 13.3443 10.7842 14.3848L10.7878 14.4151C10.7961 14.4896 10.8044 14.5568 10.8146 14.6379C10.8857 15.2071 10.709 15.7795 10.3294 16.2095C9.94971 16.6396 9.40366 16.8859 8.83 16.8859H5.0085C5.0085 16.8859 5.00571 16.8887 5.00421 16.8902C5.00272 16.8916 5 16.8944 5 16.8944V18.9126C5 18.9126 5.00272 18.9153 5.00421 18.9168C5.00571 18.9183 5.0085 18.9211 5.0085 18.9211H18.9915C18.9915 18.9211 18.9943 18.9183 18.9958 18.9168C18.9973 18.9153 19 18.9126 19 18.9126V16.9044ZM21 18.9211C21 19.4711 20.8 19.9411 20.41 20.3311C20.02 20.7211 19.55 20.9211 19 20.9211H5C4.45 20.9211 3.98 20.7211 3.59 20.3311C3.2 19.9411 3 19.4711 3 18.9211V16.8859C3 16.3359 3.2 15.8659 3.59 15.4759C3.98 15.0859 4.45 14.8859 5 14.8859H8.83C8.82 14.8059 8.81 14.7259 8.8 14.6359C8.74284 14.1844 8.62361 13.6054 8.37507 12.8859C8.18878 12.3467 7.92986 11.7285 7.57 11.0259C6.37 8.70594 6.73 6.66594 7.84 5.22594C8.89 3.86594 10.59 3.08594 12.01 3.08594C13.43 3.08594 15.05 3.82594 16.06 5.18594C17.12 6.60594 17.46 8.60594 16.49 10.9559C16.2895 11.4429 16.0889 11.8661 15.9145 12.2342C15.9063 12.2515 15.8981 12.2688 15.89 12.2859C15.86 12.3359 15.84 12.3759 15.82 12.4259C15.8119 12.4433 15.8039 12.4605 15.796 12.4775C15.7268 12.6262 15.6626 12.7642 15.6033 12.8959C15.5008 13.1239 15.413 13.3331 15.34 13.5459C15.2 13.9459 15.11 14.3659 15.11 14.8959H19C19.5453 14.8959 20.0119 15.0925 20.3999 15.4759C20.4016 15.4776 20.4033 15.4793 20.405 15.4809C20.4067 15.4826 20.4083 15.4843 20.41 15.4859V15.4759C20.4117 15.4776 20.4133 15.4793 20.415 15.4809C20.4166 15.4826 20.4183 15.4843 20.4199 15.4859C20.8034 15.874 21 16.3406 21 16.8859V18.9211Z" fill="#BDBDBD"/>
</g>
</svg>
